{
.appVersion = "3234";
.formatVersion = 3;
DisplayStrings = (
"",
p,
"/f_f_k"
);
customParameters = (
{
name = vendorID;
value = BWRS;
},
{
name = panose;
value = (
2,
2,
6,
2,
6,
3,
0,
0,
0,
4
);
},
{
name = unicodeRanges;
value = (
0,
1,
2,
3,
4,
5,
7,
29,
31,
32,
33,
35,
36,
38,
60,
62
);
},
{
name = fsType;
value = (
);
},
{
name = blueScale;
value = 0.0166669990867;
},
{
name = blueShift;
value = 10;
},
{
name = glyphOrder;
value = (
.notdef,
A,
AE,
AEacute,
Aacute,
Abreve,
Acircumflex,
Adieresis,
Agrave,
Amacron,
Aogonek,
Aring,
Aringacute,
Atilde,
B,
C,
CR,
Cacute,
Ccaron,
Ccedilla,
Ccircumflex,
Cdotaccent,
D,
Dcaron,
Dcroat,
Ddotbelow,
E,
Eacute,
Ebreve,
Ecaron,
Ecircumflex,
Edieresis,
Edotaccent,
Edotbelow,
Egrave,
Emacron,
Eng,
Eogonek,
Eth,
Etilde,
Euro,
Euro.tnum,
F,
G,
Gbreve,
Gcircumflex,
Gcommaaccent,
Gdotaccent,
H,
Hbar,
Hcircumflex,
Hdotbelow,
I,
IJ,
Iacute,
Ibreve,
Icircumflex,
Idieresis,
Idotaccent,
Idotbelow,
Igrave,
Imacron,
Iogonek,
Itilde,
J,
Jcircumflex,
K,
Kcommaaccent,
L,
Lacute,
Lcaron,
Lcommaaccent,
Ldot,
Lslash,
M,
N,
NULL,
Nacute,
Ncaron,
Ncommaaccent,
Ndotaccent,
Ntilde,
O,
OE,
Oacute,
Obreve,
Ocircumflex,
Odieresis,
Odotbelow,
Ograve,
Ohungarumlaut,
Omacron,
Oogonek,
Oslash,
Oslashacute,
Otilde,
P,
Q,
R,
Racute,
Rcaron,
Rcommaaccent,
Rdotbelow,
S,
Sacute,
Scaron,
Schwa,
Scircumflex,
Sdotbelow,
T,
Tbar,
Tcaron,
Tdotbelow,
Thorn,
U,
Uacute,
Ubreve,
Ucircumflex,
Udieresis,
Udotbelow,
Ugrave,
Uhungarumlaut,
Umacron,
Uogonek,
Uring,
Utilde,
V,
W,
Wacute,
Wcircumflex,
Wdieresis,
Wgrave,
X,
Y,
Yacute,
Ycircumflex,
Ydieresis,
Ygrave,
Ytilde,
Z,
Zacute,
Zcaron,
Zdotaccent,
Zdotbelow,
a,
aacute,
abreve,
acircumflex,
acute,
acute.cap,
adieresis,
ae,
aeacute,
agrave,
amacron,
ampersand,
ampersand.ss01,
aogonek,
apostrophe,
aring,
aringacute,
asciicircum,
asciitilde,
asterisk,
at,
atilde,
b,
backslash,
bar,
bar.tnum,
braceleft,
braceright,
bracketleft,
bracketright,
breve,
breve.cap,
brokenbar,
bullet,
c,
c_p,
c_t,
cacute,
caron,
caron.alt,

glyphs = (
{
glyphname = A;
kernLeft = A;
kernRight = A;
lastChange = "2024-01-02 21:56:34 +0000";
layers = (
{
hints = (
{
horizontal = 1;
place = (793,-20);
target = down;
type = TopGhost;
},
{
horizontal = 1;
place = (286,37);
type = Stem;
},
{
horizontal = 1;
place = (0,28);
type = Stem;
}
);
layerId = m01;
shapes = (
{
closed = 1;
nodes = (
(433,43,o),
(401,29,o),
(325,28,c),
(311,0,l),
(619,0,l),
(633,28,l),
(571,32,o),
(549,40,o),
(548,75,cs),
(548,80,o),
(548,86,o),
(549,92,c),
(442,105,l)
);
},
{
closed = 1;
nodes = (
(-6,65,o),
(-36,42,o),
(-131,28,c),
(-145,0,l),
(133,0,l),
(146,28,l),
(87,36,o),
(62,48,o),
(61,69,cs),
(61,87,o),
(70,101,o),
(101,137,c),
(58,139,l)
);
},
{
closed = 1;
nodes = (
(640,793,l),
(532,770,l),
(521,677,l),
(623,665,l)
);
}
);
width = 748;
}
);
note = A;
unicode = 65;
},
{
glyphname = AE;
kernLeft = AE;
kernRight = AE;
lastChange = "2024-01-02 21:57:35 +0000";
layers = (
{
hints = (
{
horizontal = 1;
place = (550,-20);
target = down;
type = TopGhost;
},
{
horizontal = 1;
place = (540,-20);
target = down;
type = TopGhost;
},
{
horizontal = 1;
place = (730,40);
type = Stem;
},
{
horizontal = 1;
place = (386,40);
type = Stem;
},
{
horizontal = 1;
place = (286,37);
type = Stem;
},
{
horizontal = 1;
place = (0,40);
type = Stem;
}
);
layerId = m01;
shapes = (
{
closed = 1;
nodes = (
(4,65,o),
(-26,42,o),
(-122,28,c),
(-136,0,l),
(145,0,l),
(158,28,l),
(100,36,o),
(75,48,o),
(75,69,cs),
(75,86,o),
(86,102,o),
(118,137,c),
(71,139,l)
);
},
{
closed = 1;
nodes = (
(868,0,l),
(959,230,l),
(930,230,l),
(892,167,o),
(847,103,o),
(793,40,c),
(792,0,l)
);
},
{
closed = 1;
nodes = (
(784,346,o),
(780,306,o),
(769,266,c),
(798,266,l),
(911,540,l),
(882,540,l),
(859,502,o),
(831,464,o),
(798,426,c),
(786,386,l)
);
},
{
closed = 1;
nodes = (
(535,770,l),
(525,747,l),
(602,728,l),
(602,770,l)
);
},
{
closed = 1;
nodes = (
(1057,770,l),
(1065,550,l),
(1038,550,l),
(1026,621,o),
(1009,680,o),
(980,730,c),
(980,770,l)
);
},
{
closed = 1;
nodes = (
(271,28,l),
(259,0,l),
(362,0,l),
(363,47,l)
);
}
);
width = 1040;
}
);
note = AE;
unicode = 198;
},
{
glyphname = AEacute;
kernLeft = AE;
kernRight = AE;
lastChange = "2024-01-02 21:57:48 +0000";
layers = (
{
hints = (
{
horizontal = 1;
place = (550,-20);
target = down;
type = TopGhost;
},
{
horizontal = 1;
place = (540,-20);
target = down;
type = TopGhost;
},
{
horizontal = 1;
place = (730,240);
type = Stem;
},
{
horizontal = 1;
place = (730,40);
type = Stem;
},
{
horizontal = 1;
place = (386,40);
type = Stem;
},
{
horizontal = 1;
place = (286,37);
type = Stem;
},
{
horizontal = 1;
place = (0,40);
type = Stem;
}
);
layerId = m01;
shapes = (
{
closed = 1;
nodes = (
(721,826,l),
(873,870,ls),
(925,885,o),
(941,904,o),
(941,927,cs),
(941,952,o),
(920,970,o),
(898,970,cs),
(882,970,o),
(869,965,o),
(854,954,cs),
(710,847,l)
);
},
{
ref = AE;
}
);
width = 1040;
}
);
note = AEacute;
unicode = 508;
},
{
glyphname = Aacute;
kernLeft = A;
kernRight = A;
lastChange = "2024-01-02 21:57:55 +0000";
layers = (
{
hints = (
{
horizontal = 1;
place = (970,-20);
target = down;
type = TopGhost;
},
{
horizontal = 1;
place = (286,37);
type = Stem;
},
{
horizontal = 1;
place = (0,28);
type = Stem;
}
);
layerId = m01;
shapes = (
{
closed = 1;
nodes = (
(502,826,l),
(654,870,ls),
(706,885,o),
(722,904,o),
(722,927,cs),
(722,952,o),
(701,970,o),
(679,970,cs),
(663,970,o),
(650,965,o),
(635,954,cs),
(491,847,l)
);
},
{
ref = A;
}
);
width = 748;
}
);
note = Aacute;
unicode = 193;
},
{
glyphname = Abreve;
kernLeft = A;
kernRight = A;
lastChange = "2024-01-02 21:57:59 +0000";
layers = (
{
hints = (
{
horizontal = 1;
place = (831,139);
type = Stem;
},
{
horizontal = 1;
place = (831,74);
type = Stem;
},
{
horizontal = 1;
place = (286,37);
type = Stem;
},
{
horizontal = 1;
place = (0,28);
type = Stem;
},
{
place = (526,45);
type = Stem;
}
);
layerId = m01;
shapes = (
{
closed = 1;
nodes = (
(536,970,l),
(529,948,o),
(526,930,o),
(526,914,cs),
(526,853,o),
(570,831,o),
(616,831,cs),
(659,831,o),
(737,846,o),
(820,970,c),
(780,970,l),
(738,924,o),
(694,905,o),
(650,905,cs),
(598,905,o),
(572,929,o),
(571,970,c)
);
},
{
ref = A;
}
);
width = 748;
}
);
note = Abreve;
unicode = 258;
},
{
glyphname = Acircumflex;
kernLeft = A;
kernRight = A;
lastChange = "2024-01-02 21:58:02 +0000";
layers = (
{
hints = (
{
horizontal = 1;
place = (970,-20);
target = down;
type = TopGhost;
},
{
horizontal = 1;
place = (286,37);
type = Stem;
},
{
horizontal = 1;
place = (0,28);
type = Stem;
}
);
layerId = m01;
shapes = (
{
closed = 1;
nodes = (
(627,970,o),
(612,960,o),
(588,943,cs),
(456,847,l),
(468,830,l),
(633,898,l),
(724,830,l),
(750,847,l),
(696,943,ls),
(685,962,o),
(675,970,o),
(652,970,cs)
);
},
{
ref = A;
}
);
width = 748;
}
);
note = Acircumflex;
unicode = 194;
},
{
glyphname = Adieresis;
kernLeft = A;
kernRight = A;
lastChange = "2024-01-02 21:58:04 +0000";
layers = (
{
hints = (
{
horizontal = 1;
place = (859,111);
type = Stem;
},
{
horizontal = 1;
place = (286,37);
type = Stem;
},
{
horizontal = 1;
place = (0,28);
type = Stem;
},
{
place = (641,122);
type = Stem;
},
{
place = (466,122);
type = Stem;
}
);
layerId = m01;
shapes = (
{
closed = 1;
nodes = (
(497,970,o),
(466,942,o),
(466,910,cs),
(466,879,o),
(487,859,o),
(521,859,cs),
(555,859,o),
(588,889,o),
(588,921,cs),
(588,949,o),
(561,970,o),
(531,970,cs)
);
},
{
closed = 1;
nodes = (
(672,970,o),
(641,942,o),
(641,910,cs),
(641,879,o),
(662,859,o),
(696,859,cs),
(730,859,o),
(763,889,o),
(763,921,cs),
(763,949,o),
(736,970,o),
(706,970,cs)
);
},
{
ref = A;
}
);
width = 748;
}
);
note = Adieresis;
unicode = 196;
},
{
glyphname = Agrave;
kernLeft = A;
kernRight = A;
lastChange = "2024-01-02 21:58:08 +0000";
layers = (
{
hints = (
{
horizontal = 1;
place = (970,-20);
target = down;
type = TopGhost;
},
{
horizontal = 1;
place = (286,37);
type = Stem;
},
{
horizontal = 1;
place = (0,28);
type = Stem;
}
);
layerId = m01;
shapes = (
{
closed = 1;
nodes = (
(681,847,l),
(577,938,ls),
(554,958,o),
(537,970,o),
(514,970,cs),
(484,970,o),
(464,951,o),
(464,922,cs),
(464,898,o),
(477,880,o),
(501,873,cs),
(662,826,l)
);
},
{
ref = A;
}
);
width = 748;
}
);
note = Agrave;
unicode = 192;
},
{
glyphname = Amacron;
kernLeft = A;
kernRight = A;
lastChange = "2024-01-02 21:58:10 +0000";
layers = (
{
hints = (
{
horizontal = 1;
place = (881,71);
type = Stem;
},
{
horizontal = 1;
place = (286,37);
type = Stem;
},
{
horizontal = 1;
place = (0,28);
type = Stem;
}
);
layerId = m01;
shapes = (
{
closed = 1;
nodes = (
(757,881,l),
(786,952,l),
(499,952,l),
(471,881,l)
);
},
{
ref = A;
}
);
width = 748;
}
);
note = Amacron;
unicode = 256;
},
{
glyphname = Aogonek;
kernLeft = A;
kernRight = A;
lastChange = "2024-01-02 21:58:16 +0000";
layers = (
{
hints = (
{
horizontal = 1;
place = (793,-20);
target = down;
type = TopGhost;
},
{
horizontal = 1;
place = (286,37);
type = Stem;
},
{
horizontal = 1;
place = (0,28);
type = Stem;
},
{
horizontal = 1;
place = (-256,55);
type = Stem;
},
{
place = (259,97);
type = Stem;
}
);
layerId = m01;
shapes = (
{
closed = 1;
nodes = (
(458,-180,l),
(427,-196,o),
(411,-201,o),
(393,-201,cs),
(368,-201,o),
(356,-192,o),
(356,-172,cs),
(356,-132,o),
(405,-69,o),
(493,0,c),
(449,0,l),
(332,-67,o),
(259,-145,o),
(259,-204,cs),
(259,-238,o),
(283,-256,o),
(326,-256,cs),
(371,-256,o),
(418,-236,o),
(463,-198,c)
);
},
{
ref = A;
}
);
width = 748;
}
);
note = Aogonek;
unicode = 260;
},
{
glyphname = Aring;
kernLeft = A;
kernRight = A;
lastChange = "2024-01-02 21:58:20 +0000";
layers = (
{
hints = (
{
horizontal = 1;
place = (932,38);
type = Stem;
},
{
horizontal = 1;
place = (830,36);
type = Stem;
},
{
horizontal = 1;
place = (286,37);
type = Stem;
},
{
horizontal = 1;
place = (0,28);
type = Stem;
},
{
place = (666,40);
type = Stem;
},
{
place = (552,40);
type = Stem;
}
);
layerId = m01;
shapes = (
{
closed = 1;
nodes = (
(589,970,o),
(552,934,o),
(552,893,cs),
(552,857,o),
(580,830,o),
(619,830,cs),
(665,830,o),
(706,867,o),
(706,907,cs),
(706,942,o),
(674,970,o),
(634,970,cs)
);
},
{
closed = 1;
nodes = (
(649,932,o),
(666,919,o),
(666,903,cs),
(666,884,o),
(645,866,o),
(624,866,cs),
(606,866,o),
(592,879,o),
(592,897,cs),
(592,916,o),
(610,932,o),
(631,932,cs)
);
},
{
ref = A;
}
);
width = 748;
}
);
note = Aring;
unicode = 197;
},
{
glyphname = Aringacute;
kernLeft = A;
kernRight = A;
lastChange = "2024-01-02 21:58:22 +0000";
layers = (
{
hints = (
{
horizontal = 1;
place = (932,38);
type = Stem;
},
{
horizontal = 1;
place = (876,70);
type = Stem;
},
{
horizontal = 1;
place = (830,36);
type = Stem;
},
{
horizontal = 1;
place = (286,37);
type = Stem;
},
{
horizontal = 1;
place = (0,28);
type = Stem;
},
{
place = (673,88);
type = Stem;
},
{
place = (599,74);
type = Stem;
}
);
layerId = m01;
shapes = (
{
closed = 1;
nodes = (
(601,970,o),
(568,942,o),
(560,907,c),
(520,894,l),
(524,870,l),
(563,868,l),
(573,845,o),
(596,830,o),
(626,830,cs),
(659,830,o),
(691,849,o),
(705,876,c),
(747,878,o),
(761,892,o),
(761,912,cs),
(761,934,o),
(747,946,o),
(717,946,cs),
(711,946,o),
(706,945,o),
(700,944,c),
(687,960,o),
(665,970,o),
(641,970,cs)
);
},
{
closed = 1;
nodes = (
(656,932,o),
(673,919,o),
(673,903,cs),
(673,884,o),
(652,866,o),
(631,866,cs),
(613,866,o),
(599,879,o),
(599,897,cs),
(599,916,o),
(617,932,o),
(638,932,cs)
);
},
{
ref = A;
}
);
width = 748;
}
);
note = Aringacute;
unicode = 506;
},
{
glyphname = Atilde;
kernLeft = A;
kernRight = A;
lastChange = "2024-01-02 21:58:25 +0000";
layers = (
{
hints = (
{
horizontal = 1;
place = (970,-20);
target = down;
type = TopGhost;
},
{
horizontal = 1;
place = (891,76);
type = Stem;
},
{
horizontal = 1;
place = (891,41);
type = Stem;
},
{
horizontal = 1;
place = (852,80);
type = Stem;
},
{
horizontal = 1;
place = (286,37);
type = Stem;
},
{
horizontal = 1;
place = (0,28);
type = Stem;
}
);
layerId = m01;
shapes = (
{
closed = 1;
nodes = (
(457,853,l),
(468,877,o),
(491,891,o),
(520,891,cs),
(567,891,o),
(609,852,o),
(656,852,cs),
(705,852,o),
(756,901,o),
(779,970,c),
(755,970,l),
(742,945,o),
(721,932,o),
(693,932,cs),
(648,932,o),
(601,967,o),
(555,967,cs),
(506,967,o),
(455,920,o),
(436,853,c)
);
},
{
ref = A;
}
);
width = 748;
}
);
note = Atilde;
unicode = 195;
},
{
glyphname = B;
kernLeft = B;
lastChange = "2024-01-02 21:58:44 +0000";
layers = (
{
hints = (
{
horizontal = 1;
place = (729,41);
type = Stem;
},
{
horizontal = 1;
place = (389,40);
type = Stem;
},
{
horizontal = 1;
place = (0,38);
type = Stem;
},
{
place = (620,104);
type = Stem;
},
{
place = (511,108);
type = Stem;
}
);
layerId = m01;
shapes = (
{
closed = 1;
nodes = (
(-63,0,l),
(-52,28,l),
(36,47,l),
(35,0,l)
);
},
{
closed = 1;
nodes = (
(251,770,l),
(240,742,l),
(318,723,l),
(318,770,l)
);
}
);
width = 715;
}
);
note = B;
unicode = 66;
},
{
glyphname = C;
kernLeft = C;
kernRight = C;
lastChange = "2024-01-02 21:59:18 +0000";
layers = (
{
hints = (
{
horizontal = 1;
place = (770,-20);
target = down;
type = TopGhost;
},
{
horizontal = 1;
place = (540,-20);
target = down;
type = TopGhost;
},
{
horizontal = 1;
place = (736,44);
type = Stem;
},
{
horizontal = 1;
place = (-10,47);
type = Stem;
},
{
horizontal = 1;
place = (0,21);
target = up;
type = BottomGhost;
},
{
place = (63,110);
type = Stem;
}
);
layerId = m01;
shapes = (
{
closed = 1;
nodes = (
(454,37,o),
(573,134,o),
(641,293,c),
(670,293,l),
(559,0,l),
(532,0,l),
(540,77,l),
(536,77,l),
(457,15,o),
(388,-10,o),
(298,-10,c),
(325,37,l)
);
},
{
closed = 1;
nodes = (
(696,780,o),
(753,764,o),
(789,737,c),
(825,770,l),
(847,770,l),
(750,540,l),
(721,540,l),
(731,577,o),
(736,608,o),
(736,634,cs),
(736,705,o),
(700,736,o),
(622,736,c),
(632,780,l)
);
}
);
width = 742;
}
);
note = C;
unicode = 67;
},
{
glyphname = Cacute;
kernLeft = C;
kernRight = C;
lastChange = "2024-01-02 21:59:27 +0000";
layers = (
{
hints = (
{
horizontal = 1;
place = (770,-20);
target = down;
type = TopGhost;
},
{
horizontal = 1;
place = (540,-20);
target = down;
type = TopGhost;
},
{
horizontal = 1;
place = (736,234);
type = Stem;
},
{
horizontal = 1;
place = (736,44);
type = Stem;
},
{
horizontal = 1;
place = (-10,47);
type = Stem;
},
{
horizontal = 1;
place = (0,21);
target = up;
type = BottomGhost;
},
{
place = (63,110);
type = Stem;
}
);
layerId = m01;
shapes = (
{
closed = 1;
nodes = (
(599,826,l),
(751,870,ls),
(803,885,o),
(819,904,o),
(819,927,cs),
(819,952,o),
(798,970,o),
(776,970,cs),
(760,970,o),
(747,965,o),
(732,954,cs),
(588,847,l)
);
},
{
ref = C;
}
);
width = 742;
}
);
note = Cacute;
unicode = 262;
},
{
glyphname = Ccaron;
kernLeft = C;
kernRight = C;
lastChange = "2024-01-02 21:59:29 +0000";
layers = (
{
hints = (
{
horizontal = 1;
place = (970,-20);
target = down;
type = TopGhost;
},
{
horizontal = 1;
place = (770,-20);
target = down;
type = TopGhost;
},
{
horizontal = 1;
place = (540,-20);
target = down;
type = TopGhost;
},
{
horizontal = 1;
place = (780,50);
type = Stem;
},
{
horizontal = 1;
place = (736,44);
type = Stem;
},
{
horizontal = 1;
place = (-10,47);
type = Stem;
},
{
horizontal = 1;
place = (0,21);
target = up;
type = BottomGhost;
},
{
place = (63,110);
type = Stem;
}
);
layerId = m01;
shapes = (
{
closed = 1;
nodes = (
(683,830,o),
(698,840,o),
(722,857,cs),
(854,953,l),
(842,970,l),
(677,902,l),
(586,970,l),
(560,953,l),
(614,857,ls),
(625,838,o),
(635,830,o),
(658,830,cs)
);
},
{
ref = C;
}
);
width = 742;
}
);
note = Ccaron;
unicode = 268;
},
{
glyphname = Ccedilla;
kernLeft = C;
kernRight = C;
lastChange = "2024-01-02 21:59:58 +0000";
layers = (
{
hints = (
{
horizontal = 1;
place = (770,-20);
target = down;
type = TopGhost;
},
{
horizontal = 1;
place = (540,-20);
target = down;
type = TopGhost;
},
{
horizontal = 1;
place = (736,44);
type = Stem;
},
{
horizontal = 1;
place = (-10,47);
type = Stem;
},
{
horizontal = 1;
place = (-122,64);
type = Stem;
},
{
horizontal = 1;
place = (-257,31);
type = Stem;
},
{
horizontal = 1;
place = (0,21);
target = up;
type = BottomGhost;
},
{
place = (296,82);
type = Stem;
},
{
place = (63,110);
type = Stem;
},
{
horizontal = 1;
place = (770,-20);
target = down;
type = TopGhost;
},
{
horizontal = 1;
place = (540,-20);
target = down;
type = TopGhost;
},
{
horizontal = 1;
place = (736,44);
type = Stem;
},
{
horizontal = 1;
place = (-10,47);
type = Stem;
},
{
horizontal = 1;
place = (0,21);
target = up;
type = BottomGhost;
},
{
place = (63,110);
type = Stem;
}
);
layerId = m01;
shapes = (
{
closed = 1;
nodes = (
(298,-257,o),
(378,-196,o),
(378,-128,cs),
(378,-84,o),
(346,-58,o),
(290,-58,c),
(327,-9,l),
(403,-4,o),
(466,22,o),
(536,77,c),
(540,77,l),
(532,0,l),
(559,0,l),
(670,293,l),
(641,293,l),
(573,134,o),
(454,37,o),
(325,37,c),
(285,-10,l),
(198,-121,l),
(206,-134,l),
(218,-126,o),
(235,-122,o),
(254,-122,cs),
(283,-122,o),
(296,-133,o),
(296,-156,cs),
(296,-197,o),
(257,-226,o),
(207,-226,cs),
(186,-226,o),
(170,-221,o),
(155,-210,c),
(138,-233,l),
(149,-248,o),
(174,-257,o),
(208,-257,cs)
);
},
{
closed = 1;
nodes = (
(750,540,l),
(847,770,l),
(825,770,l),
(789,737,l),
(753,764,o),
(696,780,o),
(632,780,c),
(622,736,l),
(700,736,o),
(736,705,o),
(736,634,cs),
(736,608,o),
(731,577,o),
(721,540,c)
);
}
);
width = 742;
}
);
note = Ccedilla;
unicode = 199;
},
{
glyphname = Ccircumflex;
kernLeft = C;
kernRight = C;
lastChange = "2024-01-02 22:00:05 +0000";
layers = (
{
hints = (
{
horizontal = 1;
place = (770,-20);
target = down;
type = TopGhost;
},
{
horizontal = 1;
place = (540,-20);
target = down;
type = TopGhost;
},
{
horizontal = 1;
place = (736,234);
type = Stem;
},
{
horizontal = 1;
place = (736,44);
type = Stem;
},
{
horizontal = 1;
place = (-10,47);
type = Stem;
},
{
horizontal = 1;
place = (0,21);
target = up;
type = BottomGhost;
},
{
place = (63,110);
type = Stem;
}
);
layerId = m01;
shapes = (
{
closed = 1;
nodes = (
(687,970,o),
(672,960,o),
(648,943,cs),
(516,847,l),
(528,830,l),
(693,898,l),
(784,830,l),
(810,847,l),
(756,943,ls),
(745,962,o),
(735,970,o),
(712,970,cs)
);
},
{
ref = C;
}
);
width = 742;
}
);
note = Ccircumflex;
unicode = 264;
},
{
glyphname = Cdotaccent;
kernLeft = C;
kernRight = C;
lastChange = "2024-01-02 22:00:08 +0000";
layers = (
{
hints = (
{
horizontal = 1;
place = (770,-20);
target = down;
type = TopGhost;
},
{
horizontal = 1;
place = (540,-20);
target = down;
type = TopGhost;
},
{
horizontal = 1;
place = (845,125);
type = Stem;
},
{
horizontal = 1;
place = (736,44);
type = Stem;
},
{
horizontal = 1;
place = (-10,47);
type = Stem;
},
{
horizontal = 1;
place = (0,21);
target = up;
type = BottomGhost;
},
{
place = (637,137);
type = Stem;
},
{
place = (63,110);
type = Stem;
}
);
layerId = m01;
shapes = (
{
closed = 1;
nodes = (
(672,970,o),
(637,939,o),
(637,902,cs),
(637,868,o),
(661,845,o),
(699,845,cs),
(737,845,o),
(774,879,o),
(774,915,cs),
(774,946,o),
(744,970,o),
(710,970,cs)
);
},
{
ref = C;
}
);
width = 742;
}
);
note = Cdotaccent;
unicode = 266;
},
{
glyphname = D;
kernLeft = B;
kernRight = D;
lastChange = "2024-01-02 22:00:35 +0000";
layers = (
{
hints = (
{
horizontal = 1;
place = (730,40);
type = Stem;
},
{
horizontal = 1;
place = (0,42);
type = Stem;
},
{
place = (671,110);
type = Stem;
}
);
layerId = m01;
shapes = (
{
closed = 1;
nodes = (
(-68,0,l),
(-58,23,l),
(34,42,l),
(34,0,l)
);
},
{
closed = 1;
nodes = (
(250,770,l),
(240,747,l),
(318,728,l),
(318,770,l)
);
}
);
width = 805;
}
);
note = D;
unicode = 68;
},
{
glyphname = Dcaron;
kernLeft = B;
kernRight = D;
lastChange = "2024-01-02 22:00:39 +0000";
layers = (
{
hints = (
{
horizontal = 1;
place = (970,-20);
target = down;
type = TopGhost;
},
{
horizontal = 1;
place = (770,60);
type = Stem;
},
{
horizontal = 1;
place = (730,40);
type = Stem;
},
{
horizontal = 1;
place = (0,42);
type = Stem;
},
{
place = (671,110);
type = Stem;
}
);
layerId = m01;
shapes = (
{
closed = 1;
nodes = (
(588,830,o),
(603,840,o),
(627,857,cs),
(759,953,l),
(747,970,l),
(582,902,l),
(491,970,l),
(465,953,l),
(519,857,ls),
(530,838,o),
(540,830,o),
(563,830,cs)
);
},
{
ref = D;
}
);
width = 805;
}
);
note = Dcaron;
unicode = 270;
},
{
glyphname = Dcroat;
kernLeft = B;
kernRight = D;
lastChange = "2024-01-02 22:00:53 +0000";
layers = (
{
hints = (
{
horizontal = 1;
place = (730,40);
type = Stem;
},
{
horizontal = 1;
place = (376,44);
type = Stem;
},
{
horizontal = 1;
place = (0,42);
type = Stem;
},
{
place = (674,110);
type = Stem;
}
);
layerId = m01;
shapes = (
{
ref = D;
},
{
closed = 1;
nodes = (
(96,420,l),
(78,376,l),
(434,376,l),
(453,420,l)
);
}
);
width = 808;
}
);
note = Dcroat;
unicode = 272;
},
{
glyphname = Ddotbelow;
kernLeft = B;
kernRight = D;
lastChange = "2024-01-02 22:00:58 +0000";
layers = (
{
hints = (
{
horizontal = 1;
place = (730,40);
type = Stem;
},
{
horizontal = 1;
place = (0,42);
type = Stem;
},
{
horizontal = 1;
place = (-256,125);
type = Stem;
},
{
place = (671,110);
type = Stem;
},
{
place = (120,137);
type = Stem;
}
);
layerId = m01;
shapes = (
{
closed = 1;
nodes = (
(155,-131,o),
(120,-162,o),
(120,-199,cs),
(120,-233,o),
(144,-256,o),
(182,-256,cs),
(220,-256,o),
(257,-222,o),
(257,-186,cs),
(257,-155,o),
(227,-131,o),
(193,-131,cs)
);
},
{
ref = D;
}
);
width = 805;
}
);
note = Ddotbelow;
unicode = 7692;
},
{
glyphname = E;
kernLeft = B;
kernRight = AE;
lastChange = "2024-01-02 22:01:35 +0000";
layers = (
{
hints = (
{
horizontal = 1;
place = (550,-20);
target = down;
type = TopGhost;
},
{
horizontal = 1;
place = (540,-20);
target = down;
type = TopGhost;
},
{
horizontal = 1;
place = (730,40);
type = Stem;
},
{
horizontal = 1;
place = (386,40);
type = Stem;
},
{
horizontal = 1;
place = (0,40);
type = Stem;
}
);
layerId = m01;
shapes = (
{
closed = 1;
nodes = (
(504,464,o),
(532,502,o),
(555,540,c),
(584,540,l),
(471,266,l),
(442,266,l),
(453,306,o),
(457,346,o),
(459,386,c),
(471,426,l)
);
},
{
closed = 1;
nodes = (
(520,103,o),
(565,167,o),
(603,230,c),
(632,230,l),
(541,0,l),
(466,0,l),
(466,40,l)
);
},
{
closed = 1;
nodes = (
(730,770,l),
(738,550,l),
(711,550,l),
(699,621,o),
(682,680,o),
(653,730,c),
(653,770,l)
);
},
{
closed = 1;
nodes = (
(250,770,l),
(240,747,l),
(318,728,l),
(317,770,l)
);
},
{
closed = 1;
nodes = (
(-58,23,l),
(-68,0,l),
(34,0,l),
(34,42,l)
);
}
);
width = 713;
}
);
note = E;
unicode = 69;
},
{
glyphname = Eacute;
kernLeft = B;
kernRight = AE;
lastChange = "2024-01-02 22:01:42 +0000";
layers = (
{
hints = (
{
horizontal = 1;
place = (550,-20);
target = down;
type = TopGhost;
},
{
horizontal = 1;
place = (540,-20);
target = down;
type = TopGhost;
},
{
horizontal = 1;
place = (730,240);
type = Stem;
},
{
horizontal = 1;
place = (730,40);
type = Stem;
},
{
horizontal = 1;
place = (386,40);
type = Stem;
},
{
horizontal = 1;
place = (0,40);
type = Stem;
}
);
layerId = m01;
shapes = (
{
closed = 1;
nodes = (
(465,826,l),
(617,870,ls),
(669,885,o),
(685,904,o),
(685,927,cs),
(685,952,o),
(664,970,o),
(642,970,cs),
(626,970,o),
(613,965,o),
(598,954,cs),
(454,847,l)
);
},
{
ref = E;
}
);
width = 713;
}
);
note = Eacute;
unicode = 201;
},
{
glyphname = Ebreve;
kernLeft = B;
kernRight = AE;
lastChange = "2024-01-02 22:01:44 +0000";
layers = (
{
hints = (
{
horizontal = 1;
place = (550,-20);
target = down;
type = TopGhost;
},
{
horizontal = 1;
place = (540,-20);
target = down;
type = TopGhost;
},
{
horizontal = 1;
place = (831,139);
type = Stem;
},
{
horizontal = 1;
place = (831,74);
type = Stem;
},
{
horizontal = 1;
place = (730,40);
type = Stem;
},
{
horizontal = 1;
place = (386,40);
type = Stem;
},
{
horizontal = 1;
place = (0,40);
type = Stem;
},
{
place = (454,45);
type = Stem;
}
);
layerId = m01;
shapes = (
{
closed = 1;
nodes = (
(464,970,l),
(457,948,o),
(454,930,o),
(454,914,cs),
(454,853,o),
(498,831,o),
(544,831,cs),
(587,831,o),
(665,846,o),
(748,970,c),
(708,970,l),
(666,924,o),
(622,905,o),
(578,905,cs),
(526,905,o),
(500,929,o),
(499,970,c)
);
},
{
ref = E;
}
);
width = 713;
}
);
note = Ebreve;
unicode = 276;
},
{
glyphname = Ecaron;
kernLeft = B;
kernRight = AE;
lastChange = "2024-01-02 22:01:45 +0000";
layers = (
{
hints = (
{
horizontal = 1;
place = (970,-20);
target = down;
type = TopGhost;
},
{
horizontal = 1;
place = (550,-20);
target = down;
type = TopGhost;
},
{
horizontal = 1;
place = (540,-20);
target = down;
type = TopGhost;
},
{
horizontal = 1;
place = (770,60);
type = Stem;
},
{
horizontal = 1;
place = (730,40);
type = Stem;
},
{
horizontal = 1;
place = (386,40);
type = Stem;
},
{
horizontal = 1;
place = (0,40);
type = Stem;
}
);
layerId = m01;
shapes = (
{
closed = 1;
nodes = (
(574,830,o),
(589,840,o),
(613,857,cs),
(745,953,l),
(733,970,l),
(568,902,l),
(477,970,l),
(451,953,l),
(505,857,ls),
(516,838,o),
(526,830,o),
(549,830,cs)
);
},
{
ref = E;
}
);
width = 713;
}
);
note = Ecaron;
unicode = 282;
},
{
glyphname = Ecircumflex;
kernLeft = B;
kernRight = AE;
lastChange = "2024-01-02 22:01:48 +0000";
layers = (
{
hints = (
{
horizontal = 1;
place = (550,-20);
target = down;
type = TopGhost;
},
{
horizontal = 1;
place = (540,-20);
target = down;
type = TopGhost;
},
{
horizontal = 1;
place = (730,240);
type = Stem;
},
{
horizontal = 1;
place = (730,40);
type = Stem;
},
{
horizontal = 1;
place = (386,40);
type = Stem;
},
{
horizontal = 1;
place = (0,40);
type = Stem;
}
);
layerId = m01;
shapes = (
{
closed = 1;
nodes = (
(575,970,o),
(560,960,o),
(536,943,cs),
(404,847,l),
(416,830,l),
(581,898,l),
(672,830,l),
(698,847,l),
(644,943,ls),
(633,962,o),
(623,970,o),
(600,970,cs)
);
},
{
ref = E;
}
);
width = 713;
}
);
note = Ecircumflex;
unicode = 202;
},
{
glyphname = Edieresis;
kernLeft = B;
kernRight = AE;
lastChange = "2024-01-02 22:01:50 +0000";
layers = (
{
hints = (
{
horizontal = 1;
place = (550,-20);
target = down;
type = TopGhost;
},
{
horizontal = 1;
place = (540,-20);
target = down;
type = TopGhost;
},
{
horizontal = 1;
place = (859,111);
type = Stem;
},
{
horizontal = 1;
place = (730,40);
type = Stem;
},
{
horizontal = 1;
place = (386,40);
type = Stem;
},
{
horizontal = 1;
place = (0,40);
type = Stem;
},
{
place = (600,122);
type = Stem;
},
{
place = (425,122);
type = Stem;
}
);
layerId = m01;
shapes = (
{
closed = 1;
nodes = (
(456,970,o),
(425,942,o),
(425,910,cs),
(425,879,o),
(446,859,o),
(480,859,cs),
(514,859,o),
(547,889,o),
(547,921,cs),
(547,949,o),
(520,970,o),
(490,970,cs)
);
},
{
closed = 1;
nodes = (
(631,970,o),
(600,942,o),
(600,910,cs),
(600,879,o),
(621,859,o),
(655,859,cs),
(689,859,o),
(722,889,o),
(722,921,cs),
(722,949,o),
(695,970,o),
(665,970,cs)
);
},
{
ref = E;
}
);
width = 713;
}
);
note = Edieresis;
unicode = 203;
},
{
glyphname = Edotaccent;
kernLeft = B;
kernRight = AE;
lastChange = "2024-01-02 22:01:52 +0000";
layers = (
{
hints = (
{
horizontal = 1;
place = (550,-20);
target = down;
type = TopGhost;
},
{
horizontal = 1;
place = (540,-20);
target = down;
type = TopGhost;
},
{
horizontal = 1;
place = (845,125);
type = Stem;
},
{
horizontal = 1;
place = (730,40);
type = Stem;
},
{
horizontal = 1;
place = (386,40);
type = Stem;
},
{
horizontal = 1;
place = (0,40);
type = Stem;
},
{
place = (510,137);
type = Stem;
}
);
layerId = m01;
shapes = (
{
closed = 1;
nodes = (
(545,970,o),
(510,939,o),
(510,902,cs),
(510,868,o),
(534,845,o),
(572,845,cs),
(610,845,o),
(647,879,o),
(647,915,cs),
(647,946,o),
(617,970,o),
(583,970,cs)
);
},
{
ref = E;
}
);
width = 713;
}
);
note = Edotaccent;
unicode = 278;
},
{
glyphname = Edotbelow;
kernLeft = B;
kernRight = AE;
lastChange = "2024-01-02 22:01:54 +0000";
layers = (
{
hints = (
{
horizontal = 1;
place = (550,-20);
target = down;
type = TopGhost;
},
{
horizontal = 1;
place = (540,-20);
target = down;
type = TopGhost;
},
{
horizontal = 1;
place = (730,40);
type = Stem;
},
{
horizontal = 1;
place = (386,40);
type = Stem;
},
{
horizontal = 1;
place = (0,40);
type = Stem;
},
{
horizontal = 1;
place = (-256,125);
type = Stem;
},
{
place = (151,137);
type = Stem;
}
);
layerId = m01;
shapes = (
{
closed = 1;
nodes = (
(186,-131,o),
(151,-162,o),
(151,-199,cs),
(151,-233,o),
(175,-256,o),
(213,-256,cs),
(251,-256,o),
(288,-222,o),
(288,-186,cs),
(288,-155,o),
(258,-131,o),
(224,-131,cs)
);
},
{
ref = E;
}
);
width = 713;
}
);
note = Edotbelow;
unicode = 7864;
},
{
glyphname = Egrave;
kernLeft = B;
kernRight = AE;
lastChange = "2024-01-02 22:01:57 +0000";
layers = (
{
hints = (
{
horizontal = 1;
place = (550,-20);
target = down;
type = TopGhost;
},
{
horizontal = 1;
place = (540,-20);
target = down;
type = TopGhost;
},
{
horizontal = 1;
place = (730,240);
type = Stem;
},
{
horizontal = 1;
place = (730,40);
type = Stem;
},
{
horizontal = 1;
place = (386,40);
type = Stem;
},
{
horizontal = 1;
place = (0,40);
type = Stem;
}
);
layerId = m01;
shapes = (
{
closed = 1;
nodes = (
(618,847,l),
(514,938,ls),
(491,958,o),
(474,970,o),
(451,970,cs),
(421,970,o),
(401,951,o),
(401,922,cs),
(401,898,o),
(414,880,o),
(438,873,cs),
(599,826,l)
);
},
{
ref = E;
}
);
width = 713;
}
);
note = Egrave;
unicode = 200;
},
{
glyphname = Emacron;
kernLeft = B;
kernRight = AE;
lastChange = "2024-01-02 22:01:59 +0000";
layers = (
{
hints = (
{
horizontal = 1;
place = (550,-20);
target = down;
type = TopGhost;
},
{
horizontal = 1;
place = (540,-20);
target = down;
type = TopGhost;
},
{
horizontal = 1;
place = (881,71);
type = Stem;
},
{
horizontal = 1;
place = (730,40);
type = Stem;
},
{
horizontal = 1;
place = (386,40);
type = Stem;
},
{
horizontal = 1;
place = (0,40);
type = Stem;
}
);
layerId = m01;
shapes = (
{
closed = 1;
nodes = (
(697,881,l),
(726,952,l),
(439,952,l),
(411,881,l)
);
},
{
ref = E;
}
);
width = 713;
}
);
note = Emacron;
unicode = 274;
},
{
glyphname = Eng;
kernLeft = Eng;
kernRight = Eng;
lastChange = "2024-01-02 22:02:24 +0000";
layers = (
{
hints = (
{
horizontal = 1;
place = (770,-20);
target = down;
type = TopGhost;
},
{
horizontal = 1;
place = (-256,129);
type = Stem;
},
{
horizontal = 1;
place = (-256,40);
type = Stem;
},
{
horizontal = 1;
place = (0,21);
target = up;
type = BottomGhost;
}
);
layerId = m01;
shapes = (
{
closed = 1;
nodes = (
(246,-216,o),
(274,-127,o),
(209,-127,cs),
(183,-127,o),
(158,-145,o),
(158,-177,cs),
(158,-220,o),
(204,-256,o),
(277,-256,c),
(306,-216,l)
);
},
{
closed = 1;
nodes = (
(-65,23,l),
(-75,0,l),
(152,0,l),
(162,23,l),
(80,42,l),
(32,42,l)
);
},
{
closed = 1;
nodes = (
(959,747,l),
(969,770,l),
(741,770,l),
(731,747,l),
(814,728,l),
(863,728,l)
);
},
{
closed = 1;
nodes = (
(243,770,l),
(233,747,l),
(316,728,l),
(315,770,l)
);
}
);
width = 815;
}
);
note = Eng;
unicode = 330;
},
{
glyphname = Eogonek;
kernLeft = B;
kernRight = AE;
lastChange = "2024-01-02 22:03:29 +0000";
layers = (
{
hints = (
{
horizontal = 1;
place = (550,-20);
target = down;
type = TopGhost;
},
{
horizontal = 1;
place = (540,-20);
target = down;
type = TopGhost;
},
{
horizontal = 1;
place = (730,40);
type = Stem;
},
{
horizontal = 1;
place = (386,40);
type = Stem;
},
{
horizontal = 1;
place = (0,40);
type = Stem;
},
{
horizontal = 1;
place = (-256,55);
type = Stem;
},
{
place = (258,97);
type = Stem;
},
{
horizontal = 1;
place = (550,-20);
target = down;
type = TopGhost;
},
{
horizontal = 1;
place = (540,-20);
target = down;
type = TopGhost;
},
{
horizontal = 1;
place = (730,40);
type = Stem;
},
{
horizontal = 1;
place = (386,40);
type = Stem;
},
{
horizontal = 1;
place = (0,40);
type = Stem;
}
);
layerId = m01;
shapes = (
{
closed = 1;
nodes = (
(370,-256,o),
(417,-236,o),
(462,-198,c),
(457,-180,l),
(426,-196,o),
(410,-201,o),
(392,-201,cs),
(367,-201,o),
(355,-192,o),
(355,-172,cs),
(355,-132,o),
(389,-69,o),
(475,0,c),
(541,0,l),
(632,230,l),
(603,230,l),
(565,167,o),
(520,103,o),
(466,40,cs),
(431,0,l),
(316,-67,o),
(258,-145,o),
(258,-204,cs),
(258,-238,o),
(282,-256,o),
(325,-256,cs)
);
},
{
closed = 1;
nodes = (
(34,0,l),
(34,42,l),
(-58,23,l),
(-68,0,l)
);
},
{
closed = 1;
nodes = (
(317,770,l),
(250,770,l),
(240,747,l),
(318,728,l)
);
},
{
closed = 1;
nodes = (
(471,266,l),
(584,540,l),
(555,540,l),
(532,502,o),
(504,464,o),
(471,426,c),
(459,386,l),
(457,346,o),
(453,306,o),
(442,266,c)
);
},
{
closed = 1;
nodes = (
(738,550,l),
(730,770,l),
(653,770,l),
(653,730,l),
(682,680,o),
(699,621,o),
(711,550,c)
);
}
);
width = 713;
}
);
note = Eogonek;
unicode = 280;
},
{
glyphname = Eth;
kernLeft = B;
kernRight = D;
lastChange = "2024-01-02 22:03:43 +0000";
layers = (
{
hints = (
{
horizontal = 1;
place = (730,40);
type = Stem;
},
{
horizontal = 1;
place = (376,44);
type = Stem;
},
{
horizontal = 1;
place = (0,42);
type = Stem;
},
{
place = (674,110);
type = Stem;
}
);
layerId = m01;
shapes = (
{
closed = 1;
nodes = (
(434,376,l),
(453,420,l),
(96,420,l),
(78,376,l)
);
},
{
ref = D;
}
);
width = 808;
}
);
note = Eth;
unicode = 208;
},
{
glyphname = Etilde;
kernLeft = B;
kernRight = AE;
lastChange = "2024-01-02 22:03:49 +0000";
layers = (
{
hints = (
{
horizontal = 1;
place = (970,-20);
target = down;
type = TopGhost;
},
{
horizontal = 1;
place = (550,-20);
target = down;
type = TopGhost;
},
{
horizontal = 1;
place = (540,-20);
target = down;
type = TopGhost;
},
{
horizontal = 1;
place = (891,76);
type = Stem;
},
{
horizontal = 1;
place = (891,41);
type = Stem;
},
{
horizontal = 1;
place = (852,80);
type = Stem;
},
{
horizontal = 1;
place = (730,40);
type = Stem;
},
{
horizontal = 1;
place = (386,40);
type = Stem;
},
{
horizontal = 1;
place = (0,40);
type = Stem;
}
);
layerId = m01;
shapes = (
{
closed = 1;
nodes = (
(415,853,l),
(426,877,o),
(449,891,o),
(478,891,cs),
(525,891,o),
(567,852,o),
(614,852,cs),
(663,852,o),
(714,901,o),
(737,970,c),
(713,970,l),
(700,945,o),
(679,932,o),
(651,932,cs),
(606,932,o),
(559,967,o),
(513,967,cs),
(464,967,o),
(413,920,o),
(394,853,c)
);
},
{
ref = E;
}
);
width = 713;
}
);
note = Etilde;
unicode = 7868;
},
{
glyphname = Euro;
lastChange = "2024-01-02 22:04:29 +0000";
layers = (
{
hints = (
{
horizontal = 1;
place = (738,42);
type = Stem;
},
{
horizontal = 1;
place = (596,184);
type = Stem;
},
{
horizontal = 1;
place = (441,44);
type = Stem;
},
{
horizontal = 1;
place = (320,44);
type = Stem;
},
{
horizontal = 1;
place = (-10,199);
type = Stem;
},
{
horizontal = 1;
place = (-10,41);
type = Stem;
},
{
place = (590,117);
type = Stem;
},
{
place = (128,102);
type = Stem;
}
);
layerId = m01;
shapes = (
{
closed = 1;
nodes = (
(332,31,o),
(370,63,o),
(401,121,cs),
(425,166,o),
(450,189,o),
(482,189,cs),
(508,189,o),
(522,177,o),
(522,143,cs),
(522,65,o),
(402,-10,o),
(293,-10,c),
(288,31,l)
);
},
{
closed = 1;
nodes = (
(640,780,o),
(707,723,o),
(707,652,cs),
(707,621,o),
(684,596,o),
(650,596,cs),
(617,596,o),
(590,620,o),
(590,663,cs),
(590,721,o),
(577,738,o),
(539,738,c),
(552,780,l)
);
},
{
closed = 1;
nodes = (
(137,485,l),
(115,441,l),
(544,441,l),
(566,485,l)
);
},
{
closed = 1;
nodes = (
(486,320,l),
(508,364,l),
(79,364,l),
(57,320,l)
);
}
);
width = 637;
}
);
note = Euro;
unicode = 8364;
},
{
glyphname = Euro.tnum;
lastChange = "2024-01-02 22:05:08 +0000";
layers = (
{
hints = (
{
horizontal = 1;
place = (738,42);
type = Stem;
},
{
horizontal = 1;
place = (596,184);
type = Stem;
},
{
horizontal = 1;
place = (441,44);
type = Stem;
},
{
horizontal = 1;
place = (320,44);
type = Stem;
},
{
horizontal = 1;
place = (-10,199);
type = Stem;
},
{
horizontal = 1;
place = (-10,41);
type = Stem;
},
{
place = (476,117);
type = Stem;
},
{
place = (14,102);
type = Stem;
}
);
layerId = m01;
shapes = (
{
closed = 1;
nodes = (
(218,31,o),
(256,63,o),
(287,121,cs),
(311,166,o),
(336,189,o),
(368,189,cs),
(394,189,o),
(408,177,o),
(408,143,cs),
(408,65,o),
(288,-10,o),
(179,-10,c),
(174,31,l)
);
},
{
closed = 1;
nodes = (
(526,780,o),
(593,723,o),
(593,652,cs),
(593,621,o),
(570,596,o),
(536,596,cs),
(503,596,o),
(476,620,o),
(476,663,cs),
(476,721,o),
(463,738,o),
(425,738,c),
(438,780,l)
);
},
{
closed = 1;
nodes = (
(23,485,l),
(1,441,l),
(430,441,l),
(452,485,l)
);
},
{
closed = 1;
nodes = (
(372,320,l),
(394,364,l),
(-35,364,l),
(-57,320,l)
);
}
);
width = 600;
}
);
note = Euro.tnum;
},
{
glyphname = F;
kernLeft = B;
lastChange = "2024-01-03 17:20:49 +0000";
layers = (
{
hints = (
{
horizontal = 1;
place = (550,-20);
target = down;
type = TopGhost;
},
{
horizontal = 1;
place = (730,40);
type = Stem;
},
{
horizontal = 1;
place = (374,40);
type = Stem;
},
{
horizontal = 1;
place = (0,21);
target = up;
type = BottomGhost;
}
);
layerId = m01;
shapes = (
{
closed = 1;
nodes = (
(-58,23,l),
(-68,0,l),
(250,0,l),
(260,23,l),
(143,40,l),
(34,42,l)
);
},
{
closed = 1;
nodes = (
(250,770,l),
(240,747,l),
(318,728,l),
(318,770,l)
);
},
{
closed = 1;
nodes = (
(738,770,l),
(738,550,l),
(711,550,l),
(701,621,o),
(684,680,o),
(661,730,c),
(661,770,l)
);
},
{
closed = 1;
nodes = (
(499,452,o),
(527,490,o),
(550,528,c),
(579,528,l),
(466,254,l),
(437,254,l),
(448,294,o),
(452,334,o),
(454,374,c),
(466,414,l)
);
}
);
width = 644;
}
);
note = F;
unicode = 70;
},
{
glyphname = G;
kernLeft = G;
kernRight = G;
lastChange = "2024-01-03 17:21:05 +0000";
layers = (
{
hints = (
{
horizontal = 1;
place = (770,-20);
target = down;
type = TopGhost;
},
{
horizontal = 1;
place = (530,-20);
target = down;
type = TopGhost;
},
{
horizontal = 1;
place = (736,44);
type = Stem;
},
{
horizontal = 1;
place = (-10,44);
type = Stem;
},
{
place = (71,113);
type = Stem;
}
);
layerId = m01;
shapes = (
{
closed = 1;
nodes = (
(799,363,l),
(809,386,l),
(525,386,l),
(515,363,l),
(598,344,l),
(703,344,l)
);
},
{
closed = 1;
nodes = (
(686,780,o),
(736,763,o),
(780,725,c),
(831,770,l),
(855,770,l),
(757,530,l),
(727,530,l),
(736,566,o),
(741,595,o),
(741,621,cs),
(741,699,o),
(699,736,o),
(612,736,c),
(616,780,l)
);
}
);
width = 798;
}
);
note = G;
unicode = 71;
},
{
glyphname = Gbreve;
kernLeft = G;
kernRight = G;
lastChange = "2024-01-03 17:21:08 +0000";
layers = (
{
hints = (
{
horizontal = 1;
place = (770,-20);
target = down;
type = TopGhost;
},
{
horizontal = 1;
place = (530,-20);
target = down;
type = TopGhost;
},
{
horizontal = 1;
place = (831,139);
type = Stem;
},
{
horizontal = 1;
place = (831,74);
type = Stem;
},
{
horizontal = 1;
place = (736,44);
type = Stem;
},
{
horizontal = 1;
place = (-10,44);
type = Stem;
},
{
place = (589,45);
type = Stem;
},
{
place = (71,113);
type = Stem;
}
);
layerId = m01;
shapes = (
{
closed = 1;
nodes = (
(599,970,l),
(592,948,o),
(589,930,o),
(589,914,cs),
(589,853,o),
(633,831,o),
(679,831,cs),
(722,831,o),
(800,846,o),
(883,970,c),
(843,970,l),
(801,924,o),
(757,905,o),
(713,905,cs),
(661,905,o),
(635,929,o),
(634,970,c)
);
},
{
ref = G;
}
);
width = 798;
}
);
note = Gbreve;
unicode = 286;
},
{
glyphname = Gcircumflex;
kernLeft = G;
kernRight = G;
lastChange = "2024-01-03 17:21:11 +0000";
layers = (
{
hints = (
{
horizontal = 1;
place = (770,-20);
target = down;
type = TopGhost;
},
{
horizontal = 1;
place = (530,-20);
target = down;
type = TopGhost;
},
{
horizontal = 1;
place = (736,234);
type = Stem;
},
{
horizontal = 1;
place = (736,44);
type = Stem;
},
{
horizontal = 1;
place = (-10,44);
type = Stem;
},
{
place = (71,113);
type = Stem;
}
);
layerId = m01;
shapes = (
{
closed = 1;
nodes = (
(695,970,o),
(680,960,o),
(656,943,cs),
(524,847,l),
(536,830,l),
(701,898,l),
(792,830,l),
(818,847,l),
(764,943,ls),
(753,962,o),
(743,970,o),
(720,970,cs)
);
},
{
ref = G;
}
);
width = 798;
}
);
note = Gcircumflex;
unicode = 284;
},
{
glyphname = Gcommaaccent;
kernLeft = G;
kernRight = G;
lastChange = "2024-01-03 17:21:15 +0000";
layers = (
{
hints = (
{
horizontal = 1;
place = (770,-20);
target = down;
type = TopGhost;
},
{
horizontal = 1;
place = (530,-20);
target = down;
type = TopGhost;
},
{
horizontal = 1;
place = (736,44);
type = Stem;
},
{
horizontal = 1;
place = (-44,34);
type = Stem;
},
{
horizontal = 1;
place = (-247,21);
target = up;
type = BottomGhost;
},
{
place = (227,116);
type = Stem;
},
{
place = (71,113);
type = Stem;
}
);
layerId = m01;
shapes = (
{
closed = 1;
nodes = (
(275,-153,o),
(279,-154,o),
(279,-161,cs),
(279,-177,o),
(246,-208,o),
(205,-228,c),
(220,-247,l),
(298,-204,o),
(343,-151,o),
(343,-100,cs),
(343,-64,o),
(325,-44,o),
(293,-44,cs),
(248,-44,o),
(227,-68,o),
(227,-105,cs),
(227,-129,o),
(237,-144,o),
(256,-149,cs)
);
},
{
ref = G;
}
);
width = 798;
}
);
note = Gcommaaccent;
unicode = 290;
},
{
glyphname = Gdotaccent;
kernLeft = G;
kernRight = G;
lastChange = "2024-01-03 17:21:18 +0000";
layers = (
{
hints = (
{
horizontal = 1;
place = (770,-20);
target = down;
type = TopGhost;
},
{
horizontal = 1;
place = (530,-20);
target = down;
type = TopGhost;
},
{
horizontal = 1;
place = (845,125);
type = Stem;
},
{
horizontal = 1;
place = (736,44);
type = Stem;
},
{
horizontal = 1;
place = (-10,44);
type = Stem;
},
{
place = (631,137);
type = Stem;
},
{
place = (71,113);
type = Stem;
}
);
layerId = m01;
shapes = (
{
closed = 1;
nodes = (
(666,970,o),
(631,939,o),
(631,902,cs),
(631,868,o),
(655,845,o),
(693,845,cs),
(731,845,o),
(768,879,o),
(768,915,cs),
(768,946,o),
(738,970,o),
(704,970,cs)
);
},
{
ref = G;
}
);
width = 798;
}
);
note = Gdotaccent;
unicode = 288;
},
{
glyphname = H;
kernLeft = B;
kernRight = H;
lastChange = "2024-01-03 17:21:42 +0000";
layers = (
{
hints = (
{
horizontal = 1;
place = (770,-20);
target = down;
type = TopGhost;
},
{
horizontal = 1;
place = (385,40);
type = Stem;
},
{
horizontal = 1;
place = (0,21);
target = up;
type = BottomGhost;
}
);
layerId = m01;
shapes = (
{
closed = 1;
nodes = (
(404,23,l),
(394,0,l),
(684,0,l),
(693,21,l),
(612,42,l),
(501,42,l)
);
},
{
closed = 1;
nodes = (
(-62,23,l),
(-72,0,l),
(217,0,l),
(227,23,l),
(145,42,l),
(35,42,l)
);
},
{
closed = 1;
nodes = (
(526,747,l),
(536,770,l),
(246,770,l),
(236,747,l),
(319,728,l),
(430,728,l)
);
},
{
closed = 1;
nodes = (
(993,745,l),
(1003,770,l),
(713,770,l),
(703,747,l),
(786,728,l),
(897,728,l)
);
}
);
width = 859;
}
);
note = H;
unicode = 72;
},
{
glyphname = Hbar;
kernLeft = B;
kernRight = H;
lastChange = "2024-01-03 17:21:47 +0000";
layers = (
{
hints = (
{
horizontal = 1;
place = (550,220);
type = Stem;
},
{
horizontal = 1;
place = (550,44);
type = Stem;
},
{
horizontal = 1;
place = (385,40);
type = Stem;
},
{
horizontal = 1;
place = (0,21);
target = up;
type = BottomGhost;
}
);
layerId = m01;
shapes = (
{
closed = 1;
nodes = (
(824,550,l),
(923,550,l),
(942,594,l),
(842,594,l),
(731,594,l),
(375,594,l),
(264,594,l),
(185,594,l),
(167,550,l),
(246,550,l)
);
},
{
closed = 1;
nodes = (
(357,550,l),
(713,550,l)
);
},
{
ref = H;
}
);
width = 860;
}
);
note = Hbar;
unicode = 294;
},
{
glyphname = Hcircumflex;
kernLeft = B;
kernRight = H;
lastChange = "2024-01-03 17:21:49 +0000";
layers = (
{
hints = (
{
horizontal = 1;
place = (970,-20);
target = down;
type = TopGhost;
},
{
horizontal = 1;
place = (770,-20);
target = down;
type = TopGhost;
},
{
horizontal = 1;
place = (385,40);
type = Stem;
},
{
horizontal = 1;
place = (0,21);
target = up;
type = BottomGhost;
}
);
layerId = m01;
shapes = (
{
closed = 1;
nodes = (
(669,970,o),
(654,960,o),
(630,943,cs),
(498,847,l),
(510,830,l),
(675,898,l),
(766,830,l),
(792,847,l),
(738,943,ls),
(727,962,o),
(717,970,o),
(694,970,cs)
);
},
{
ref = H;
}
);
width = 859;
}
);
note = Hcircumflex;
unicode = 292;
},
{
glyphname = Hdotbelow;
kernLeft = B;
kernRight = H;
lastChange = "2024-01-03 17:21:53 +0000";
layers = (
{
hints = (
{
horizontal = 1;
place = (770,-20);
target = down;
type = TopGhost;
},
{
horizontal = 1;
place = (385,40);
type = Stem;
},
{
horizontal = 1;
place = (-256,125);
type = Stem;
},
{
horizontal = 1;
place = (0,21);
target = up;
type = BottomGhost;
},
{
place = (181,137);
type = Stem;
}
);
layerId = m01;
shapes = (
{
closed = 1;
nodes = (
(216,-131,o),
(181,-162,o),
(181,-199,cs),
(181,-233,o),
(205,-256,o),
(243,-256,cs),
(281,-256,o),
(318,-222,o),
(318,-186,cs),
(318,-155,o),
(288,-131,o),
(254,-131,cs)
);
},
{
ref = H;
}
);
width = 859;
}
);
note = Hdotbelow;
unicode = 7716;
},
{
glyphname = I;
kernLeft = B;
kernRight = H;
lastChange = "2024-01-03 17:22:06 +0000";
layers = (
{
hints = (
{
horizontal = 1;
place = (770,-20);
target = down;
type = TopGhost;
},
{
horizontal = 1;
place = (0,21);
target = up;
type = BottomGhost;
}
);
layerId = m01;
shapes = (
{
closed = 1;
nodes = (
(-62,23,l),
(-72,0,l),
(217,0,l),
(227,23,l),
(145,42,l),
(35,42,l)
);
},
{
closed = 1;
nodes = (
(526,747,l),
(536,770,l),
(246,770,l),
(236,747,l),
(319,728,l),
(430,728,l)
);
}
);
width = 392;
}
);
note = I;
unicode = 73;
},
{
glyphname = IJ;
kernLeft = B;
kernRight = IJ;
lastChange = "2024-01-03 17:22:20 +0000";
layers = (
{
hints = (
{
horizontal = 1;
place = (770,-20);
target = down;
type = TopGhost;
},
{
horizontal = 1;
place = (-256,129);
type = Stem;
},
{
horizontal = 1;
place = (-256,40);
type = Stem;
},
{
horizontal = 1;
place = (0,21);
target = up;
type = BottomGhost;
}
);
layerId = m01;
shapes = (
{
ref = I;
},
{
closed = 1;
nodes = (
(917,747,l),
(927,770,l),
(637,770,l),
(627,747,l),
(710,728,l),
(821,728,l)
);
},
{
closed = 1;
nodes = (
(204,-216,o),
(232,-127,o),
(167,-127,cs),
(141,-127,o),
(116,-145,o),
(116,-177,cs),
(116,-220,o),
(162,-256,o),
(235,-256,c),
(264,-216,l)
);
}
);
width = 772;
}
);
note = IJ;
unicode = 306;
},
{
glyphname = Iacute;
kernLeft = B;
kernRight = H;
lastChange = "2024-01-03 17:22:26 +0000";
layers = (
{
hints = (
{
horizontal = 1;
place = (970,-20);
target = down;
type = TopGhost;
},
{
horizontal = 1;
place = (770,-20);
target = down;
type = TopGhost;
},
{
horizontal = 1;
place = (0,21);
target = up;
type = BottomGhost;
}
);
layerId = m01;
shapes = (
{
closed = 1;
nodes = (
(347,826,l),
(499,870,ls),
(551,885,o),
(567,904,o),
(567,927,cs),
(567,952,o),
(546,970,o),
(524,970,cs),
(508,970,o),
(495,965,o),
(480,954,cs),
(336,847,l)
);
},
{
ref = I;
}
);
width = 392;
}
);
note = Iacute;
unicode = 205;
},
{
glyphname = Ibreve;
kernLeft = B;
kernRight = H;
lastChange = "2024-01-03 17:22:29 +0000";
layers = (
{
hints = (
{
horizontal = 1;
place = (770,-20);
target = down;
type = TopGhost;
},
{
horizontal = 1;
place = (831,139);
type = Stem;
},
{
horizontal = 1;
place = (831,74);
type = Stem;
},
{
horizontal = 1;
place = (0,21);
target = up;
type = BottomGhost;
},
{
place = (332,45);
type = Stem;
}
);
layerId = m01;
shapes = (
{
closed = 1;
nodes = (
(342,970,l),
(335,948,o),
(332,930,o),
(332,914,cs),
(332,853,o),
(376,831,o),
(422,831,cs),
(465,831,o),
(543,846,o),
(626,970,c),
(586,970,l),
(544,924,o),
(500,905,o),
(456,905,cs),
(404,905,o),
(378,929,o),
(377,970,c)
);
},
{
ref = I;
}
);
width = 392;
}
);
note = Ibreve;
unicode = 300;
},
{
glyphname = Icircumflex;
kernLeft = B;
kernRight = H;
lastChange = "2024-01-03 17:22:32 +0000";
layers = (
{
hints = (
{
horizontal = 1;
place = (970,-20);
target = down;
type = TopGhost;
},
{
horizontal = 1;
place = (770,-20);
target = down;
type = TopGhost;
},
{
horizontal = 1;
place = (0,21);
target = up;
type = BottomGhost;
}
);
layerId = m01;
shapes = (
{
closed = 1;
nodes = (
(448,970,o),
(433,960,o),
(409,943,cs),
(277,847,l),
(289,830,l),
(454,898,l),
(545,830,l),
(571,847,l),
(517,943,ls),
(506,962,o),
(496,970,o),
(473,970,cs)
);
},
{
ref = I;
}
);
width = 392;
}
);
note = Icircumflex;
unicode = 206;
},
{
glyphname = Idieresis;
kernLeft = B;
kernRight = H;
lastChange = "2024-01-03 17:22:35 +0000";
layers = (
{
hints = (
{
horizontal = 1;
place = (770,-20);
target = down;
type = TopGhost;
},
{
horizontal = 1;
place = (859,111);
type = Stem;
},
{
horizontal = 1;
place = (0,21);
target = up;
type = BottomGhost;
},
{
place = (469,122);
type = Stem;
},
{
place = (294,122);
type = Stem;
}
);
layerId = m01;
shapes = (
{
closed = 1;
nodes = (
(325,970,o),
(294,942,o),
(294,910,cs),
(294,879,o),
(315,859,o),
(349,859,cs),
(383,859,o),
(416,889,o),
(416,921,cs),
(416,949,o),
(389,970,o),
(359,970,cs)
);
},
{
closed = 1;
nodes = (
(500,970,o),
(469,942,o),
(469,910,cs),
(469,879,o),
(490,859,o),
(524,859,cs),
(558,859,o),
(591,889,o),
(591,921,cs),
(591,949,o),
(564,970,o),
(534,970,cs)
);
},
{
ref = I;
}
);
width = 392;
}
);
note = Idieresis;
unicode = 207;
},
{
glyphname = Idotaccent;
kernLeft = B;
kernRight = H;
lastChange = "2024-01-03 17:22:37 +0000";
layers = (
{
hints = (
{
horizontal = 1;
place = (770,-20);
target = down;
type = TopGhost;
},
{
horizontal = 1;
place = (845,125);
type = Stem;
},
{
horizontal = 1;
place = (0,21);
target = up;
type = BottomGhost;
},
{
place = (380,137);
type = Stem;
}
);
layerId = m01;
shapes = (
{
closed = 1;
nodes = (
(415,970,o),
(380,939,o),
(380,902,cs),
(380,868,o),
(404,845,o),
(442,845,cs),
(480,845,o),
(517,879,o),
(517,915,cs),
(517,946,o),
(487,970,o),
(453,970,cs)
);
},
{
ref = I;
}
);
width = 392;
}
);
note = Idotaccent;
unicode = 304;
},
{
glyphname = Idotbelow;
kernLeft = B;
kernRight = H;
lastChange = "2024-01-03 17:22:40 +0000";
layers = (
{
hints = (
{
horizontal = 1;
place = (770,-20);
target = down;
type = TopGhost;
},
{
horizontal = 1;
place = (-256,125);
type = Stem;
},
{
horizontal = 1;
place = (0,21);
target = up;
type = BottomGhost;
},
{
place = (-56,137);
type = Stem;
}
);
layerId = m01;
shapes = (
{
closed = 1;
nodes = (
(-21,-131,o),
(-56,-162,o),
(-56,-199,cs),
(-56,-233,o),
(-32,-256,o),
(6,-256,cs),
(44,-256,o),
(81,-222,o),
(81,-186,cs),
(81,-155,o),
(51,-131,o),
(17,-131,cs)
);
},
{
ref = I;
}
);
width = 392;
}
);
note = Idotbelow;
unicode = 7882;
},
{
glyphname = Igrave;
kernLeft = B;
kernRight = H;
lastChange = "2024-01-03 17:22:42 +0000";
layers = (
{
hints = (
{
horizontal = 1;
place = (970,-20);
target = down;
type = TopGhost;
},
{
horizontal = 1;
place = (770,-20);
target = down;
type = TopGhost;
},
{
horizontal = 1;
place = (0,21);
target = up;
type = BottomGhost;
}
);
layerId = m01;
shapes = (
{
closed = 1;
nodes = (
(510,847,l),
(406,938,ls),
(383,958,o),
(366,970,o),
(343,970,cs),
(313,970,o),
(293,951,o),
(293,922,cs),
(293,898,o),
(306,880,o),
(330,873,cs),
(491,826,l)
);
},
{
ref = I;
}
);
width = 392;
}
);
note = Igrave;
unicode = 204;
},
{
glyphname = Imacron;
kernLeft = B;
kernRight = H;
lastChange = "2024-01-03 17:22:44 +0000";
layers = (
{
hints = (
{
horizontal = 1;
place = (770,-20);
target = down;
type = TopGhost;
},
{
horizontal = 1;
place = (881,71);
type = Stem;
},
{
horizontal = 1;
place = (0,21);
target = up;
type = BottomGhost;
}
);
layerId = m01;
shapes = (
{
closed = 1;
nodes = (
(575,881,l),
(604,952,l),
(317,952,l),
(289,881,l)
);
},
{
ref = I;
}
);
width = 392;
}
);
note = Imacron;
unicode = 298;
},
{
glyphname = Iogonek;
kernLeft = B;
kernRight = H;
lastChange = "2024-01-03 17:22:49 +0000";
layers = (
{
hints = (
{
horizontal = 1;
place = (770,-20);
target = down;
type = TopGhost;
},
{
horizontal = 1;
place = (-256,55);
type = Stem;
},
{
horizontal = 1;
place = (0,21);
target = up;
type = BottomGhost;
},
{
place = (-130,97);
type = Stem;
}
);
layerId = m01;
shapes = (
{
closed = 1;
nodes = (
(69,-180,l),
(38,-196,o),
(22,-201,o),
(4,-201,cs),
(-21,-201,o),
(-33,-192,o),
(-33,-172,cs),
(-33,-132,o),
(16,-69,o),
(104,0,c),
(60,0,l),
(-56,-67,o),
(-130,-145,o),
(-130,-204,cs),
(-130,-238,o),
(-106,-256,o),
(-63,-256,cs),
(-18,-256,o),
(29,-236,o),
(74,-198,c)
);
},
{
ref = I;
}
);
width = 392;
}
);
note = Iogonek;
unicode = 302;
},
{
glyphname = Itilde;
kernLeft = B;
kernRight = H;
lastChange = "2024-01-03 17:22:57 +0000";
layers = (
{
hints = (
{
horizontal = 1;
place = (970,-20);
target = down;
type = TopGhost;
},
{
horizontal = 1;
place = (770,-20);
target = down;
type = TopGhost;
},
{
horizontal = 1;
place = (891,76);
type = Stem;
},
{
horizontal = 1;
place = (891,41);
type = Stem;
},
{
horizontal = 1;
place = (0,21);
target = up;
type = BottomGhost;
}
);
layerId = m01;
shapes = (
{
closed = 1;
nodes = (
(300,853,l),
(311,877,o),
(334,891,o),
(363,891,cs),
(410,891,o),
(452,852,o),
(499,852,cs),
(548,852,o),
(599,901,o),
(622,970,c),
(598,970,l),
(585,945,o),
(564,932,o),
(536,932,cs),
(491,932,o),
(444,967,o),
(398,967,cs),
(349,967,o),
(298,920,o),
(279,853,c)
);
},
{
ref = I;
}
);
width = 392;
}
);
note = Itilde;
unicode = 296;
},
{
glyphname = J;
kernLeft = J;
kernRight = IJ;
lastChange = "2024-01-03 17:23:12 +0000";
layers = (
{
hints = (
{
horizontal = 1;
place = (770,-20);
target = down;
type = TopGhost;
},
{
horizontal = 1;
place = (-256,40);
type = Stem;
}
);
layerId = m01;
shapes = (
{
closed = 1;
nodes = (
(235,747,l),
(245,770,l),
(535,770,l),
(525,747,l),
(429,728,l),
(318,728,l)
);
},
{
closed = 1;
nodes = (
(-188,-216,o),
(-160,-127,o),
(-225,-127,cs),
(-251,-127,o),
(-276,-145,o),
(-276,-177,cs),
(-276,-220,o),
(-230,-256,o),
(-157,-256,c),
(-128,-216,l)
);
}
);
width = 380;
}
);
note = J;
unicode = 74;
},
{
glyphname = Jcircumflex;
kernLeft = J;
kernRight = IJ;
lastChange = "2024-01-03 17:23:15 +0000";
layers = (
{
hints = (
{
horizontal = 1;
place = (970,-20);
target = down;
type = TopGhost;
},
{
horizontal = 1;
place = (770,-20);
target = down;
type = TopGhost;
},
{
horizontal = 1;
place = (-256,40);
type = Stem;
}
);
layerId = m01;
shapes = (
{
closed = 1;
nodes = (
(432,970,o),
(417,960,o),
(393,943,cs),
(261,847,l),
(273,830,l),
(438,898,l),
(529,830,l),
(555,847,l),
(501,943,ls),
(490,962,o),
(480,970,o),
(457,970,cs)
);
},
{
ref = J;
}
);
width = 380;
}
);
note = Jcircumflex;
unicode = 308;
},
{
glyphname = K;
kernLeft = B;
kernRight = K;
lastChange = "2024-01-03 17:23:39 +0000";
layers = (
{
hints = (
{
horizontal = 1;
place = (742,28);
type = Stem;
},
{
horizontal = 1;
place = (0,21);
target = up;
type = BottomGhost;
}
);
layerId = m01;
shapes = (
{
closed = 1;
nodes = (
(-55,23,l),
(-64,0,l),
(252,0,l),
(262,23,l),
(143,42,l),
(33,42,l)
);
},
{
closed = 1;
nodes = (
(510,747,l),
(520,770,l),
(250,770,l),
(241,747,l),
(319,728,l),
(429,729,l)
);
},
{
closed = 1;
nodes = (
(751,724,o),
(781,738,o),
(840,742,c),
(854,770,l),
(595,770,l),
(586,747,l),
(634,745,o),
(655,730,o),
(655,710,cs),
(655,696,o),
(640,679,o),
(610,655,c),
(707,689,l)
);
},
{
closed = 1;
nodes = (
(662,23,l),
(655,0,l),
(474,0,l),
(574,42,l)
);
}
);
width = 743;
}
);
note = K;
unicode = 75;
},
{
glyphname = Kcommaaccent;
kernLeft = B;
kernRight = K;
lastChange = "2024-01-03 17:24:01 +0000";
layers = (
{
hints = (
{
horizontal = 1;
place = (742,28);
type = Stem;
},
{
horizontal = 1;
place = (-44,44);
type = Stem;
},
{
horizontal = 1;
place = (-247,21);
target = up;
type = BottomGhost;
},
{
place = (254,116);
type = Stem;
}
);
layerId = m01;
shapes = (
{
closed = 1;
nodes = (
(302,-153,o),
(306,-154,o),
(306,-161,cs),
(306,-177,o),
(273,-208,o),
(232,-228,c),
(247,-247,l),
(325,-204,o),
(370,-151,o),
(370,-100,cs),
(370,-64,o),
(352,-44,o),
(320,-44,cs),
(275,-44,o),
(254,-68,o),
(254,-105,cs),
(254,-129,o),
(264,-144,o),
(283,-149,cs)
);
},
{
ref = K;
}
);
width = 743;
}
);
note = Kcommaaccent;
unicode = 310;
},
{
glyphname = L;
kernLeft = B;
kernRight = L;
lastChange = "2024-01-03 17:24:27 +0000";
layers = (
{
hints = (
{
horizontal = 1;
place = (770,-20);
target = down;
type = TopGhost;
},
{
horizontal = 1;
place = (0,40);
type = Stem;
}
);
layerId = m01;
shapes = (
{
closed = 1;
nodes = (
(-58,23,l),
(-68,0,l),
(33,0,l),
(34,42,l)
);
},
{
closed = 1;
nodes = (
(240,747,l),
(250,770,l),
(536,770,l),
(526,747,l),
(425,725,l),
(318,728,l)
);
},
{
closed = 1;
nodes = (
(515,103,o),
(565,179,o),
(603,242,c),
(637,242,l),
(541,0,l),
(461,0,l),
(461,40,l)
);
}
);
width = 695;
}
);
note = L;
unicode = 76;
},
{
glyphname = Lacute;
kernLeft = B;
kernRight = L;
lastChange = "2024-01-03 17:24:32 +0000";
layers = (
{
hints = (
{
horizontal = 1;
place = (970,-20);
target = down;
type = TopGhost;
},
{
horizontal = 1;
place = (770,-20);
target = down;
type = TopGhost;
},
{
horizontal = 1;
place = (0,40);
type = Stem;
}
);
layerId = m01;
shapes = (
{
closed = 1;
nodes = (
(361,826,l),
(513,870,ls),
(565,885,o),
(581,904,o),
(581,927,cs),
(581,952,o),
(560,970,o),
(538,970,cs),
(522,970,o),
(509,965,o),
(494,954,cs),
(350,847,l)
);
},
{
ref = L;
}
);
width = 695;
}
);
note = Lacute;
unicode = 313;
},
{
glyphname = Lcaron;
kernLeft = B;
kernRight = L;
lastChange = "2024-01-03 17:24:35 +0000";
layers = (
{
hints = (
{
horizontal = 1;
place = (970,-20);
target = down;
type = TopGhost;
},
{
horizontal = 1;
place = (770,60);
type = Stem;
},
{
horizontal = 1;
place = (0,40);
type = Stem;
}
);
layerId = m01;
shapes = (
{
closed = 1;
nodes = (
(451,830,o),
(466,840,o),
(490,857,cs),
(622,953,l),
(610,970,l),
(445,902,l),
(354,970,l),
(328,953,l),
(382,857,ls),
(393,838,o),
(403,830,o),
(426,830,cs)
);
},
{
ref = L;
}
);
width = 695;
}
);
note = Lcaron;
unicode = 317;
},
{
glyphname = Lcommaaccent;
kernLeft = B;
kernRight = L;
lastChange = "2024-01-03 17:24:37 +0000";
layers = (
{
hints = (
{
horizontal = 1;
place = (770,-20);
target = down;
type = TopGhost;
},
{
horizontal = 1;
place = (0,40);
type = Stem;
},
{
horizontal = 1;
place = (-44,44);
type = Stem;
},
{
horizontal = 1;
place = (-247,21);
target = up;
type = BottomGhost;
},
{
place = (192,116);
type = Stem;
}
);
layerId = m01;
shapes = (
{
closed = 1;
nodes = (
(240,-153,o),
(244,-154,o),
(244,-161,cs),
(244,-177,o),
(211,-208,o),
(170,-228,c),
(185,-247,l),
(263,-204,o),
(308,-151,o),
(308,-100,cs),
(308,-64,o),
(290,-44,o),
(258,-44,cs),
(213,-44,o),
(192,-68,o),
(192,-105,cs),
(192,-129,o),
(202,-144,o),
(221,-149,cs)
);
},
{
ref = L;
}
);
width = 695;
}
);
note = Lcommaaccent;
unicode = 315;
},
{
glyphname = Ldot;
kernRight = L;
lastChange = "2024-01-03 17:24:40 +0000";
layers = (
{
hints = (
{
horizontal = 1;
place = (770,-20);
target = down;
type = TopGhost;
},
{
horizontal = 1;
place = (300,125);
type = Stem;
},
{
horizontal = 1;
place = (0,40);
type = Stem;
},
{
place = (389,137);
type = Stem;
}
);
layerId = m01;
shapes = (
{
closed = 1;
nodes = (
(424,425,o),
(389,394,o),
(389,357,cs),
(389,323,o),
(413,300,o),
(451,300,cs),
(489,300,o),
(526,334,o),
(526,370,cs),
(526,401,o),
(496,425,o),
(462,425,cs)
);
},
{
ref = L;
}
);
width = 695;
}
);
note = Ldot;
unicode = 319;
},
{
glyphname = Lslash;
kernLeft = B;
kernRight = L;
lastChange = "2024-01-03 17:24:44 +0000";
layers = (
{
hints = (
{
horizontal = 1;
place = (770,-20);
target = down;
type = TopGhost;
},
{
horizontal = 1;
place = (0,40);
type = Stem;
}
);
layerId = m01;
shapes = (
{
closed = 1;
nodes = (
(289,391,l),
(437,461,l),
(439,510,l),
(314,450,l),
(179,386,l),
(43,322,l),
(43,274,l),
(154,326,l)
);
},
{
ref = L;
}
);
width = 697;
}
);
note = Lslash;
unicode = 321;
},
{
glyphname = M;
kernRight = H;
lastChange = "2024-01-03 17:25:16 +0000";
layers = (
{
hints = (
{
horizontal = 1;
place = (770,-20);
target = down;
type = TopGhost;
},
{
horizontal = 1;
place = (0,21);
target = up;
type = BottomGhost;
},
{
horizontal = 1;
place = (-10,21);
target = up;
type = BottomGhost;
}
);
layerId = m01;
shapes = (
{
closed = 1;
nodes = (
(545,23,l),
(535,0,l),
(819,0,l),
(829,23,l),
(747,42,l),
(642,42,l)
);
},
{
closed = 1;
nodes = (
(-90,23,l),
(-100,0,l),
(127,0,l),
(137,23,l),
(55,42,l),
(7,42,l)
);
},
{
closed = 1;
nodes = (
(277,770,l),
(268,747,l),
(358,728,l),
(355,770,l)
);
},
{
closed = 1;
nodes = (
(1129,747,l),
(1138,770,l),
(1033,770,l),
(1032,728,l)
);
}
);
width = 994;
}
);
note = M;
unicode = 77;
},
{
glyphname = N;
kernLeft = Eng;
kernRight = Eng;
lastChange = "2024-01-03 17:25:39 +0000";
layers = (
{
hints = (
{
horizontal = 1;
place = (770,-20);
target = down;
type = TopGhost;
},
{
horizontal = 1;
place = (0,21);
target = up;
type = BottomGhost;
},
{
horizontal = 1;
place = (-10,21);
target = up;
type = BottomGhost;
}
);
layerId = m01;
shapes = (
{
closed = 1;
nodes = (
(-65,23,l),
(-75,0,l),
(152,0,l),
(162,23,l),
(80,42,l),
(32,42,l)
);
},
{
closed = 1;
nodes = (
(243,770,l),
(233,747,l),
(316,728,l),
(316,770,l)
);
},
{
closed = 1;
nodes = (
(959,747,l),
(969,770,l),
(741,770,l),
(731,747,l),
(814,728,l),
(863,728,l)
);
}
);
width = 815;
}
);
note = N;
unicode = 78;
},
{
glyphname = Nacute;
kernLeft = Eng;
kernRight = Eng;
lastChange = "2024-01-03 17:25:50 +0000";
layers = (
{
hints = (
{
horizontal = 1;
place = (970,-20);
target = down;
type = TopGhost;
},
{
horizontal = 1;
place = (770,-20);
target = down;
type = TopGhost;
},
{
horizontal = 1;
place = (0,21);
target = up;
type = BottomGhost;
},
{
horizontal = 1;
place = (-10,21);
target = up;
type = BottomGhost;
}
);
layerId = m01;
shapes = (
{
closed = 1;
nodes = (
(555,826,l),
(707,870,ls),
(759,885,o),
(775,904,o),
(775,927,cs),
(775,952,o),
(754,970,o),
(732,970,cs),
(716,970,o),
(703,965,o),
(688,954,cs),
(544,847,l)
);
},
{
ref = N;
}
);
width = 815;
}
);
note = Nacute;
unicode = 323;
},
{
glyphname = Ncaron;
kernLeft = Eng;
kernRight = Eng;
lastChange = "2024-01-03 17:25:52 +0000";
layers = (
{
hints = (
{
horizontal = 1;
place = (970,-20);
target = down;
type = TopGhost;
},
{
horizontal = 1;
place = (830,-20);
target = down;
type = TopGhost;
},
{
horizontal = 1;
place = (770,-20);
target = down;
type = TopGhost;
},
{
horizontal = 1;
place = (0,21);
target = up;
type = BottomGhost;
},
{
horizontal = 1;
place = (-10,21);
target = up;
type = BottomGhost;
}
);
layerId = m01;
shapes = (
{
closed = 1;
nodes = (
(637,830,o),
(652,840,o),
(676,857,cs),
(808,953,l),
(796,970,l),
(631,902,l),
(540,970,l),
(514,953,l),
(568,857,ls),
(579,838,o),
(589,830,o),
(612,830,cs)
);
},
{
ref = N;
}
);
width = 815;
}
);
note = Ncaron;
unicode = 327;
},
{
glyphname = Ncommaaccent;
kernLeft = Eng;
kernRight = Eng;
lastChange = "2024-01-03 17:25:55 +0000";
layers = (
{
hints = (
{
horizontal = 1;
place = (770,-20);
target = down;
type = TopGhost;
},
{
horizontal = 1;
place = (0,21);
target = up;
type = BottomGhost;
},
{
horizontal = 1;
place = (-10,21);
target = up;
type = BottomGhost;
},
{
horizontal = 1;
place = (-257,21);
target = up;
type = BottomGhost;
},
{
place = (228,116);
type = Stem;
}
);
layerId = m01;
shapes = (
{
closed = 1;
nodes = (
(276,-163,o),
(280,-164,o),
(280,-171,cs),
(280,-187,o),
(247,-218,o),
(206,-238,c),
(221,-257,l),
(299,-214,o),
(344,-161,o),
(344,-110,cs),
(344,-74,o),
(326,-54,o),
(294,-54,cs),
(249,-54,o),
(228,-78,o),
(228,-115,cs),
(228,-139,o),
(238,-154,o),
(257,-159,cs)
);
},
{
ref = N;
}
);
width = 815;
}
);
note = Ncommaaccent;
unicode = 325;
},
{
glyphname = Ndotaccent;
kernLeft = Eng;
kernRight = Eng;
lastChange = "2024-01-03 17:25:58 +0000";
layers = (
{
hints = (
{
horizontal = 1;
place = (770,-20);
target = down;
type = TopGhost;
},
{
horizontal = 1;
place = (845,125);
type = Stem;
},
{
horizontal = 1;
place = (0,21);
target = up;
type = BottomGhost;
},
{
horizontal = 1;
place = (-10,21);
target = up;
type = BottomGhost;
},
{
place = (577,137);
type = Stem;
}
);
layerId = m01;
shapes = (
{
closed = 1;
nodes = (
(612,970,o),
(577,939,o),
(577,902,cs),
(577,868,o),
(601,845,o),
(639,845,cs),
(677,845,o),
(714,879,o),
(714,915,cs),
(714,946,o),
(684,970,o),
(650,970,cs)
);
},
{
ref = N;
}
);
width = 815;
}
);
note = Ndotaccent;
unicode = 7748;
},
{
glyphname = Ntilde;
kernLeft = Eng;
kernRight = Eng;
lastChange = "2024-01-03 17:26:00 +0000";
layers = (
{
hints = (
{
horizontal = 1;
place = (970,-20);
target = down;
type = TopGhost;
},
{
horizontal = 1;
place = (770,-20);
target = down;
type = TopGhost;
},
{
horizontal = 1;
place = (891,76);
type = Stem;
},
{
horizontal = 1;
place = (891,41);
type = Stem;
},
{
horizontal = 1;
place = (852,80);
type = Stem;
},
{
horizontal = 1;
place = (0,21);
target = up;
type = BottomGhost;
},
{
horizontal = 1;
place = (-10,21);
target = up;
type = BottomGhost;
}
);
layerId = m01;
shapes = (
{
closed = 1;
nodes = (
(507,853,l),
(518,877,o),
(541,891,o),
(570,891,cs),
(617,891,o),
(659,852,o),
(706,852,cs),
(755,852,o),
(806,901,o),
(829,970,c),
(805,970,l),
(792,945,o),
(771,932,o),
(743,932,cs),
(698,932,o),
(651,967,o),
(605,967,cs),
(556,967,o),
(505,920,o),
(486,853,c)
);
},
{
ref = N;
}
);
width = 815;
}
);
note = Ntilde;
unicode = 209;
},
{
glyphname = OE;
kernLeft = O;
kernRight = AE;
lastChange = "2024-01-03 17:56:11 +0000";
layers = (
{
hints = (
{
horizontal = 1;
place = (770,-20);
target = down;
type = TopGhost;
},
{
horizontal = 1;
place = (550,-20);
target = down;
type = TopGhost;
},
{
horizontal = 1;
place = (540,-20);
target = down;
type = TopGhost;
},
{
horizontal = 1;
place = (736,44);
type = Stem;
},
{
horizontal = 1;
place = (386,40);
type = Stem;
},
{
horizontal = 1;
place = (0,40);
type = Stem;
},
{
horizontal = 1;
place = (-10,21);
target = up;
type = BottomGhost;
},
{
place = (73,116);
type = Stem;
}
);
layerId = m01;
shapes = (
{
closed = 1;
nodes = (
(1139,770,l),
(1147,550,l),
(1120,550,l),
(1106,627,o),
(1088,683,o),
(1062,730,c),
(1063,770,l)
);
},
{
closed = 1;
nodes = (
(866,336,o),
(861,299,o),
(851,266,c),
(880,266,l),
(993,540,l),
(964,540,l),
(941,502,o),
(913,464,o),
(880,426,c),
(868,386,l)
);
},
{
closed = 1;
nodes = (
(950,0,l),
(1041,230,l),
(1012,230,l),
(971,162,o),
(925,99,o),
(875,40,c),
(874,0,l)
);
}
);
width = 1122;
}
);
note = OE;
unicode = 338;
},
{
glyphname = Oacute;
kernLeft = O;
kernRight = O;
lastChange = "2024-01-03 17:56:14 +0000";
layers = (
{
hints = (
{
horizontal = 1;
place = (736,234);
type = Stem;
},
{
horizontal = 1;
place = (736,44);
type = Stem;
},
{
horizontal = 1;
place = (-10,47);
type = Stem;
},
{
place = (690,111);
type = Stem;
},
{
place = (75,116);
type = Stem;
}
);
layerId = m01;
shapes = (
{
closed = 1;
nodes = (
(566,826,l),
(718,870,ls),
(770,885,o),
(786,904,o),
(786,927,cs),
(786,952,o),
(765,970,o),
(743,970,cs),
(727,970,o),
(714,965,o),
(699,954,cs),
(555,847,l)
);
}
);
width = 804;
}
);
note = Oacute;
unicode = 211;
},
{
glyphname = Obreve;
kernLeft = O;
kernRight = O;
lastChange = "2024-01-03 17:56:17 +0000";
layers = (
{
hints = (
{
horizontal = 1;
place = (831,139);
type = Stem;
},
{
horizontal = 1;
place = (831,74);
type = Stem;
},
{
horizontal = 1;
place = (736,44);
type = Stem;
},
{
horizontal = 1;
place = (-10,47);
type = Stem;
},
{
place = (690,111);
type = Stem;
},
{
place = (557,45);
type = Stem;
},
{
place = (75,116);
type = Stem;
}
);
layerId = m01;
shapes = (
{
closed = 1;
nodes = (
(567,970,l),
(560,948,o),
(557,930,o),
(557,914,cs),
(557,853,o),
(601,831,o),
(647,831,cs),
(690,831,o),
(768,846,o),
(851,970,c),
(811,970,l),
(769,924,o),
(725,905,o),
(681,905,cs),
(629,905,o),
(603,929,o),
(602,970,c)
);
}
);
width = 804;
}
);
note = Obreve;
unicode = 334;
},
{
glyphname = Ocircumflex;
kernLeft = O;
kernRight = O;
lastChange = "2024-01-03 17:56:21 +0000";
layers = (
{
hints = (
{
horizontal = 1;
place = (736,234);
type = Stem;
},
{
horizontal = 1;
place = (736,44);
type = Stem;
},
{
horizontal = 1;
place = (-10,47);
type = Stem;
},
{
place = (690,111);
type = Stem;
},
{
place = (75,116);
type = Stem;
}
);
layerId = m01;
shapes = (
{
closed = 1;
nodes = (
);
},
{
closed = 1;
nodes = (
(646,970,o),
(631,960,o),
(607,943,cs),
(475,847,l),
(487,830,l),
(652,898,l),
(743,830,l),
(769,847,l),
(715,943,ls),
(704,962,o),
(694,970,o),
(671,970,cs)
);
}
);
width = 804;
}
);
note = Ocircumflex;
unicode = 212;
},
{
glyphname = Odieresis;
kernLeft = O;
kernRight = O;
lastChange = "2024-01-03 17:56:23 +0000";
layers = (
{
hints = (
{
horizontal = 1;
place = (859,111);
type = Stem;
},
{
horizontal = 1;
place = (736,44);
type = Stem;
},
{
horizontal = 1;
place = (-10,47);
type = Stem;
},
{
place = (690,111);
type = Stem;
},
{
place = (509,122);
type = Stem;
},
{
place = (75,116);
type = Stem;
}
);
layerId = m01;
shapes = (
{
closed = 1;
nodes = (
(540,970,o),
(509,942,o),
(509,910,cs),
(509,879,o),
(530,859,o),
(564,859,cs),
(598,859,o),
(631,889,o),
(631,921,cs),
(631,949,o),
(604,970,o),
(574,970,cs)
);
},
{
closed = 1;
nodes = (
(715,970,o),
(684,942,o),
(684,910,cs),
(684,879,o),
(705,859,o),
(739,859,cs),
(773,859,o),
(806,889,o),
(806,921,cs),
(806,949,o),
(779,970,o),
(749,970,cs)
);
}
);
width = 804;
}
);
note = Odieresis;
unicode = 214;
},
{
glyphname = Odotbelow;
kernLeft = O;
kernRight = O;
lastChange = "2024-01-03 17:56:26 +0000";
layers = (
{
hints = (
{
horizontal = 1;
place = (736,44);
type = Stem;
},
{
horizontal = 1;
place = (-10,47);
type = Stem;
},
{
horizontal = 1;
place = (-256,125);
type = Stem;
},
{
place = (690,111);
type = Stem;
},
{
place = (155,137);
type = Stem;
},
{
place = (75,116);
type = Stem;
}
);
layerId = m01;
shapes = (
{
closed = 1;
nodes = (
(190,-131,o),
(155,-162,o),
(155,-199,cs),
(155,-233,o),
(179,-256,o),
(217,-256,cs),
(255,-256,o),
(292,-222,o),
(292,-186,cs),
(292,-155,o),
(262,-131,o),
(228,-131,cs)
);
}
);
width = 804;
}
);
note = Odotbelow;
unicode = 7884;
},
{
glyphname = Ograve;
kernLeft = O;
kernRight = O;
lastChange = "2024-01-03 17:56:31 +0000";
layers = (
{
hints = (
{
horizontal = 1;
place = (736,234);
type = Stem;
},
{
horizontal = 1;
place = (736,44);
type = Stem;
},
{
horizontal = 1;
place = (-10,47);
type = Stem;
},
{
place = (690,111);
type = Stem;
},
{
place = (75,116);
type = Stem;
}
);
layerId = m01;
shapes = (
{
closed = 1;
nodes = (
(729,847,l),
(625,938,ls),
(602,958,o),
(585,970,o),
(562,970,cs),
(532,970,o),
(512,951,o),
(512,922,cs),
(512,898,o),
(525,880,o),
(549,873,cs),
(710,826,l)
);
}
);
width = 804;
}
);
note = Ograve;
unicode = 210;
},
{
glyphname = Ohungarumlaut;
kernLeft = O;
kernRight = O;
lastChange = "2024-01-03 17:56:35 +0000";
layers = (
{
hints = (
{
horizontal = 1;
place = (970,-20);
target = down;
type = TopGhost;
},
{
horizontal = 1;
place = (736,233);
type = Stem;
},
{
horizontal = 1;
place = (736,44);
type = Stem;
},
{
horizontal = 1;
place = (-10,47);
type = Stem;
},
{
place = (690,111);
type = Stem;
},
{
place = (75,116);
type = Stem;
}
);
layerId = m01;
shapes = (
{
closed = 1;
nodes = (
);
},
{
closed = 1;
nodes = (
(679,826,l),
(831,868,ls),
(884,882,o),
(900,901,o),
(900,923,cs),
(900,949,o),
(880,969,o),
(857,969,cs),
(842,969,o),
(828,962,o),
(814,952,cs),
(669,847,l)
);
},
{
closed = 1;
nodes = (
(480,827,l),
(633,869,ls),
(686,883,o),
(702,903,o),
(702,926,cs),
(702,950,o),
(681,970,o),
(658,970,cs),
(643,970,o),
(629,963,o),
(615,953,cs),
(470,848,l)
);
}
);
width = 804;
}
);
note = Ohungarumlaut;
unicode = 336;
},
{
glyphname = Omacron;
kernLeft = O;
kernRight = O;
lastChange = "2024-01-03 17:56:36 +0000";
layers = (
{
hints = (
{
horizontal = 1;
place = (881,71);
type = Stem;
},
{
horizontal = 1;
place = (736,44);
type = Stem;
},
{
horizontal = 1;
place = (-10,47);
type = Stem;
},
{
place = (690,111);
type = Stem;
},
{
place = (75,116);
type = Stem;
}
);
layerId = m01;
shapes = (
{
closed = 1;
nodes = (
(757,881,l),
(786,952,l),
(499,952,l),
(471,881,l)
);
}
);
width = 804;
}
);
note = Omacron;
unicode = 332;
},
{
glyphname = Oogonek;
lastChange = "2024-01-03 17:56:40 +0000";
layers = (
{
hints = (
{
horizontal = 1;
place = (736,44);
type = Stem;
},
{
horizontal = 1;
place = (-10,47);
type = Stem;
},
{
horizontal = 1;
place = (-256,55);
type = Stem;
},
{
place = (690,111);
type = Stem;
},
{
place = (89,102);
type = Stem;
},
{
place = (75,116);
type = Stem;
}
);
layerId = m01;
shapes = (
{
closed = 1;
nodes = (
(288,-180,l),
(257,-196,o),
(241,-201,o),
(223,-201,cs),
(198,-201,o),
(186,-192,o),
(186,-172,cs),
(186,-134,o),
(231,-75,o),
(311,-10,c),
(265,-8,l),
(157,-73,o),
(89,-147,o),
(89,-204,cs),
(89,-238,o),
(113,-256,o),
(156,-256,cs),
(201,-256,o),
(248,-236,o),
(293,-198,c)
);
}
);
width = 805;
}
);
note = Oogonek;
unicode = 490;
},
{
glyphname = Oslash;
kernLeft = O;
kernRight = O;
lastChange = "2024-01-03 17:56:58 +0000";
layers = (
{
hints = (
{
horizontal = 1;
place = (770,-20);
target = down;
type = TopGhost;
},
{
horizontal = 1;
place = (736,44);
type = Stem;
},
{
horizontal = 1;
place = (-10,47);
type = Stem;
},
{
horizontal = 1;
place = (0,21);
target = up;
type = BottomGhost;
},
{
place = (690,111);
type = Stem;
},
{
place = (75,116);
type = Stem;
}
);
layerId = m01;
shapes = (
{
closed = 1;
nodes = (
(863,770,l),
(800,770,l),
(32,0,l),
(93,0,l)
);
}
);
width = 804;
}
);
note = Oslash;
unicode = 216;
},
{
glyphname = Oslashacute;
kernLeft = O;
kernRight = O;
lastChange = "2024-01-03 17:57:11 +0000";
layers = (
{
hints = (
{
horizontal = 1;
place = (970,-20);
target = down;
type = TopGhost;
},
{
horizontal = 1;
place = (770,-20);
target = down;
type = TopGhost;
},
{
horizontal = 1;
place = (736,44);
type = Stem;
},
{
horizontal = 1;
place = (-10,47);
type = Stem;
},
{
horizontal = 1;
place = (0,21);
target = up;
type = BottomGhost;
},
{
place = (690,111);
type = Stem;
},
{
place = (75,116);
type = Stem;
}
);
layerId = m01;
shapes = (
{
closed = 1;
nodes = (
(93,0,l),
(863,770,l),
(800,770,l),
(32,0,l)
);
},
{
closed = 1;
nodes = (
);
},
{
closed = 1;
nodes = (
(616,826,l),
(768,870,ls),
(820,885,o),
(836,904,o),
(836,927,cs),
(836,952,o),
(815,970,o),
(793,970,cs),
(777,970,o),
(764,965,o),
(749,954,cs),
(605,847,l)
);
}
);
width = 804;
}
);
note = Oslashacute;
unicode = 510;
},
{
glyphname = Otilde;
kernLeft = O;
kernRight = O;
lastChange = "2024-01-03 17:57:15 +0000";
layers = (
{
hints = (
{
horizontal = 1;
place = (970,-20);
target = down;
type = TopGhost;
},
{
horizontal = 1;
place = (891,76);
type = Stem;
},
{
horizontal = 1;
place = (891,41);
type = Stem;
},
{
horizontal = 1;
place = (852,80);
type = Stem;
},
{
horizontal = 1;
place = (736,44);
type = Stem;
},
{
horizontal = 1;
place = (-10,47);
type = Stem;
},
{
place = (690,111);
type = Stem;
},
{
place = (75,116);
type = Stem;
}
);
layerId = m01;
shapes = (
{
closed = 1;
nodes = (
(496,853,l),
(507,877,o),
(530,891,o),
(559,891,cs),
(606,891,o),
(648,852,o),
(695,852,cs),
(744,852,o),
(795,901,o),
(818,970,c),
(794,970,l),
(781,945,o),
(760,932,o),
(732,932,cs),
(687,932,o),
(640,967,o),
(594,967,cs),
(545,967,o),
(494,920,o),
(475,853,c)
);
}
);
width = 804;
}
);
note = Otilde;
unicode = 213;
},
{
glyphname = P;
kernLeft = B;
lastChange = "2024-01-03 17:57:30 +0000";
layers = (
{
hints = (
{
horizontal = 1;
place = (729,41);
type = Stem;
},
{
horizontal = 1;
place = (341,44);
type = Stem;
},
{
horizontal = 1;
place = (0,21);
target = up;
type = BottomGhost;
},
{
place = (616,104);
type = Stem;
}
);
layerId = m01;
shapes = (
{
closed = 1;
nodes = (
(-55,23,l),
(-64,0,l),
(252,0,l),
(262,23,l),
(143,42,l),
(33,42,l)
);
},
{
closed = 1;
nodes = (
(250,770,l),
(241,747,l),
(319,728,l),
(318,770,l)
);
}
);
width = 653;
}
);
note = P;
unicode = 80;
},
{
glyphname = Q;
kernRight = O;
lastChange = "2024-01-03 17:57:39 +0000";
layers = (
{
hints = (
{
horizontal = 1;
place = (736,44);
type = Stem;
},
{
horizontal = 1;
place = (-126,163);
type = Stem;
},
{
horizontal = 1;
place = (-227,100);
type = Stem;
},
{
place = (691,111);
type = Stem;
},
{
place = (76,116);
type = Stem;
},
{
place = (12,78);
type = Stem;
}
);
layerId = m01;
shapes = (
{
closed = 1;
nodes = (
(270,-12,l),
(79,-90,ls),
(34,-108,o),
(12,-129,o),
(12,-159,cs),
(12,-180,o),
(23,-201,o),
(50,-201,cs),
(73,-201,o),
(90,-185,o),
(90,-166,cs),
(90,-157,o),
(86,-148,o),
(86,-140,cs),
(86,-131,o),
(90,-126,o),
(108,-126,cs),
(191,-126,o),
(202,-227,o),
(325,-227,cs),
(457,-227,o),
(530,-109,o),
(542,-63,c),
(508,-63,l),
(481,-100,o),
(413,-127,o),
(325,-127,cs),
(266,-127,o),
(227,-115,o),
(190,-87,c),
(425,8,l),
(270,-8,l)
);
}
);
width = 804;
}
);
note = Q;
unicode = 81;
},
{
glyphname = R;
kernLeft = B;
kernRight = R;
lastChange = "2024-01-03 17:58:14 +0000";
layers = (
{
hints = (
{
horizontal = 1;
place = (729,41);
type = Stem;
},
{
horizontal = 1;
place = (354,44);
type = Stem;
},
{
horizontal = 1;
place = (0,21);
target = up;
type = BottomGhost;
},
{
place = (616,101);
type = Stem;
}
);
layerId = m01;
shapes = (
{
closed = 1;
nodes = (
(-55,23,l),
(-64,0,l),
(252,0,l),
(262,23,l),
(143,42,l),
(33,42,l)
);
},
{
closed = 1;
nodes = (
(250,770,l),
(241,747,l),
(319,728,l),
(319,770,l)
);
},
{
closed = 1;
nodes = (
(665,0,l),
(672,23,l),
(564,42,l),
(464,0,l)
);
}
);
width = 740;
}
);
note = R;
unicode = 82;
},
{
glyphname = Racute;
kernLeft = B;
kernRight = R;
lastChange = "2024-01-03 18:00:43 +0000";
layers = (
{
hints = (
{
horizontal = 1;
place = (970,-20);
target = down;
type = TopGhost;
},
{
horizontal = 1;
place = (729,41);
type = Stem;
},
{
horizontal = 1;
place = (354,44);
type = Stem;
},
{
horizontal = 1;
place = (0,21);
target = up;
type = BottomGhost;
},
{
place = (616,101);
type = Stem;
}
);
layerId = m01;
shapes = (
{
closed = 1;
nodes = (
(491,826,l),
(643,870,ls),
(695,885,o),
(711,904,o),
(711,927,cs),
(711,952,o),
(690,970,o),
(668,970,cs),
(652,970,o),
(639,965,o),
(624,954,cs),
(480,847,l)
);
},
{
ref = R;
}
);
width = 740;
}
);
note = Racute;
unicode = 340;
},
{
glyphname = Rcaron;
kernLeft = B;
kernRight = R;
lastChange = "2024-01-03 18:00:47 +0000";
layers = (
{
hints = (
{
horizontal = 1;
place = (970,-20);
target = down;
type = TopGhost;
},
{
horizontal = 1;
place = (770,60);
type = Stem;
},
{
horizontal = 1;
place = (729,41);
type = Stem;
},
{
horizontal = 1;
place = (354,44);
type = Stem;
},
{
horizontal = 1;
place = (0,21);
target = up;
type = BottomGhost;
},
{
place = (616,101);
type = Stem;
}
);
layerId = m01;
shapes = (
{
closed = 1;
nodes = (
(558,830,o),
(573,840,o),
(597,857,cs),
(729,953,l),
(717,970,l),
(552,902,l),
(461,970,l),
(435,953,l),
(489,857,ls),
(500,838,o),
(510,830,o),
(533,830,cs)
);
},
{
ref = R;
}
);
width = 740;
}
);
note = Rcaron;
unicode = 344;
},
{
glyphname = Rcommaaccent;
kernLeft = B;
kernRight = R;
lastChange = "2024-01-03 18:00:50 +0000";
layers = (
{
hints = (
{
horizontal = 1;
place = (729,41);
type = Stem;
},
{
horizontal = 1;
place = (354,44);
type = Stem;
},
{
horizontal = 1;
place = (-54,54);
type = Stem;
},
{
horizontal = 1;
place = (-257,21);
target = up;
type = BottomGhost;
},
{
place = (616,101);
type = Stem;
},
{
place = (228,116);
type = Stem;
}
);
layerId = m01;
shapes = (
{
closed = 1;
nodes = (
(276,-163,o),
(280,-164,o),
(280,-171,cs),
(280,-187,o),
(247,-218,o),
(206,-238,c),
(221,-257,l),
(299,-214,o),
(344,-161,o),
(344,-110,cs),
(344,-74,o),
(326,-54,o),
(294,-54,cs),
(249,-54,o),
(228,-78,o),
(228,-115,cs),
(228,-139,o),
(238,-154,o),
(257,-159,cs)
);
},
{
ref = R;
}
);
width = 740;
}
);
note = Rcommaaccent;
unicode = 342;
},
{
glyphname = Rdotbelow;
kernLeft = B;
kernRight = R;
lastChange = "2024-01-03 18:00:54 +0000";
layers = (
{
hints = (
{
horizontal = 1;
place = (729,41);
type = Stem;
},
{
horizontal = 1;
place = (354,44);
type = Stem;
},
{
horizontal = 1;
place = (-256,125);
type = Stem;
},
{
horizontal = 1;
place = (0,21);
target = up;
type = BottomGhost;
},
{
place = (616,101);
type = Stem;
},
{
place = (174,137);
type = Stem;
}
);
layerId = m01;
shapes = (
{
closed = 1;
nodes = (
(209,-131,o),
(174,-162,o),
(174,-199,cs),
(174,-233,o),
(198,-256,o),
(236,-256,cs),
(274,-256,o),
(311,-222,o),
(311,-186,cs),
(311,-155,o),
(281,-131,o),
(247,-131,cs)
);
},
{
ref = R;
}
);
width = 740;
}
);
note = Rdotbelow;
unicode = 7770;
},
{
glyphname = S;
kernLeft = S;
kernRight = S;
lastChange = "2024-01-03 18:01:06 +0000";
layers = (
{
hints = (
{
horizontal = 1;
place = (770,-20);
target = down;
type = TopGhost;
},
{
horizontal = 1;
place = (550,-20);
target = down;
type = TopGhost;
},
{
horizontal = 1;
place = (740,40);
type = Stem;
},
{
horizontal = 1;
place = (-10,40);
type = Stem;
},
{
horizontal = 1;
place = (0,21);
target = up;
type = BottomGhost;
},
{
place = (302,84);
type = Stem;
},
{
place = (85,112);
type = Stem;
}
);
layerId = m01;
shapes = (
{
closed = 1;
nodes = (
(130,30,o),
(85,75,o),
(85,165,cs),
(85,193,o),
(89,225,o),
(98,261,c),
(69,261,l),
(-37,0,l),
(-6,0,l),
(45,72,l),
(73,18,o),
(131,-10,o),
(216,-10,c),
(222,30,l)
);
},
{
closed = 1;
nodes = (
(511,780,o),
(558,761,o),
(597,718,c),
(643,770,l),
(675,770,l),
(589,550,l),
(559,550,l),
(566,575,o),
(572,613,o),
(572,637,cs),
(572,703,o),
(529,740,o),
(450,740,c),
(446,780,l)
);
}
);
width = 589;
}
);
note = S;
unicode = 83;
},
{
glyphname = Sacute;
kernLeft = S;
kernRight = S;
lastChange = "2024-01-03 18:01:10 +0000";
layers = (
{
hints = (
{
horizontal = 1;
place = (770,-20);
target = down;
type = TopGhost;
},
{
horizontal = 1;
place = (550,-20);
target = down;
type = TopGhost;
},
{
horizontal = 1;
place = (740,230);
type = Stem;
},
{
horizontal = 1;
place = (740,40);
type = Stem;
},
{
horizontal = 1;
place = (-10,40);
type = Stem;
},
{
horizontal = 1;
place = (0,21);
target = up;
type = BottomGhost;
},
{
place = (302,84);
type = Stem;
},
{
place = (85,112);
type = Stem;
}
);
layerId = m01;
shapes = (
{
closed = 1;
nodes = (
(424,826,l),
(576,870,ls),
(628,885,o),
(644,904,o),
(644,927,cs),
(644,952,o),
(623,970,o),
(601,970,cs),
(585,970,o),
(572,965,o),
(557,954,cs),
(413,847,l)
);
},
{
ref = S;
}
);
width = 589;
}
);
note = Sacute;
unicode = 346;
},
{
glyphname = Scaron;
kernLeft = S;
kernRight = S;
lastChange = "2024-01-03 18:01:14 +0000";
layers = (
{
hints = (
{
horizontal = 1;
place = (970,-20);
target = down;
type = TopGhost;
},
{
horizontal = 1;
place = (770,-20);
target = down;
type = TopGhost;
},
{
horizontal = 1;
place = (550,-20);
target = down;
type = TopGhost;
},
{
horizontal = 1;
place = (780,50);
type = Stem;
},
{
horizontal = 1;
place = (740,40);
type = Stem;
},
{
horizontal = 1;
place = (-10,40);
type = Stem;
},
{
horizontal = 1;
place = (0,21);
target = up;
type = BottomGhost;
},
{
place = (302,84);
type = Stem;
},
{
place = (85,112);
type = Stem;
}
);
layerId = m01;
shapes = (
{
closed = 1;
nodes = (
(536,830,o),
(551,840,o),
(575,857,cs),
(707,953,l),
(695,970,l),
(530,902,l),
(439,970,l),
(413,953,l),
(467,857,ls),
(478,838,o),
(488,830,o),
(511,830,cs)
);
},
{
ref = S;
}
);
width = 589;
}
);
note = Scaron;
unicode = 352;
},
{
glyphname = Scircumflex;
kernLeft = S;
kernRight = S;
lastChange = "2024-01-03 18:01:19 +0000";
layers = (
{
hints = (
{
horizontal = 1;
place = (770,-20);
target = down;
type = TopGhost;
},
{
horizontal = 1;
place = (550,-20);
target = down;
type = TopGhost;
},
{
horizontal = 1;
place = (740,230);
type = Stem;
},
{
horizontal = 1;
place = (740,40);
type = Stem;
},
{
horizontal = 1;
place = (-10,40);
type = Stem;
},
{
horizontal = 1;
place = (0,21);
target = up;
type = BottomGhost;
},
{
place = (302,84);
type = Stem;
},
{
place = (85,112);
type = Stem;
}
);
layerId = m01;
shapes = (
{
closed = 1;
nodes = (
(514,970,o),
(499,960,o),
(475,943,cs),
(343,847,l),
(355,830,l),
(520,898,l),
(611,830,l),
(637,847,l),
(583,943,ls),
(572,962,o),
(562,970,o),
(539,970,cs)
);
},
{
ref = S;
}
);
width = 589;
}
);
note = Scircumflex;
unicode = 348;
},
{
glyphname = Sdotbelow;
kernLeft = S;
kernRight = S;
lastChange = "2024-01-03 18:01:22 +0000";
layers = (
{
hints = (
{
horizontal = 1;
place = (770,-20);
target = down;
type = TopGhost;
},
{
horizontal = 1;
place = (550,-20);
target = down;
type = TopGhost;
},
{
horizontal = 1;
place = (740,40);
type = Stem;
},
{
horizontal = 1;
place = (-10,40);
type = Stem;
},
{
horizontal = 1;
place = (-256,125);
type = Stem;
},
{
horizontal = 1;
place = (0,21);
target = up;
type = BottomGhost;
},
{
place = (386,108);
type = Stem;
},
{
place = (197,105);
type = Stem;
},
{
place = (85,112);
type = Stem;
},
{
place = (71,137);
type = Stem;
}
);
layerId = m01;
shapes = (
{
closed = 1;
nodes = (
(106,-131,o),
(71,-162,o),
(71,-199,cs),
(71,-233,o),
(95,-256,o),
(133,-256,cs),
(171,-256,o),
(208,-222,o),
(208,-186,cs),
(208,-155,o),
(178,-131,o),
(144,-131,cs)
);
},
{
ref = S;
}
);
width = 589;
}
);
note = Sdotbelow;
unicode = 7778;
},
{
glyphname = T;
kernLeft = T;
kernRight = T;
lastChange = "2024-01-03 18:01:41 +0000";
layers = (
{
hints = (
{
horizontal = 1;
place = (550,-20);
target = down;
type = TopGhost;
},
{
horizontal = 1;
place = (730,40);
type = Stem;
},
{
horizontal = 1;
place = (0,21);
target = up;
type = BottomGhost;
}
);
layerId = m01;
shapes = (
{
closed = 1;
nodes = (
(416,23,l),
(406,0,l),
(88,0,l),
(98,23,l),
(205,42,l),
(314,42,l)
);
},
{
closed = 1;
nodes = (
(247,770,l),
(119,550,l),
(143,550,l),
(186,607,o),
(246,673,o),
(312,730,c),
(314,770,l)
);
},
{
closed = 1;
nodes = (
(873,770,l),
(819,550,l),
(795,550,l),
(796,564,o),
(796,580,o),
(796,595,cs),
(796,640,o),
(792,687,o),
(777,730,c),
(777,770,l)
);
}
);
width = 735;
}
);
note = T;
unicode = 84;
},
{
glyphname = Tbar;
kernLeft = T;
kernRight = T;
lastChange = "2024-01-03 18:01:46 +0000";
layers = (
{
hints = (
{
horizontal = 1;
place = (550,-20);
target = down;
type = TopGhost;
},
{
horizontal = 1;
place = (730,40);
type = Stem;
},
{
horizontal = 1;
place = (420,44);
type = Stem;
},
{
horizontal = 1;
place = (0,21);
target = up;
type = BottomGhost;
}
);
layerId = m01;
shapes = (
{
closed = 1;
nodes = (
(471,420,l),
(699,420,l),
(718,464,l),
(489,464,l),
(379,464,l),
(191,464,l),
(173,420,l),
(361,420,l)
);
},
{
ref = T;
}
);
width = 743;
}
);
note = Tbar;
unicode = 358;
},
{
glyphname = Tcaron;
kernLeft = T;
kernRight = T;
lastChange = "2024-01-03 18:01:48 +0000";
layers = (
{
hints = (
{
horizontal = 1;
place = (970,-20);
target = down;
type = TopGhost;
},
{
horizontal = 1;
place = (550,-20);
target = down;
type = TopGhost;
},
{
horizontal = 1;
place = (770,60);
type = Stem;
},
{
horizontal = 1;
place = (730,40);
type = Stem;
},
{
horizontal = 1;
place = (0,21);
target = up;
type = BottomGhost;
}
);
layerId = m01;
shapes = (
{
closed = 1;
nodes = (
(600,830,o),
(615,840,o),
(639,857,cs),
(771,953,l),
(759,970,l),
(594,902,l),
(503,970,l),
(477,953,l),
(531,857,ls),
(542,838,o),
(552,830,o),
(575,830,cs)
);
},
{
ref = T;
}
);
width = 735;
}
);
note = Tcaron;
unicode = 356;
},
{
glyphname = Tdotbelow;
kernLeft = T;
kernRight = T;
lastChange = "2024-01-03 18:01:50 +0000";
layers = (
{
hints = (
{
horizontal = 1;
place = (550,-20);
target = down;
type = TopGhost;
},
{
horizontal = 1;
place = (730,40);
type = Stem;
},
{
horizontal = 1;
place = (-256,125);
type = Stem;
},
{
horizontal = 1;
place = (0,21);
target = up;
type = BottomGhost;
},
{
place = (108,137);
type = Stem;
}
);
layerId = m01;
shapes = (
{
closed = 1;
nodes = (
(143,-131,o),
(108,-162,o),
(108,-199,cs),
(108,-233,o),
(132,-256,o),
(170,-256,cs),
(208,-256,o),
(245,-222,o),
(245,-186,cs),
(245,-155,o),
(215,-131,o),
(181,-131,cs)
);
},
{
ref = T;
}
);
width = 735;
}
);
note = Tdotbelow;
unicode = 7788;
},
{
glyphname = Thorn;
kernLeft = B;
lastChange = "2024-01-03 18:02:04 +0000";
layers = (
{
hints = (
{
horizontal = 1;
place = (555,215);
type = Stem;
},
{
horizontal = 1;
place = (555,41);
type = Stem;
},
{
horizontal = 1;
place = (167,44);
type = Stem;
},
{
horizontal = 1;
place = (0,211);
type = Stem;
},
{
place = (550,104);
type = Stem;
}
);
layerId = m01;
shapes = (
{
closed = 1;
nodes = (
(-52,23,l),
(-61,0,l),
(255,0,l),
(265,23,l),
(146,42,l),
(36,42,l)
);
},
{
closed = 1;
nodes = (
(524,747,l),
(533,770,l),
(217,770,l),
(207,747,l),
(326,728,l),
(436,728,l)
);
}
);
width = 658;
}
);
note = Thorn;
unicode = 222;
},
{
glyphname = U;
kernLeft = U;
kernRight = U;
lastChange = "2024-01-03 18:02:31 +0000";
layers = (
{
hints = (
{
horizontal = 1;
place = (770,-20);
target = down;
type = TopGhost;
},
{
horizontal = 1;
place = (-10,47);
type = Stem;
},
{
place = (94,102);
type = Stem;
}
);
layerId = m01;
shapes = (
{
closed = 1;
nodes = (
(929,747,l),
(938,770,l),
(717,770,l),
(706,747,l),
(790,728,l),
(834,728,l)
);
},
{
closed = 1;
nodes = (
(512,747,l),
(522,770,l),
(237,770,l),
(228,747,l),
(310,728,l),
(416,727,l)
);
}
);
width = 778;
}
);
note = U;
unicode = 85;
},
{
glyphname = Uacute;
kernLeft = U;
kernRight = U;
lastChange = "2024-01-03 18:02:35 +0000";
layers = (
{
hints = (
{
horizontal = 1;
place = (970,-20);
target = down;
type = TopGhost;
},
{
horizontal = 1;
place = (770,-20);
target = down;
type = TopGhost;
},
{
horizontal = 1;
place = (-10,47);
type = Stem;
},
{
place = (94,102);
type = Stem;
}
);
layerId = m01;
shapes = (
{
closed = 1;
nodes = (
(579,826,l),
(731,870,ls),
(783,885,o),
(799,904,o),
(799,927,cs),
(799,952,o),
(778,970,o),
(756,970,cs),
(740,970,o),
(727,965,o),
(712,954,cs),
(568,847,l)
);
},
{
ref = U;
}
);
width = 778;
}
);
note = Uacute;
unicode = 218;
},
{
glyphname = Ubreve;
kernLeft = U;
kernRight = U;
lastChange = "2024-01-03 18:02:38 +0000";
layers = (
{
hints = (
{
horizontal = 1;
place = (770,-20);
target = down;
type = TopGhost;
},
{
horizontal = 1;
place = (831,139);
type = Stem;
},
{
horizontal = 1;
place = (831,74);
type = Stem;
},
{
horizontal = 1;
place = (-10,47);
type = Stem;
},
{
place = (546,45);
type = Stem;
},
{
place = (94,102);
type = Stem;
}
);
layerId = m01;
shapes = (
{
closed = 1;
nodes = (
(556,970,l),
(549,948,o),
(546,930,o),
(546,914,cs),
(546,853,o),
(590,831,o),
(636,831,cs),
(679,831,o),
(757,846,o),
(840,970,c),
(800,970,l),
(758,924,o),
(714,905,o),
(670,905,cs),
(618,905,o),
(592,929,o),
(591,970,c)
);
},
{
ref = U;
}
);
width = 778;
}
);
note = Ubreve;
unicode = 364;
},
{
glyphname = Ucircumflex;
kernLeft = U;
kernRight = U;
lastChange = "2024-01-03 18:02:40 +0000";
layers = (
{
hints = (
{
horizontal = 1;
place = (970,-20);
target = down;
type = TopGhost;
},
{
horizontal = 1;
place = (770,-20);
target = down;
type = TopGhost;
},
{
horizontal = 1;
place = (-10,47);
type = Stem;
},
{
place = (94,102);
type = Stem;
}
);
layerId = m01;
shapes = (
{
closed = 1;
nodes = (
(679,970,o),
(664,960,o),
(640,943,cs),
(508,847,l),
(520,830,l),
(685,898,l),
(776,830,l),
(802,847,l),
(748,943,ls),
(737,962,o),
(727,970,o),
(704,970,cs)
);
},
{
ref = U;
}
);
width = 778;
}
);
note = Ucircumflex;
unicode = 219;
},
{
glyphname = Udieresis;
kernLeft = U;
kernRight = U;
lastChange = "2024-01-03 18:02:43 +0000";
layers = (
{
hints = (
{
horizontal = 1;
place = (770,-20);
target = down;
type = TopGhost;
},
{
horizontal = 1;
place = (859,111);
type = Stem;
},
{
horizontal = 1;
place = (-10,47);
type = Stem;
},
{
place = (689,122);
type = Stem;
},
{
place = (514,122);
type = Stem;
},
{
place = (94,102);
type = Stem;
}
);
layerId = m01;
shapes = (
{
closed = 1;
nodes = (
(545,970,o),
(514,942,o),
(514,910,cs),
(514,879,o),
(535,859,o),
(569,859,cs),
(603,859,o),
(636,889,o),
(636,921,cs),
(636,949,o),
(609,970,o),
(579,970,cs)
);
},
{
closed = 1;
nodes = (
(720,970,o),
(689,942,o),
(689,910,cs),
(689,879,o),
(710,859,o),
(744,859,cs),
(778,859,o),
(811,889,o),
(811,921,cs),
(811,949,o),
(784,970,o),
(754,970,cs)
);
},
{
ref = U;
}
);
width = 778;
}
);
note = Udieresis;
unicode = 220;
},
{
glyphname = Udotbelow;
kernLeft = U;
kernRight = U;
lastChange = "2024-01-03 18:02:46 +0000";
layers = (
{
hints = (
{
horizontal = 1;
place = (770,-20);
target = down;
type = TopGhost;
},
{
horizontal = 1;
place = (-10,47);
type = Stem;
},
{
horizontal = 1;
place = (-256,125);
type = Stem;
},
{
place = (168,137);
type = Stem;
},
{
place = (94,102);
type = Stem;
}
);
layerId = m01;
shapes = (
{
closed = 1;
nodes = (
);
},
{
closed = 1;
nodes = (
(203,-131,o),
(168,-162,o),
(168,-199,cs),
(168,-233,o),
(192,-256,o),
(230,-256,cs),
(268,-256,o),
(305,-222,o),
(305,-186,cs),
(305,-155,o),
(275,-131,o),
(241,-131,cs)
);
},
{
ref = U;
}
);
width = 778;
}
);
note = Udotbelow;
unicode = 7908;
},
{
glyphname = Ugrave;
kernLeft = U;
kernRight = U;
lastChange = "2024-01-03 18:02:48 +0000";
layers = (
{
hints = (
{
horizontal = 1;
place = (970,-20);
target = down;
type = TopGhost;
},
{
horizontal = 1;
place = (770,-20);
target = down;
type = TopGhost;
},
{
horizontal = 1;
place = (-10,47);
type = Stem;
},
{
place = (94,102);
type = Stem;
}
);
layerId = m01;
shapes = (
{
closed = 1;
nodes = (
(692,847,l),
(588,938,ls),
(565,958,o),
(548,970,o),
(525,970,cs),
(495,970,o),
(475,951,o),
(475,922,cs),
(475,898,o),
(488,880,o),
(512,873,cs),
(673,826,l)
);
},
{
ref = U;
}
);
width = 778;
}
);
note = Ugrave;
unicode = 217;
},
{
glyphname = Uhungarumlaut;
kernLeft = U;
kernRight = U;
lastChange = "2024-01-03 18:02:50 +0000";
layers = (
{
hints = (
{
horizontal = 1;
place = (970,-20);
target = down;
type = TopGhost;
},
{
horizontal = 1;
place = (969,-20);
target = down;
type = TopGhost;
},
{
horizontal = 1;
place = (770,-20);
target = down;
type = TopGhost;
},
{
horizontal = 1;
place = (-10,47);
type = Stem;
},
{
place = (94,102);
type = Stem;
}
);
layerId = m01;
shapes = (
{
closed = 1;
nodes = (
(682,826,l),
(834,868,ls),
(887,882,o),
(903,901,o),
(903,923,cs),
(903,949,o),
(883,969,o),
(860,969,cs),
(845,969,o),
(831,962,o),
(817,952,cs),
(672,847,l)
);
},
{
closed = 1;
nodes = (
(483,827,l),
(636,869,ls),
(689,883,o),
(705,903,o),
(705,926,cs),
(705,950,o),
(684,970,o),
(661,970,cs),
(646,970,o),
(632,963,o),
(618,953,cs),
(473,848,l)
);
}
);
width = 778;
}
);
note = Uhungarumlaut;
unicode = 368;
},
{
glyphname = Umacron;
kernLeft = U;
kernRight = U;
lastChange = "2024-01-03 18:27:02 +0000";
layers = (
{
hints = (
{
horizontal = 1;
place = (770,-20);
target = down;
type = TopGhost;
},
{
horizontal = 1;
place = (881,71);
type = Stem;
},
{
horizontal = 1;
place = (-10,47);
type = Stem;
},
{
place = (94,102);
type = Stem;
}
);
layerId = m01;
shapes = (
{
closed = 1;
nodes = (
(757,881,l),
(786,952,l),
(499,952,l),
(471,881,l)
);
},
{
ref = U;
}
);
width = 778;
}
);
note = Umacron;
unicode = 362;
},
{
glyphname = Uogonek;
kernLeft = U;
kernRight = U;
lastChange = "2024-01-03 18:27:09 +0000";
layers = (
{
hints = (
{
horizontal = 1;
place = (770,-20);
target = down;
type = TopGhost;
},
{
horizontal = 1;
place = (-8,45);
type = Stem;
},
{
horizontal = 1;
place = (-256,55);
type = Stem;
},
{
place = (94,102);
type = Stem;
}
);
layerId = m01;
shapes = (
{
closed = 1;
nodes = (
(293,-180,l),
(262,-196,o),
(246,-201,o),
(228,-201,cs),
(203,-201,o),
(191,-192,o),
(191,-172,cs),
(191,-134,o),
(236,-75,o),
(315,-10,c),
(269,-8,l),
(161,-73,o),
(94,-148,o),
(94,-204,cs),
(94,-238,o),
(118,-256,o),
(161,-256,cs),
(206,-256,o),
(253,-236,o),
(298,-198,c)
);
},
{
ref = U;
}
);
width = 778;
}
);
note = Uogonek;
unicode = 370;
},
{
glyphname = Uring;
kernLeft = U;
kernRight = U;
lastChange = "2024-01-03 18:27:11 +0000";
layers = (
{
hints = (
{
horizontal = 1;
place = (770,-20);
target = down;
type = TopGhost;
},
{
horizontal = 1;
place = (932,38);
type = Stem;
},
{
horizontal = 1;
place = (830,36);
type = Stem;
},
{
horizontal = 1;
place = (-10,47);
type = Stem;
},
{
place = (689,40);
type = Stem;
},
{
place = (575,40);
type = Stem;
},
{
place = (94,102);
type = Stem;
}
);
layerId = m01;
shapes = (
{
closed = 1;
nodes = (
(612,970,o),
(575,934,o),
(575,893,cs),
(575,857,o),
(603,830,o),
(642,830,cs),
(688,830,o),
(729,867,o),
(729,907,cs),
(729,942,o),
(697,970,o),
(657,970,cs)
);
},
{
closed = 1;
nodes = (
(672,932,o),
(689,919,o),
(689,903,cs),
(689,884,o),
(668,866,o),
(647,866,cs),
(629,866,o),
(615,879,o),
(615,897,cs),
(615,916,o),
(633,932,o),
(654,932,cs)
);
},
{
ref = U;
}
);
width = 778;
}
);
note = Uring;
unicode = 366;
},
{
glyphname = Utilde;
kernLeft = U;
kernRight = U;
lastChange = "2024-01-03 18:27:15 +0000";
layers = (
{
hints = (
{
horizontal = 1;
place = (970,-20);
target = down;
type = TopGhost;
},
{
horizontal = 1;
place = (770,-20);
target = down;
type = TopGhost;
},
{
horizontal = 1;
place = (891,76);
type = Stem;
},
{
horizontal = 1;
place = (891,41);
type = Stem;
},
{
horizontal = 1;
place = (852,80);
type = Stem;
},
{
horizontal = 1;
place = (-10,47);
type = Stem;
},
{
place = (94,102);
type = Stem;
}
);
layerId = m01;
shapes = (
{
closed = 1;
nodes = (
);
},
{
closed = 1;
nodes = (
(509,853,l),
(520,877,o),
(543,891,o),
(572,891,cs),
(619,891,o),
(661,852,o),
(708,852,cs),
(757,852,o),
(808,901,o),
(831,970,c),
(807,970,l),
(794,945,o),
(773,932,o),
(745,932,cs),
(700,932,o),
(653,967,o),
(607,967,cs),
(558,967,o),
(507,920,o),
(488,853,c)
);
},
{
ref = U;
}
);
width = 778;
}
);
note = Utilde;
unicode = 360;
},
{
glyphname = V;
lastChange = "2024-01-03 18:27:30 +0000";
layers = (
{
hints = (
{
horizontal = 1;
place = (742,28);
type = Stem;
},
{
horizontal = 1;
place = (-10,21);
target = up;
type = BottomGhost;
}
);
layerId = m01;
shapes = (
{
closed = 1;
nodes = (
(805,708,o),
(839,728,o),
(934,742,c),
(948,770,l),
(659,770,l),
(646,742,l),
(705,734,o),
(730,722,o),
(731,701,cs),
(731,683,o),
(726,670,o),
(697,633,c),
(745,631,l)
);
},
{
closed = 1;
nodes = (
(385,727,o),
(417,741,o),
(493,742,c),
(507,770,l),
(199,770,l),
(185,742,l),
(247,738,o),
(269,730,o),
(270,695,cs),
(270,690,o),
(270,684,o),
(269,678,c),
(376,665,l)
);
}
);
width = 734;
}
);
note = V;
unicode = 86;
},
{
glyphname = W;
kernLeft = W;
kernRight = W;
lastChange = "2024-01-03 18:27:49 +0000";
layers = (
{
hints = (
{
horizontal = 1;
place = (742,28);
type = Stem;
},
{
horizontal = 1;
place = (-10,21);
target = up;
type = BottomGhost;
}
);
layerId = m01;
shapes = (
{
closed = 1;
nodes = (
(720,727,o),
(753,741,o),
(828,742,c),
(842,770,l),
(564,770,l),
(550,742,l),
(591,738,o),
(604,730,o),
(605,695,cs),
(605,690,o),
(605,684,o),
(604,678,c),
(711,665,l)
);
},
{
closed = 1;
nodes = (
(1106,706,o),
(1134,728,o),
(1219,742,c),
(1233,770,l),
(964,770,l),
(951,742,l),
(1010,734,o),
(1035,722,o),
(1036,701,cs),
(1036,683,o),
(1029,670,o),
(1002,633,c),
(1050,631,l)
);
},
{
closed = 1;
nodes = (
(265,684,o),
(265,690,o),
(265,695,cs),
(264,730,o),
(242,738,o),
(180,742,c),
(194,770,l),
(482,770,l),
(468,742,l),
(405,741,o),
(379,727,o),
(371,665,c),
(264,678,l)
);
}
);
width = 1029;
}
);
note = W;
unicode = 87;
},
{
glyphname = Wacute;
kernLeft = W;
kernRight = W;
lastChange = "2024-01-03 18:27:53 +0000";
layers = (
{
hints = (
{
horizontal = 1;
place = (742,228);
type = Stem;
},
{
horizontal = 1;
place = (742,28);
type = Stem;
},
{
horizontal = 1;
place = (-10,21);
target = up;
type = BottomGhost;
}
);
layerId = m01;
shapes = (
{
closed = 1;
nodes = (
(640,826,l),
(792,870,ls),
(844,885,o),
(860,904,o),
(860,927,cs),
(860,952,o),
(839,970,o),
(817,970,cs),
(801,970,o),
(788,965,o),
(773,954,cs),
(629,847,l)
);
},
{
ref = W;
}
);
width = 1029;
}
);
note = Wacute;
unicode = 7810;
},
{
glyphname = Wcircumflex;
kernLeft = W;
kernRight = W;
lastChange = "2024-01-03 18:27:56 +0000";
layers = (
{
hints = (
{
horizontal = 1;
place = (742,228);
type = Stem;
},
{
horizontal = 1;
place = (742,28);
type = Stem;
},
{
horizontal = 1;
place = (-10,21);
target = up;
type = BottomGhost;
}
);
layerId = m01;
shapes = (
{
closed = 1;
nodes = (
(760,970,o),
(745,960,o),
(721,943,cs),
(589,847,l),
(601,830,l),
(766,898,l),
(857,830,l),
(883,847,l),
(829,943,ls),
(818,962,o),
(808,970,o),
(785,970,cs)
);
},
{
ref = W;
}
);
width = 1029;
}
);
note = Wcircumflex;
unicode = 372;
},
{
glyphname = Wdieresis;
kernLeft = W;
kernRight = W;
lastChange = "2024-01-03 18:27:58 +0000";
layers = (
{
hints = (
{
horizontal = 1;
place = (859,111);
type = Stem;
},
{
horizontal = 1;
place = (742,28);
type = Stem;
},
{
horizontal = 1;
place = (-10,21);
target = up;
type = BottomGhost;
},
{
place = (780,122);
type = Stem;
},
{
place = (605,122);
type = Stem;
}
);
layerId = m01;
shapes = (
{
closed = 1;
nodes = (
(636,970,o),
(605,942,o),
(605,910,cs),
(605,879,o),
(626,859,o),
(660,859,cs),
(694,859,o),
(727,889,o),
(727,921,cs),
(727,949,o),
(700,970,o),
(670,970,cs)
);
},
{
closed = 1;
nodes = (
(811,970,o),
(780,942,o),
(780,910,cs),
(780,879,o),
(801,859,o),
(835,859,cs),
(869,859,o),
(902,889,o),
(902,921,cs),
(902,949,o),
(875,970,o),
(845,970,cs)
);
},
{
ref = W;
}
);
width = 1029;
}
);
note = Wdieresis;
unicode = 7812;
},
{
glyphname = Wgrave;
kernLeft = W;
kernRight = W;
lastChange = "2024-01-03 18:28:01 +0000";
layers = (
{
hints = (
{
horizontal = 1;
place = (970,-20);
target = down;
type = TopGhost;
},
{
horizontal = 1;
place = (742,28);
type = Stem;
},
{
horizontal = 1;
place = (-10,21);
target = up;
type = BottomGhost;
}
);
layerId = m01;
shapes = (
{
closed = 1;
nodes = (
(813,847,l),
(709,938,ls),
(686,958,o),
(669,970,o),
(646,970,cs),
(616,970,o),
(596,951,o),
(596,922,cs),
(596,898,o),
(609,880,o),
(633,873,cs),
(794,826,l)
);
},
{
ref = W;
}
);
width = 1029;
}
);
note = Wgrave;
unicode = 7808;
},
{
glyphname = X;
lastChange = "2024-01-03 18:32:47 +0000";
layers = (
{
hints = (
{
horizontal = 1;
place = (770,-20);
target = down;
type = TopGhost;
},
{
horizontal = 1;
place = (0,23);
type = Stem;
}
);
layerId = m01;
shapes = (
{
closed = 1;
nodes = (
(279,718,o),
(261,737,o),
(182,746,c),
(193,770,l),
(487,770,l),
(478,747,l),
(422,742,o),
(402,727,o),
(402,693,cs),
(402,682,o),
(404,670,o),
(408,655,c),
(292,663,l)
);
},
{
closed = 1;
nodes = (
(688,669,o),
(722,699,o),
(722,724,cs),
(722,740,o),
(703,747,o),
(669,747,c),
(678,770,l),
(916,770,l),
(906,747,l),
(831,737,o),
(790,718,o),
(726,656,c),
(670,651,l)
);
},
{
closed = 1;
nodes = (
(554,51,o),
(575,34,o),
(639,23,c),
(629,0,l),
(330,0,l),
(339,23,l),
(404,32,o),
(428,45,o),
(428,80,cs),
(428,90,o),
(426,101,o),
(423,115,c),
(538,116,l)
);
},
{
closed = 1;
nodes = (
(17,43,o),
(-25,26,o),
(-98,23,c),
(-108,0,l),
(201,0,l),
(212,23,l),
(159,31,o),
(134,47,o),
(134,70,cs),
(134,90,o),
(152,115,o),
(184,146,c),
(147,167,l)
);
}
);
width = 744;
}
);
note = X;
unicode = 88;
},
{
glyphname = Y;
kernLeft = Y;
kernRight = Y;
lastChange = "2024-01-03 18:33:12 +0000";
layers = (
{
hints = (
{
horizontal = 1;
place = (747,23);
type = Stem;
},
{
horizontal = 1;
place = (0,21);
target = up;
type = BottomGhost;
}
);
layerId = m01;
shapes = (
{
closed = 1;
nodes = (
(98,23,l),
(88,0,l),
(392,0,l),
(402,23,l),
(304,42,l),
(195,42,l)
);
},
{
closed = 1;
nodes = (
(260,731,o),
(250,747,o),
(180,747,c),
(190,770,l),
(472,770,l),
(462,747,l),
(406,745,o),
(384,731,o),
(384,677,cs),
(384,667,o),
(385,654,o),
(387,640,c),
(270,664,l)
);
},
{
closed = 1;
nodes = (
(794,725,o),
(825,742,o),
(908,747,c),
(921,770,l),
(645,770,l),
(636,747,l),
(693,747,o),
(719,736,o),
(719,716,cs),
(719,703,o),
(708,686,o),
(686,664,c),
(708,638,l)
);
}
);
width = 716;
}
);
note = Y;
unicode = 89;
},
{
glyphname = Yacute;
kernLeft = Y;
kernRight = Y;
lastChange = "2024-01-03 18:33:27 +0000";
layers = (
{
hints = (
{
horizontal = 1;
place = (747,223);
type = Stem;
},
{
horizontal = 1;
place = (747,23);
type = Stem;
},
{
horizontal = 1;
place = (0,21);
target = up;
type = BottomGhost;
}
);
layerId = m01;
shapes = (
{
closed = 1;
nodes = (
(543,826,l),
(695,870,ls),
(747,885,o),
(763,904,o),
(763,927,cs),
(763,952,o),
(742,970,o),
(720,970,cs),
(704,970,o),
(691,965,o),
(676,954,cs),
(532,847,l)
);
},
{
ref = Y;
}
);
width = 716;
}
);
note = Yacute;
unicode = 221;
},
{
glyphname = Ycircumflex;
kernLeft = Y;
kernRight = Y;
lastChange = "2024-01-03 18:33:29 +0000";
layers = (
{
hints = (
{
horizontal = 1;
place = (747,223);
type = Stem;
},
{
horizontal = 1;
place = (747,23);
type = Stem;
},
{
horizontal = 1;
place = (0,21);
target = up;
type = BottomGhost;
}
);
layerId = m01;
shapes = (
{
closed = 1;
nodes = (
(613,970,o),
(598,960,o),
(574,943,cs),
(442,847,l),
(454,830,l),
(619,898,l),
(710,830,l),
(736,847,l),
(682,943,ls),
(671,962,o),
(661,970,o),
(638,970,cs)
);
},
{
ref = Y;
}
);
width = 716;
}
);
note = Ycircumflex;
unicode = 374;
},
{
glyphname = Ydieresis;
kernLeft = Y;
kernRight = Y;
lastChange = "2024-01-03 18:33:31 +0000";
layers = (
{
hints = (
{
horizontal = 1;
place = (859,111);
type = Stem;
},
{
horizontal = 1;
place = (747,23);
type = Stem;
},
{
horizontal = 1;
place = (0,21);
target = up;
type = BottomGhost;
},
{
place = (633,122);
type = Stem;
},
{
place = (458,122);
type = Stem;
}
);
layerId = m01;
shapes = (
{
closed = 1;
nodes = (
(489,970,o),
(458,942,o),
(458,910,cs),
(458,879,o),
(479,859,o),
(513,859,cs),
(547,859,o),
(580,889,o),
(580,921,cs),
(580,949,o),
(553,970,o),
(523,970,cs)
);
},
{
closed = 1;
nodes = (
(664,970,o),
(633,942,o),
(633,910,cs),
(633,879,o),
(654,859,o),
(688,859,cs),
(722,859,o),
(755,889,o),
(755,921,cs),
(755,949,o),
(728,970,o),
(698,970,cs)
);
},
{
ref = Y;
}
);
width = 716;
}
);
note = Ydieresis;
unicode = 376;
},
{
glyphname = Ygrave;
kernLeft = Y;
kernRight = Y;
lastChange = "2024-01-03 18:33:39 +0000";
layers = (
{
hints = (
{
horizontal = 1;
place = (747,223);
type = Stem;
},
{
horizontal = 1;
place = (747,23);
type = Stem;
},
{
horizontal = 1;
place = (0,21);
target = up;
type = BottomGhost;
}
);
layerId = m01;
shapes = (
{
closed = 1;
nodes = (
(645,847,l),
(541,938,ls),
(518,958,o),
(501,970,o),
(478,970,cs),
(448,970,o),
(428,951,o),
(428,922,cs),
(428,898,o),
(441,880,o),
(465,873,cs),
(626,826,l)
);
},
{
ref = Y;
}
);
width = 716;
}
);
note = Ygrave;
unicode = 7922;
},
{
glyphname = Ytilde;
kernLeft = Y;
kernRight = Y;
lastChange = "2024-01-03 18:33:42 +0000";
layers = (
{
hints = (
{
horizontal = 1;
place = (970,-20);
target = down;
type = TopGhost;
},
{
horizontal = 1;
place = (891,76);
type = Stem;
},
{
horizontal = 1;
place = (891,41);
type = Stem;
},
{
horizontal = 1;
place = (852,80);
type = Stem;
},
{
horizontal = 1;
place = (747,23);
type = Stem;
},
{
horizontal = 1;
place = (0,21);
target = up;
type = BottomGhost;
}
);
layerId = m01;
shapes = (
{
closed = 1;
nodes = (
(462,853,l),
(473,877,o),
(496,891,o),
(525,891,cs),
(572,891,o),
(614,852,o),
(661,852,cs),
(710,852,o),
(761,901,o),
(784,970,c),
(760,970,l),
(747,945,o),
(726,932,o),
(698,932,cs),
(653,932,o),
(606,967,o),
(560,967,cs),
(511,967,o),
(460,920,o),
(441,853,c)
);
},
{
ref = Y;
}
);
width = 716;
}
);
note = Ytilde;
unicode = 7928;
},
{
glyphname = Z;
kernLeft = Z;
kernRight = Z;
lastChange = "2024-01-03 18:33:58 +0000";
layers = (
{
hints = (
{
horizontal = 1;
place = (730,40);
type = Stem;
},
{
horizontal = 1;
place = (0,42);
type = Stem;
}
);
layerId = m01;
shapes = (
{
closed = 1;
nodes = (
(504,108,o),
(565,177,o),
(612,244,c),
(646,244,l),
(523,0,l),
(430,0,l),
(434,42,l)
);
},
{
closed = 1;
nodes = (
(270,770,l),
(150,553,l),
(177,553,l),
(222,611,o),
(284,676,o),
(349,730,c),
(352,770,l)
);
}
);
width = 697;
}
);
note = Z;
unicode = 90;
},
{
glyphname = Zacute;
kernLeft = Z;
kernRight = Z;
lastChange = "2024-01-03 18:34:03 +0000";
layers = (
{
hints = (
{
horizontal = 1;
place = (970,-20);
target = down;
type = TopGhost;
},
{
horizontal = 1;
place = (730,40);
type = Stem;
},
{
horizontal = 1;
place = (0,42);
type = Stem;
}
);
layerId = m01;
shapes = (
{
closed = 1;
nodes = (
(484,826,l),
(636,870,ls),
(688,885,o),
(704,904,o),
(704,927,cs),
(704,952,o),
(683,970,o),
(661,970,cs),
(645,970,o),
(632,965,o),
(617,954,cs),
(473,847,l)
);
},
{
ref = Z;
}
);
width = 697;
}
);
note = Zacute;
unicode = 377;
},
{
glyphname = Zcaron;
kernLeft = Z;
kernRight = Z;
lastChange = "2024-01-03 18:34:05 +0000";
layers = (
{
hints = (
{
horizontal = 1;
place = (970,-20);
target = down;
type = TopGhost;
},
{
horizontal = 1;
place = (770,60);
type = Stem;
},
{
horizontal = 1;
place = (730,40);
type = Stem;
},
{
horizontal = 1;
place = (0,42);
type = Stem;
}
);
layerId = m01;
shapes = (
{
closed = 1;
nodes = (
(566,830,o),
(581,840,o),
(605,857,cs),
(737,953,l),
(725,970,l),
(560,902,l),
(469,970,l),
(443,953,l),
(497,857,ls),
(508,838,o),
(518,830,o),
(541,830,cs)
);
},
{
ref = Z;
}
);
width = 697;
}
);
note = Zcaron;
unicode = 381;
},
{
glyphname = Zdotaccent;
kernLeft = Z;
kernRight = Z;
lastChange = "2024-01-03 18:34:08 +0000";
layers = (
{
hints = (
{
horizontal = 1;
place = (845,125);
type = Stem;
},
{
horizontal = 1;
place = (730,40);
type = Stem;
},
{
horizontal = 1;
place = (0,42);
type = Stem;
},
{
place = (495,137);
type = Stem;
}
);
layerId = m01;
shapes = (
{
closed = 1;
nodes = (
(530,970,o),
(495,939,o),
(495,902,cs),
(495,868,o),
(519,845,o),
(557,845,cs),
(595,845,o),
(632,879,o),
(632,915,cs),
(632,946,o),
(602,970,o),
(568,970,cs)
);
},
{
ref = Z;
}
);
width = 697;
}
);
note = Zdotaccent;
unicode = 379;
},
{
glyphname = Zdotbelow;
kernLeft = Z;
kernRight = Z;
lastChange = "2024-01-03 18:34:10 +0000";
layers = (
{
hints = (
{
horizontal = 1;
place = (730,40);
type = Stem;
},
{
horizontal = 1;
place = (0,42);
type = Stem;
},
{
horizontal = 1;
place = (-256,125);
type = Stem;
},
{
place = (121,137);
type = Stem;
}
);
layerId = m01;
shapes = (
{
closed = 1;
nodes = (
(156,-131,o),
(121,-162,o),
(121,-199,cs),
(121,-233,o),
(145,-256,o),
(183,-256,cs),
(221,-256,o),
(258,-222,o),
(258,-186,cs),
(258,-155,o),
(228,-131,o),
(194,-131,cs)
);
},
{
ref = Z;
}
);
width = 697;
}
);
note = Zdotbelow;
unicode = 7826;
},
{
glyphname = a;
kernLeft = a;
kernRight = a;
lastChange = "2024-01-03 18:34:18 +0000";
layers = (
{
hints = (
{
horizontal = 1;
place = (530,-20);
target = down;
type = TopGhost;
},
{
horizontal = 1;
place = (508,32);
type = Stem;
},
{
horizontal = 1;
place = (-10,59);
type = Stem;
},
{
horizontal = 1;
place = (-10,35);
type = Stem;
},
{
place = (0,92);
type = Stem;
}
);
layerId = m01;
shapes = (
{
closed = 1;
nodes = (
(390,56,o),
(396,49,o),
(406,49,cs),
(426,49,o),
(461,76,o),
(517,138,c),
(537,124,l),
(467,36,o),
(403,-10,o),
(347,-10,cs),
(310,-10,o),
(288,9,o),
(288,48,c),
(390,68,l)
);
}
);
width = 604;
}
);
note = a;
unicode = 97;
},
{
glyphname = aacute;
kernLeft = a;
kernRight = a;
lastChange = "2024-01-03 18:34:21 +0000";
layers = (
{
hints = (
{
horizontal = 1;
place = (857,-20);
target = down;
type = TopGhost;
},
{
horizontal = 1;
place = (530,-20);
target = down;
type = TopGhost;
},
{
horizontal = 1;
place = (508,32);
type = Stem;
},
{
horizontal = 1;
place = (-10,35);
type = Stem;
},
{
place = (0,92);
type = Stem;
}
);
layerId = m01;
shapes = (
{
closed = 1;
nodes = (
(423,631,l),
(585,750,ls),
(621,776,o),
(635,795,o),
(635,815,cs),
(635,839,o),
(614,857,o),
(586,857,cs),
(563,857,o),
(543,843,o),
(523,813,cs),
(407,642,l)
);
},
{
ref = a;
}
);
width = 604;
}
);
note = aacute;
unicode = 225;
},
{
glyphname = abreve;
kernLeft = a;
kernRight = a;
lastChange = "2024-01-03 18:34:23 +0000";
layers = (
{
hints = (
{
horizontal = 1;
place = (530,-20);
target = down;
type = TopGhost;
},
{
horizontal = 1;
place = (651,139);
type = Stem;
},
{
horizontal = 1;
place = (651,74);
type = Stem;
},
{
horizontal = 1;
place = (508,32);
type = Stem;
},
{
horizontal = 1;
place = (-10,59);
type = Stem;
},
{
horizontal = 1;
place = (-10,35);
type = Stem;
},
{
place = (344,45);
type = Stem;
},
{
place = (288,101);
type = Stem;
},
{
place = (0,92);
type = Stem;
}
);
layerId = m01;
shapes = (
{
closed = 1;
nodes = (
(354,790,l),
(347,768,o),
(344,750,o),
(344,734,cs),
(344,673,o),
(388,651,o),
(434,651,cs),
(477,651,o),
(555,666,o),
(638,790,c),
(598,790,l),
(556,744,o),
(512,725,o),
(468,725,cs),
(416,725,o),
(390,749,o),
(389,790,c)
);
},
{
ref = a;
}
);
width = 604;
}
);
note = abreve;
unicode = 259;
},
{
glyphname = acircumflex;
kernLeft = a;
kernRight = a;
lastChange = "2024-01-03 18:34:26 +0000";
layers = (
{
hints = (
{
horizontal = 1;
place = (857,-20);
target = down;
type = TopGhost;
},
{
horizontal = 1;
place = (530,-20);
target = down;
type = TopGhost;
},
{
horizontal = 1;
place = (508,32);
type = Stem;
},
{
horizontal = 1;
place = (-10,35);
type = Stem;
},
{
place = (0,92);
type = Stem;
}
);
layerId = m01;
shapes = (
{
closed = 1;
nodes = (
(487,857,o),
(466,848,o),
(448,828,cs),
(277,640,l),
(296,628,l),
(479,769,l),
(549,628,l),
(572,640,l),
(556,828,ls),
(554,847,o),
(545,857,o),
(516,857,cs)
);
},
{
ref = a;
}
);
width = 604;
}
);
note = acircumflex;
unicode = 226;
},
{
glyphname = acute;
layers = (
{
hints = (
{
horizontal = 1;
place = (857,-20);
target = down;
type = TopGhost;
},
{
horizontal = 1;
place = (631,21);
target = up;
type = BottomGhost;
}
);
layerId = m01;
shapes = (
{
closed = 1;
nodes = (
(26,631,l),
(188,750,ls),
(224,776,o),
(238,795,o),
(238,815,cs),
(238,839,o),
(217,857,o),
(189,857,cs),
(166,857,o),
(146,843,o),
(126,813,cs),
(10,642,l)
);
}
);
width = 248;
}
);
note = acute;
unicode = 180;
},
{
glyphname = acute.cap;
layers = (
{
hints = (
{
horizontal = 1;
place = (960,-20);
target = down;
type = TopGhost;
},
{
horizontal = 1;
place = (816,21);
target = up;
type = BottomGhost;
}
);
layerId = m01;
shapes = (
{
closed = 1;
nodes = (
(21,816,l),
(173,860,ls),
(225,875,o),
(241,894,o),
(241,917,cs),
(241,942,o),
(220,960,o),
(198,960,cs),
(182,960,o),
(169,955,o),
(154,944,cs),
(10,837,l)
);
}
);
width = 248;
}
);
note = acute.cap;
},
{
glyphname = adieresis;
kernLeft = a;
kernRight = a;
lastChange = "2024-01-03 18:34:31 +0000";
layers = (
{
hints = (
{
horizontal = 1;
place = (530,-20);
target = down;
type = TopGhost;
},
{
horizontal = 1;
place = (669,111);
type = Stem;
},
{
horizontal = 1;
place = (508,32);
type = Stem;
},
{
horizontal = 1;
place = (-10,59);
type = Stem;
},
{
horizontal = 1;
place = (-10,35);
type = Stem;
},
{
place = (495,122);
type = Stem;
},
{
place = (320,122);
type = Stem;
},
{
place = (0,92);
type = Stem;
}
);
layerId = m01;
shapes = (
{
closed = 1;
nodes = (
(351,780,o),
(320,752,o),
(320,720,cs),
(320,689,o),
(341,669,o),
(375,669,cs),
(409,669,o),
(442,699,o),
(442,731,cs),
(442,759,o),
(415,780,o),
(385,780,cs)
);
},
{
closed = 1;
nodes = (
(526,780,o),
(495,752,o),
(495,720,cs),
(495,689,o),
(516,669,o),
(550,669,cs),
(584,669,o),
(617,699,o),
(617,731,cs),
(617,759,o),
(590,780,o),
(560,780,cs)
);
},
{
ref = a;
}
);
width = 604;
}
);
note = adieresis;
unicode = 228;
},
{
glyphname = aeacute;
kernLeft = a;
kernRight = ae;
lastChange = "2024-01-03 18:34:36 +0000";
layers = (
{
hints = (
{
horizontal = 1;
place = (857,-20);
target = down;
type = TopGhost;
},
{
horizontal = 1;
place = (530,-20);
target = down;
type = TopGhost;
},
{
horizontal = 1;
place = (508,32);
type = Stem;
},
{
horizontal = 1;
place = (-10,35);
type = Stem;
},
{
place = (733,80);
type = Stem;
},
{
place = (322,94);
type = Stem;
},
{
place = (1,92);
type = Stem;
}
);
layerId = m01;
shapes = (
{
closed = 1;
nodes = (
(568,631,l),
(730,750,ls),
(766,776,o),
(780,795,o),
(780,815,cs),
(780,839,o),
(759,857,o),
(731,857,cs),
(708,857,o),
(688,843,o),
(668,813,cs),
(552,642,l)
);
}
);
width = 804;
}
);
note = aeacute;
unicode = 509;
},
{
glyphname = agrave;
kernLeft = a;
kernRight = a;
lastChange = "2024-01-03 18:34:38 +0000";
layers = (
{
hints = (
{
horizontal = 1;
place = (857,-20);
target = down;
type = TopGhost;
},
{
horizontal = 1;
place = (530,-20);
target = down;
type = TopGhost;
},
{
horizontal = 1;
place = (508,32);
type = Stem;
},
{
horizontal = 1;
place = (-10,59);
type = Stem;
},
{
horizontal = 1;
place = (-10,35);
type = Stem;
},
{
place = (382,92);
type = Stem;
},
{
place = (0,92);
type = Stem;
}
);
layerId = m01;
shapes = (
{
closed = 1;
nodes = (
(468,642,l),
(480,792,ls),
(480,797,o),
(481,802,o),
(481,815,cs),
(481,843,o),
(466,857,o),
(434,857,cs),
(407,857,o),
(382,838,o),
(382,811,cs),
(382,794,o),
(385,781,o),
(395,755,cs),
(440,636,l)
);
},
{
ref = a;
}
);
width = 604;
}
);
note = agrave;
unicode = 224;
},
{
glyphname = amacron;
kernLeft = a;
kernRight = a;
lastChange = "2024-01-03 18:34:40 +0000";
layers = (
{
hints = (
{
horizontal = 1;
place = (530,-20);
target = down;
type = TopGhost;
},
{
horizontal = 1;
place = (709,71);
type = Stem;
},
{
horizontal = 1;
place = (508,32);
type = Stem;
},
{
horizontal = 1;
place = (-10,59);
type = Stem;
},
{
horizontal = 1;
place = (-10,35);
type = Stem;
},
{
place = (0,92);
type = Stem;
}
);
layerId = m01;
shapes = (
{
closed = 1;
nodes = (
(597,709,l),
(626,780,l),
(339,780,l),
(311,709,l)
);
},
{
ref = a;
}
);
width = 604;
}
);
note = amacron;
unicode = 257;
},
{
glyphname = ampersand;
lastChange = "2024-01-03 18:35:06 +0000";
layers = (
{
hints = (
{
horizontal = 1;
place = (714,66);
type = Stem;
},
{
horizontal = 1;
place = (689,44);
type = Stem;
},
{
horizontal = 1;
place = (662,118);
type = Stem;
},
{
horizontal = 1;
place = (564,169);
type = Stem;
},
{
horizontal = 1;
place = (402,96);
type = Stem;
},
{
horizontal = 1;
place = (-10,98);
type = Stem;
},
{
place = (946,38);
type = Stem;
},
{
place = (775,57);
type = Stem;
},
{
place = (745,239);
type = Stem;
},
{
place = (473,128);
type = Stem;
},
{
place = (473,50);
type = Stem;
},
{
place = (194,181);
type = Stem;
},
{
place = (194,43);
type = Stem;
},
{
place = (93,65);
type = Stem;
}
);
layerId = m01;
shapes = (
{
closed = 1;
nodes = (
(984,742,o),
(933,780,o),
(862,780,cs),
(797,780,o),
(745,747,o),
(745,701,cs),
(745,676,o),
(761,662,o),
(784,662,cs),
(827,662,o),
(838,714,o),
(885,714,cs),
(917,714,o),
(946,691,o),
(946,643,c),
(984,660,l)
);
},
{
closed = 1;
nodes = (
(473,296,o),
(513,268,o),
(547,268,cs),
(575,268,o),
(601,282,o),
(601,309,cs),
(601,364,o),
(523,336,o),
(523,381,c),
(473,350,l)
);
}
);
width = 931;
}
);
note = ampersand;
unicode = 38;
},
{
glyphname = ampersand.ss01;
lastChange = "2024-01-03 18:35:46 +0000";
layers = (
{
hints = (
{
horizontal = 1;
place = (856,-20);
target = down;
type = TopGhost;
},
{
horizontal = 1;
place = (488,52);
type = Stem;
},
{
horizontal = 1;
place = (435,105);
type = Stem;
},
{
horizontal = 1;
place = (406,218);
type = Stem;
},
{
horizontal = 1;
place = (406,50);
type = Stem;
},
{
horizontal = 1;
place = (328,212);
type = Stem;
},
{
horizontal = 1;
place = (-10,104);
type = Stem;
},
{
place = (829,65);
type = Stem;
},
{
place = (794,100);
type = Stem;
},
{
place = (634,38);
type = Stem;
},
{
place = (423,99);
type = Stem;
},
{
place = (406,87);
type = Stem;
},
{
place = (392,101);
type = Stem;
},
{
place = (37,61);
type = Stem;
}
);
layerId = m01;
shapes = (
{
closed = 1;
nodes = (
(406,737,o),
(392,756,o),
(392,789,cs),
(392,830,o),
(413,856,o),
(448,856,cs),
(478,856,o),
(497,835,o),
(497,801,cs),
(497,776,o),
(486,741,o),
(458,679,c),
(406,701,l)
);
},
{
closed = 1;
nodes = (
(508,488,o),
(493,474,o),
(493,449,cs),
(493,415,o),
(522,412,o),
(522,380,cs),
(522,351,o),
(499,328,o),
(472,328,cs),
(443,328,o),
(423,355,o),
(423,394,cs),
(423,449,o),
(462,500,o),
(516,525,c),
(533,488,l)
);
},
{
closed = 1;
nodes = (
(818,456,o),
(829,465,o),
(829,484,cs),
(829,519,o),
(794,542,o),
(794,578,cs),
(794,604,o),
(813,624,o),
(840,624,cs),
(872,624,o),
(894,594,o),
(894,550,cs),
(894,495,o),
(860,445,o),
(811,421,c),
(796,456,l)
);
}
);
width = 813;
}
);
note = ampersand.ss01;
},
{
glyphname = aogonek;
kernLeft = a;
kernRight = a;
lastChange = "2024-01-03 18:36:04 +0000";
layers = (
{
hints = (
{
horizontal = 1;
place = (530,-20);
target = down;
type = TopGhost;
},
{
horizontal = 1;
place = (508,32);
type = Stem;
},
{
horizontal = 1;
place = (-10,35);
type = Stem;
},
{
horizontal = 1;
place = (-256,55);
type = Stem;
},
{
place = (162,97);
type = Stem;
},
{
place = (0,92);
type = Stem;
},
{
horizontal = 1;
place = (530,-20);
target = down;
type = TopGhost;
},
{
horizontal = 1;
place = (508,32);
type = Stem;
},
{
horizontal = 1;
place = (-10,59);
type = Stem;
},
{
horizontal = 1;
place = (-10,35);
type = Stem;
},
{
place = (0,92);
type = Stem;
}
);
layerId = m01;
shapes = (
{
closed = 1;
nodes = (
(274,-256,o),
(321,-236,o),
(366,-198,c),
(361,-180,l),
(330,-196,o),
(314,-201,o),
(296,-201,cs),
(271,-201,o),
(259,-192,o),
(259,-172,cs),
(259,-131,o),
(310,-68,o),
(399,2,c),
(441,21,o),
(488,62,o),
(537,124,c),
(517,138,l),
(461,76,o),
(426,49,o),
(406,49,cs),
(396,49,o),
(390,56,o),
(390,68,c),
(288,48,l),
(288,13,o),
(305,-6,o),
(335,-9,c),
(229,-74,o),
(162,-148,o),
(162,-204,cs),
(162,-238,o),
(186,-256,o),
(229,-256,cs)
);
}
);
width = 605;
}
);
note = aogonek;
unicode = 261;
},
{
glyphname = apostrophe;
layers = (
{
hints = (
{
horizontal = 1;
place = (857,-20);
target = down;
type = TopGhost;
},
{
horizontal = 1;
place = (629,21);
target = up;
type = BottomGhost;
},
{
place = (85,54);
type = Stem;
},
{
place = (22,117);
type = Stem;
}
);
layerId = m01;
shapes = (
{
closed = 1;
nodes = (
(83,748,o),
(85,747,o),
(85,738,cs),
(85,716,o),
(50,674,o),
(10,648,c),
(27,629,l),
(98,677,o),
(139,738,o),
(139,793,cs),
(139,834,o),
(119,857,o),
(84,857,cs),
(46,857,o),
(22,838,o),
(22,807,cs),
(22,776,o),
(35,758,o),
(61,752,cs)
);
}
);
width = 149;
}
);
note = apostrophe;
unicode = 700;
},
{
glyphname = aring;
kernLeft = a;
kernRight = a;
lastChange = "2024-01-03 18:36:09 +0000";
layers = (
{
hints = (
{
horizontal = 1;
place = (530,-20);
target = down;
type = TopGhost;
},
{
horizontal = 1;
place = (782,35);
type = Stem;
},
{
horizontal = 1;
place = (651,35);
type = Stem;
},
{
horizontal = 1;
place = (508,32);
type = Stem;
},
{
horizontal = 1;
place = (-10,59);
type = Stem;
},
{
horizontal = 1;
place = (-10,35);
type = Stem;
},
{
place = (529,38);
type = Stem;
},
{
place = (385,38);
type = Stem;
},
{
place = (0,92);
type = Stem;
}
);
layerId = m01;
shapes = (
{
closed = 1;
nodes = (
(429,817,o),
(385,775,o),
(385,726,cs),
(385,683,o),
(418,651,o),
(464,651,cs),
(518,651,o),
(567,695,o),
(567,743,cs),
(567,784,o),
(529,817,o),
(482,817,cs)
);
},
{
closed = 1;
nodes = (
(506,782,o),
(529,763,o),
(529,739,cs),
(529,712,o),
(500,686,o),
(469,686,cs),
(443,686,o),
(423,704,o),
(423,729,cs),
(423,758,o),
(449,782,o),
(479,782,cs)
);
},
{
ref = a;
}
);
width = 604;
}
);
note = aring;
unicode = 229;
},
{
glyphname = aringacute;
kernLeft = a;
kernRight = a;
lastChange = "2024-01-03 18:36:12 +0000";
layers = (
{
hints = (
{
horizontal = 1;
place = (960,-20);
target = down;
type = TopGhost;
},
{
horizontal = 1;
place = (530,-20);
target = down;
type = TopGhost;
},
{
horizontal = 1;
place = (730,35);
type = Stem;
},
{
horizontal = 1;
place = (599,35);
type = Stem;
},
{
horizontal = 1;
place = (508,32);
type = Stem;
},
{
horizontal = 1;
place = (-10,35);
type = Stem;
},
{
place = (0,92);
type = Stem;
}
);
layerId = m01;
shapes = (
{
closed = 1;
nodes = (
(415,765,o),
(371,723,o),
(371,674,cs),
(371,631,o),
(404,599,o),
(450,599,cs),
(504,599,o),
(553,643,o),
(553,691,cs),
(553,732,o),
(515,765,o),
(468,765,cs)
);
},
{
closed = 1;
nodes = (
(492,730,o),
(515,711,o),
(515,687,cs),
(515,660,o),
(486,634,o),
(455,634,cs),
(429,634,o),
(409,652,o),
(409,677,cs),
(409,706,o),
(435,730,o),
(465,730,cs)
);
},
{
closed = 1;
nodes = (
(466,816,l),
(618,860,ls),
(670,875,o),
(686,894,o),
(686,917,cs),
(686,942,o),
(665,960,o),
(643,960,cs),
(627,960,o),
(614,955,o),
(599,944,cs),
(455,837,l)
);
},
{
ref = a;
}
);
width = 604;
}
);
note = aringacute;
unicode = 507;
},
{
glyphname = asciicircum;
layers = (
{
hints = (
{
horizontal = 1;
place = (711,-20);
target = down;
type = TopGhost;
},
{
horizontal = 1;
place = (332,21);
target = up;
type = BottomGhost;
}
);
layerId = m01;
shapes = (
{
closed = 1;
nodes = (
(116,332,l),
(404,649,l),
(408,649,l),
(436,332,l),
(472,332,l),
(445,711,l),
(409,711,l),
(68,332,l)
);
}
);
width = 498;
}
);
note = asciicircum;
unicode = 94;
},
{
glyphname = asciitilde;
layers = (
{
hints = (
{
horizontal = 1;
place = (276,83);
type = Stem;
},
{
horizontal = 1;
place = (223,84);
type = Stem;
}
);
layerId = m01;
shapes = (
{
closed = 1;
nodes = (
(85,223,l),
(103,254,o),
(123,276,o),
(168,276,cs),
(241,276,o),
(296,223,o),
(367,223,cs),
(459,223,o),
(509,307,o),
(525,359,c),
(495,359,l),
(477,328,o),
(456,307,o),
(411,307,cs),
(337,307,o),
(285,359,o),
(213,359,cs),
(121,359,o),
(71,275,o),
(55,223,c)
);
}
);
width = 587;
}
);
note = asciitilde;
unicode = 126;
},
{
glyphname = asterisk;
layers = (
{
hints = (
{
horizontal = 1;
place = (830,-20);
target = down;
type = TopGhost;
},
{
horizontal = 1;
place = (515,233);
type = Stem;
},
{
horizontal = 1;
place = (432,21);
target = up;
type = BottomGhost;
},
{
place = (378,200);
type = Stem;
},
{
place = (378,82);
type = Stem;
},
{
place = (295,240);
type = Stem;
},
{
place = (219,241);
type = Stem;
}
);
layerId = m01;
shapes = (
{
closed = 1;
nodes = (
(404,592,ls),
(436,561,o),
(441,515,o),
(481,515,cs),
(507,515,o),
(535,535,o),
(535,565,cs),
(535,599,o),
(474,593,o),
(424,619,cs),
(399,632,l),
(433,645,ls),
(500,671,o),
(578,660,o),
(578,720,cs),
(578,736,o),
(568,748,o),
(546,748,cs),
(508,748,o),
(485,710,o),
(424,670,cs),
(394,650,l),
(406,682,ls),
(426,736,o),
(459,761,o),
(460,803,cs),
(460,821,o),
(448,830,o),
(433,830,cs),
(407,830,o),
(378,806,o),
(378,754,cs),
(378,742,o),
(379,730,o),
(379,716,cs),
(379,707,o),
(379,696,o),
(377,684,cs),
(372,650,l),
(351,669,ls),
(315,702,o),
(313,747,o),
(273,747,cs),
(243,747,o),
(219,723,o),
(219,696,cs),
(219,661,o),
(281,666,o),
(328,644,cs),
(356,631,l),
(323,618,ls),
(253,590,o),
(177,599,o),
(176,541,cs),
(176,525,o),
(187,514,o),
(208,514,cs),
(248,514,o),
(278,560,o),
(328,591,cs),
(362,612,l),
(349,579,ls),
(330,531,o),
(295,491,o),
(295,458,cs),
(295,442,o),
(305,432,o),
(323,432,cs),
(347,432,o),
(365,449,o),
(371,472,cs),
(378,498,o),
(374,533,o),
(379,578,cs),
(383,612,l)
);
}
);
width = 487;
}
);
note = asterisk;
unicode = 42;
},
{
glyphname = at;
lastChange = "2024-01-03 18:36:25 +0000";
layers = (
{
hints = (
{
horizontal = 1;
place = (565,45);
type = Stem;
},
{
horizontal = 1;
place = (407,43);
type = Stem;
},
{
horizontal = 1;
place = (34,55);
type = Stem;
},
{
horizontal = 1;
place = (21,50);
type = Stem;
},
{
horizontal = 1;
place = (-178,44);
type = Stem;
},
{
place = (778,50);
type = Stem;
},
{
place = (546,36);
type = Stem;
},
{
place = (502,80);
type = Stem;
},
{
place = (238,87);
type = Stem;
},
{
place = (42,91);
type = Stem;
}
);
layerId = m01;
shapes = (
{
closed = 1;
nodes = (
(582,87,o),
(598,71,o),
(630,71,cs),
(700,71,o),
(778,154,o),
(778,309,cs),
(778,466,o),
(650,565,o),
(482,565,cs),
(264,565,o),
(133,376,o),
(133,170,cs),
(133,38,o),
(210,-134,o),
(460,-134,cs),
(542,-134,o),
(597,-118,o),
(637,-94,c),
(648,-123,l),
(590,-158,o),
(520,-178,o),
(426,-178,cs),
(238,-178,o),
(42,-71,o),
(42,169,cs),
(42,437,o),
(257,610,o),
(492,610,cs),
(703,610,o),
(828,466,o),
(828,314,cs),
(828,156,o),
(730,21,o),
(597,21,cs),
(538,21,o),
(502,52,o),
(502,107,c),
(582,119,l)
);
}
);
width = 920;
}
);
note = at;
unicode = 64;
},
{
glyphname = atilde;
kernLeft = a;
kernRight = a;
lastChange = "2024-01-03 18:36:30 +0000";
layers = (
{
hints = (
{
horizontal = 1;
place = (800,-20);
target = down;
type = TopGhost;
},
{
horizontal = 1;
place = (530,-20);
target = down;
type = TopGhost;
},
{
horizontal = 1;
place = (721,76);
type = Stem;
},
{
horizontal = 1;
place = (721,41);
type = Stem;
},
{
horizontal = 1;
place = (682,80);
type = Stem;
},
{
horizontal = 1;
place = (508,32);
type = Stem;
},
{
horizontal = 1;
place = (-10,59);
type = Stem;
},
{
horizontal = 1;
place = (-10,35);
type = Stem;
},
{
place = (0,92);
type = Stem;
}
);
layerId = m01;
shapes = (
{
closed = 1;
nodes = (
(309,683,l),
(320,707,o),
(343,721,o),
(372,721,cs),
(419,721,o),
(461,682,o),
(508,682,cs),
(557,682,o),
(608,731,o),
(631,800,c),
(607,800,l),
(594,775,o),
(573,762,o),
(545,762,cs),
(500,762,o),
(453,797,o),
(407,797,cs),
(358,797,o),
(307,750,o),
(288,683,c)
);
},
{
ref = a;
}
);
width = 604;
}
);
note = atilde;
unicode = 227;
},
{
glyphname = b;
kernRight = b;
lastChange = "2024-01-03 18:37:24 +0000";
layers = (
{
hints = (
{
horizontal = 1;
place = (820,-20);
target = down;
type = TopGhost;
},
{
horizontal = 1;
place = (505,35);
type = Stem;
},
{
horizontal = 1;
place = (-10,35);
type = Stem;
},
{
place = (435,97);
type = Stem;
},
{
place = (34,82);
type = Stem;
}
);
layerId = m01;
shapes = (
{
closed = 1;
nodes = (
(393,820,l),
(201,820,l),
(205,805,l),
(283,793,l),
(382,792,l)
);
}
);
width = 575;
}
);
note = b;
unicode = 98;
},
{
glyphname = breve;
layers = (
{
hints = (
{
horizontal = 1;
place = (651,139);
type = Stem;
},
{
horizontal = 1;
place = (651,74);
type = Stem;
},
{
place = (10,45);
type = Stem;
}
);
layerId = m01;
shapes = (
{
closed = 1;
nodes = (
(20,790,l),
(13,768,o),
(10,750,o),
(10,734,cs),
(10,673,o),
(54,651,o),
(100,651,cs),
(143,651,o),
(221,666,o),
(304,790,c),
(264,790,l),
(222,744,o),
(178,725,o),
(134,725,cs),
(82,725,o),
(56,749,o),
(55,790,c)
);
}
);
width = 314;
}
);
note = breve;
unicode = 728;
},
{
glyphname = breve.cap;
layers = (
{
hints = (
{
horizontal = 1;
place = (821,139);
type = Stem;
},
{
horizontal = 1;
place = (821,74);
type = Stem;
},
{
place = (10,45);
type = Stem;
}
);
layerId = m01;
shapes = (
{
closed = 1;
nodes = (
(20,960,l),
(13,938,o),
(10,920,o),
(10,904,cs),
(10,843,o),
(54,821,o),
(100,821,cs),
(143,821,o),
(221,836,o),
(304,960,c),
(264,960,l),
(222,914,o),
(178,895,o),
(134,895,cs),
(82,895,o),
(56,919,o),
(55,960,c)
);
}
);
width = 314;
}
);
note = breve.cap;
},
{
glyphname = c;
kernLeft = c;
kernRight = c;
lastChange = "2024-01-03 18:37:58 +0000";
layers = (
{
hints = (
{
horizontal = 1;
place = (509,31);
type = Stem;
},
{
horizontal = 1;
place = (409,131);
type = Stem;
},
{
horizontal = 1;
place = (-10,35);
type = Stem;
},
{
place = (10,99);
type = Stem;
}
);
layerId = m01;
shapes = (
{
closed = 1;
nodes = (
(468,540,o),
(520,499,o),
(520,449,cs),
(520,425,o),
(502,409,o),
(476,409,cs),
(450,409,o),
(435,424,o),
(430,457,cs),
(424,494,o),
(412,509,o),
(387,509,c),
(399,540,l)
);
}
);
width = 498;
}
);
note = c;
unicode = 99;
},
{
glyphname = c_p;
kernLeft = c;
kernRight = c_p;
lastChange = "2024-01-03 18:38:37 +0000";
layers = (
{
hints = (
{
horizontal = 1;
place = (780,-20);
target = down;
type = TopGhost;
},
{
horizontal = 1;
place = (680,64);
type = Stem;
},
{
horizontal = 1;
place = (625,30);
type = Stem;
},
{
horizontal = 1;
place = (509,31);
type = Stem;
},
{
horizontal = 1;
place = (409,131);
type = Stem;
},
{
horizontal = 1;
place = (10,29);
type = Stem;
},
{
horizontal = 1;
place = (-10,35);
type = Stem;
},
{
horizontal = 1;
place = (-250,21);
target = up;
type = BottomGhost;
},
{
place = (914,104);
type = Stem;
},
{
place = (803,78);
type = Stem;
},
{
place = (355,56);
type = Stem;
},
{
place = (10,99);
type = Stem;
}
);
layerId = m01;
shapes = (
{
closed = 1;
nodes = (
(373,574,o),
(355,612,o),
(355,652,cs),
(355,709,o),
(393,744,o),
(455,744,cs),
(555,744,o),
(630,655,o),
(730,655,cs),
(756,655,o),
(782,661,o),
(802,671,c),
(803,675,o),
(803,679,o),
(803,683,cs),
(803,721,ls),
(803,759,o),
(819,780,o),
(847,780,cs),
(869,780,o),
(881,766,o),
(881,741,cs),
(881,722,o),
(874,702,o),
(859,683,c),
(793,637,l),
(770,629,o),
(744,625,o),
(717,625,cs),
(618,625,o),
(575,680,o),
(496,680,cs),
(442,680,o),
(411,654,o),
(411,607,cs),
(411,567,o),
(433,550,o),
(473,521,cs),
(500,501,o),
(520,480,o),
(520,451,cs),
(520,424,o),
(502,409,o),
(476,409,cs),
(440,409,o),
(434,437,o),
(430,457,cs),
(423,492,o),
(416,509,o),
(386,509,c),
(409,540,l)
);
},
{
closed = 1;
nodes = (
(660,525,o),
(616,508,o),
(582,486,c),
(590,466,l),
(613,482,o),
(648,494,o),
(695,503,c),
(706,533,l)
);
},
{
closed = 1;
nodes = (
(305,-235,l),
(305,-250,l),
(591,-250,l),
(591,-232,l),
(489,-220,l),
(385,-223,l)
);
}
);
width = 1069;
}
);
note = c_p;
},
{
glyphname = c_t;
kernLeft = c;
kernRight = c_t;
lastChange = "2024-01-03 18:39:24 +0000";
layers = (
{
hints = (
{
horizontal = 1;
place = (780,-20);
target = down;
type = TopGhost;
},
{
horizontal = 1;
place = (540,-20);
target = down;
type = TopGhost;
},
{
horizontal = 1;
place = (680,64);
type = Stem;
},
{
horizontal = 1;
place = (625,30);
type = Stem;
},
{
horizontal = 1;
place = (509,21);
type = Stem;
},
{
horizontal = 1;
place = (409,121);
type = Stem;
},
{
horizontal = 1;
place = (-10,59);
type = Stem;
},
{
horizontal = 1;
place = (-10,35);
type = Stem;
},
{
place = (803,78);
type = Stem;
},
{
place = (517,100);
type = Stem;
},
{
place = (355,56);
type = Stem;
},
{
place = (10,99);
type = Stem;
}
);
layerId = m01;
shapes = (
{
closed = 1;
nodes = (
(874,702,o),
(881,722,o),
(881,741,cs),
(881,766,o),
(869,780,o),
(847,780,cs),
(819,780,o),
(803,759,o),
(803,721,cs),
(803,683,ls),
(803,679,o),
(803,675,o),
(802,671,c),
(782,661,o),
(756,655,o),
(730,655,cs),
(630,655,o),
(555,744,o),
(455,744,cs),
(393,744,o),
(355,709,o),
(355,652,cs),
(355,612,o),
(373,574,o),
(409,540,c),
(386,509,l),
(416,509,o),
(423,492,o),
(430,457,cs),
(434,437,o),
(440,409,o),
(476,409,cs),
(502,409,o),
(520,424,o),
(520,451,cs),
(520,480,o),
(500,501,o),
(473,521,cs),
(433,550,o),
(411,567,o),
(411,607,cs),
(411,654,o),
(442,680,o),
(496,680,cs),
(575,680,o),
(618,625,o),
(717,625,cs),
(744,625,o),
(770,629,o),
(793,637,c),
(859,683,l)
);
},
{
closed = 1;
nodes = (
(517,9,o),
(531,-10,o),
(569,-10,cs),
(628,-10,o),
(698,35,o),
(763,117,c),
(743,129,l),
(687,71,o),
(659,49,o),
(638,49,cs),
(624,49,o),
(617,59,o),
(617,72,c),
(517,50,l)
);
}
);
width = 846;
}
);
note = c_t;
},
{
glyphname = cacute;
kernLeft = c;
kernRight = c;
lastChange = "2024-01-03 18:39:30 +0000";
layers = (
{
hints = (
{
horizontal = 1;
place = (857,-20);
target = down;
type = TopGhost;
},
{
horizontal = 1;
place = (509,31);
type = Stem;
},
{
horizontal = 1;
place = (409,131);
type = Stem;
},
{
horizontal = 1;
place = (-10,35);
type = Stem;
},
{
place = (10,99);
type = Stem;
}
);
layerId = m01;
shapes = (
{
closed = 1;
nodes = (
(365,631,l),
(527,750,ls),
(563,776,o),
(577,795,o),
(577,815,cs),
(577,839,o),
(556,857,o),
(528,857,cs),
(505,857,o),
(485,843,o),
(465,813,cs),
(349,642,l)
);
},
{
ref = c;
}
);
width = 498;
}
);
note = cacute;
unicode = 263;
},
{
glyphname = caron;
layers = (
{
hints = (
{
horizontal = 1;
place = (857,-20);
target = down;
type = TopGhost;
},
{
horizontal = 1;
place = (628,21);
target = up;
type = BottomGhost;
}
);
layerId = m01;
shapes = (
{
closed = 1;
nodes = (
(95,628,o),
(116,637,o),
(134,657,cs),
(305,845,l),
(286,857,l),
(103,716,l),
(33,857,l),
(10,845,l),
(26,657,ls),
(28,638,o),
(37,628,o),
(66,628,cs)
);
}
);
width = 315;
}
);
note = caron;
unicode = 711;
},
{
glyphname = caron.alt;
layers = (
{
hints = (
{
horizontal = 1;
place = (857,-20);
target = down;
type = TopGhost;
},
{
horizontal = 1;
place = (642,21);
target = up;
type = BottomGhost;
}
);
layerId = m01;
shapes = (
{
closed = 1;
nodes = (
(35,642,l),
(135,773,ls),
(149,792,o),
(154,804,o),
(154,817,cs),
(154,839,o),
(143,857,o),
(112,857,cs),
(90,857,o),
(72,844,o),
(62,811,cs),
(10,642,l)
);
}
);
width = 164;
}
);
note = caron.alt;
},
{
glyphname = caron.cap;
layers = (
{
hints = (
{
horizontal = 1;
place = (960,-20);
target = down;
type = TopGhost;
},
{
horizontal = 1;
place = (820,21);
target = up;
type = BottomGhost;
}
);
layerId = m01;
shapes = (
{
closed = 1;
nodes = (
(133,820,o),
(148,830,o),
(172,847,cs),
(304,943,l),
(292,960,l),
(127,892,l),
(36,960,l),
(10,943,l),
(64,847,ls),
(75,828,o),
(85,820,o),
(108,820,cs)
);
}
);
width = 315;
}
);
note = caron.cap;
},
{
glyphname = ccaron;
kernLeft = c;
kernRight = c;
lastChange = "2024-01-03 18:39:34 +0000";
layers = (
{
hints = (
{
horizontal = 1;
place = (857,-20);
target = down;
type = TopGhost;
},
{
horizontal = 1;
place = (540,88);
type = Stem;
},
{
horizontal = 1;
place = (509,31);
type = Stem;
},
{
horizontal = 1;
place = (409,131);
type = Stem;
},
{
horizontal = 1;
place = (-10,35);
type = Stem;
},
{
place = (10,99);
type = Stem;
}
);
layerId = m01;
shapes = (
{
closed = 1;
nodes = (
(452,628,o),
(473,637,o),
(491,657,cs),
(662,845,l),
(643,857,l),
(460,716,l),
(390,857,l),
(367,845,l),
(383,657,ls),
(385,638,o),
(394,628,o),
(423,628,cs)
);
},
{
ref = c;
}
);
width = 498;
}
);
note = ccaron;
unicode = 269;
},
{
glyphname = ccedilla;
kernLeft = c;
kernRight = c;
lastChange = "2024-01-03 18:39:42 +0000";
layers = (
{
hints = (
{
horizontal = 1;
place = (509,31);
type = Stem;
},
{
horizontal = 1;
place = (409,131);
type = Stem;
},
{
horizontal = 1;
place = (-10,35);
type = Stem;
},
{
horizontal = 1;
place = (-122,64);
type = Stem;
},
{
horizontal = 1;
place = (-257,31);
type = Stem;
},
{
place = (147,82);
type = Stem;
},
{
place = (10,99);
type = Stem;
}
);
layerId = m01;
shapes = (
{
closed = 1;
nodes = (
(-11,-233,l),
(0,-248,o),
(25,-257,o),
(59,-257,cs),
(149,-257,o),
(229,-196,o),
(229,-128,cs),
(229,-84,o),
(197,-58,o),
(141,-58,c),
(180,-6,l),
(136,-10,l),
(49,-121,l),
(57,-134,l),
(69,-126,o),
(86,-122,o),
(105,-122,cs),
(134,-122,o),
(147,-133,o),
(147,-156,cs),
(147,-197,o),
(108,-226,o),
(58,-226,cs),
(37,-226,o),
(21,-221,o),
(6,-210,c)
);
},
{
ref = c;
}
);
width = 498;
}
);
note = ccedilla;
unicode = 231;
},
{
glyphname = ccircumflex;
kernLeft = c;
kernRight = c;
lastChange = "2024-01-03 18:39:46 +0000";
layers = (
{
hints = (
{
horizontal = 1;
place = (857,-20);
target = down;
type = TopGhost;
},
{
horizontal = 1;
place = (509,31);
type = Stem;
},
{
horizontal = 1;
place = (409,131);
type = Stem;
},
{
horizontal = 1;
place = (-10,35);
type = Stem;
},
{
place = (10,99);
type = Stem;
}
);
layerId = m01;
shapes = (
{
closed = 1;
nodes = (
(479,857,o),
(458,848,o),
(440,828,cs),
(269,640,l),
(288,628,l),
(471,769,l),
(541,628,l),
(564,640,l),
(548,828,ls),
(546,847,o),
(537,857,o),
(508,857,cs)
);
},
{
ref = c;
}
);
width = 498;
}
);
note = ccircumflex;
unicode = 265;
},
{
glyphname = cdotaccent;
kernLeft = c;
kernRight = c;
lastChange = "2024-01-03 18:39:48 +0000";
layers = (
{
hints = (
{
horizontal = 1;
place = (655,125);
type = Stem;
},
{
horizontal = 1;
place = (509,31);
type = Stem;
},
{
horizontal = 1;
place = (409,131);
type = Stem;
},
{
horizontal = 1;
place = (-10,35);
type = Stem;
},
{
place = (391,129);
type = Stem;
},
{
place = (10,99);
type = Stem;
}
);
layerId = m01;
shapes = (
{
closed = 1;
nodes = (
(426,780,o),
(391,749,o),
(391,712,cs),
(391,678,o),
(415,655,o),
(453,655,cs),
(491,655,o),
(528,689,o),
(528,725,cs),
(528,756,o),
(498,780,o),
(464,780,cs)
);
},
{
ref = c;
}
);
width = 498;
}
);
note = cdotaccent;
unicode = 267;
},
{
glyphname = cedilla;
layers = (
{
hints = (
{
horizontal = 1;
place = (17,-20);
target = down;
type = TopGhost;
},
{
horizontal = 1;
place = (-122,64);
type = Stem;
},
{
horizontal = 1;
place = (-257,31);
type = Stem;
},
{
place = (131,82);
type = Stem;
}
);
layerId = m01;
shapes = (
{
closed = 1;
nodes = (
(-27,-233,l),
(-16,-248,o),
(9,-257,o),
(43,-257,cs),
(133,-257,o),
(213,-196,o),
(213,-128,cs),
(213,-84,o),
(181,-58,o),
(125,-58,c),
(182,17,l),
(142,17,l),
(33,-121,l),
(41,-134,l),
(53,-126,o),
(70,-122,o),
(89,-122,cs),
(118,-122,o),
(131,-133,o),
(131,-156,cs),
(131,-197,o),
(92,-226,o),
(42,-226,cs),
(21,-226,o),
(5,-221,o),
(-10,-210,c)
);
}
);
width = 230;
}
);
note = cedilla;
unicode = 184;
},
{
glyphname = cent;
lastChange = "2024-01-03 18:40:21 +0000";
layers = (
{
hints = (
{
horizontal = 1;
place = (686,-20);
target = down;
type = TopGhost;
},
{
horizontal = 1;
place = (-10,21);
target = up;
type = BottomGhost;
},
{
horizontal = 1;
place = (-150,21);
target = up;
type = BottomGhost;
},
{
place = (15,99);
type = Stem;
}
);
layerId = m01;
shapes = (
{
closed = 1;
nodes = (
(483,686,l),
(438,686,l),
(377,538,l),
(90,-150,l),
(135,-150,l),
(408,506,l),
(422,500,o),
(430,485,o),
(435,457,cs),
(440,424,o),
(455,409,o),
(481,409,cs),
(507,409,o),
(525,425,o),
(525,449,cs),
(525,494,o),
(481,532,o),
(422,539,c)
);
}
);
width = 521;
}
);
note = cent;
unicode = 162;
},
{
glyphname = cent.tnum;
lastChange = "2024-01-03 18:40:32 +0000";
layers = (
{
hints = (
{
horizontal = 1;
place = (686,-20);
target = down;
type = TopGhost;
},
{
horizontal = 1;
place = (-10,21);
target = up;
type = BottomGhost;
},
{
horizontal = 1;
place = (-150,21);
target = up;
type = BottomGhost;
},
{
place = (18,99);
type = Stem;
}
);
layerId = m01;
shapes = (
{
closed = 1;
nodes = (
(486,686,l),
(441,686,l),
(380,538,l),
(93,-150,l),
(138,-150,l),
(411,506,l),
(425,500,o),
(433,485,o),
(438,457,cs),
(443,424,o),
(458,409,o),
(484,409,cs),
(510,409,o),
(528,425,o),
(528,449,cs),
(528,494,o),
(484,532,o),
(425,539,c)
);
}
);
width = 496;
}
);
note = cent.tnum;
},
{
glyphname = circumflex;
layers = (
{
hints = (
{
horizontal = 1;
place = (857,-20);
target = down;
type = TopGhost;
},
{
horizontal = 1;
place = (628,21);
target = up;
type = BottomGhost;
}
);
layerId = m01;
shapes = (
{
closed = 1;
nodes = (
(220,857,o),
(199,848,o),
(181,828,cs),
(10,640,l),
(29,628,l),
(212,769,l),
(282,628,l),
(305,640,l),
(289,828,ls),
(287,847,o),
(278,857,o),
(249,857,cs)
);
}
);
width = 315;
}
);
note = circumflex;
unicode = 710;
},
{
glyphname = circumflex.cap;
layers = (
{
hints = (
{
horizontal = 1;
place = (960,-20);
target = down;
type = TopGhost;
},
{
horizontal = 1;
place = (820,21);
target = up;
type = BottomGhost;
}
);
layerId = m01;
shapes = (
{
closed = 1;
nodes = (
(181,960,o),
(166,950,o),
(142,933,cs),
(10,837,l),
(22,820,l),
(187,888,l),
(278,820,l),
(304,837,l),
(250,933,ls),
(239,952,o),
(229,960,o),
(206,960,cs)
);
}
);
width = 314;
}
);
note = circumflex.cap;
},
{
glyphname = copyright;
lastChange = "2024-01-03 18:40:58 +0000";
layers = (
{
hints = (
{
horizontal = 1;
place = (732,48);
type = Stem;
},
{
horizontal = 1;
place = (604,38);
type = Stem;
},
{
horizontal = 1;
place = (136,38);
type = Stem;
},
{
horizontal = 1;
place = (-10,48);
type = Stem;
},
{
place = (873,48);
type = Stem;
},
{
place = (279,105);
type = Stem;
},
{
place = (127,47);
type = Stem;
}
);
layerId = m01;
shapes = (
{
closed = 1;
nodes = (
(127,168,o),
(305,-10,o),
(524,-10,cs),
(743,-10,o),
(921,168,o),
(921,385,cs),
(921,602,o),
(743,780,o),
(524,780,cs),
(305,780,o),
(127,602,o),
(127,385,cs)
);
},
{
closed = 1;
nodes = (
(174,576,o),
(331,732,o),
(524,732,cs),
(717,732,o),
(873,576,o),
(873,385,cs),
(873,194,o),
(717,38,o),
(524,38,cs),
(331,38,o),
(174,194,o),
(174,385,cs)
);
},
{
closed = 1;
nodes = (
(664,254,o),
(675,282,o),
(682,316,c),
(704,316,l),
(704,137,l),
(689,137,l),
(660,188,l),
(656,203,o),
(651,230,o),
(649,233,c)
);
},
{
closed = 1;
nodes = (
(667,517,o),
(673,502,o),
(680,481,c),
(704,481,l),
(704,640,l),
(689,640,l),
(662,598,l),
(658,598,l),
(655,538,l)
);
}
);
width = 975;
}
);
note = copyright;
unicode = 169;
},
{
glyphname = d;
kernLeft = d;
kernRight = d;
lastChange = "2024-01-03 18:41:25 +0000";
layers = (
{
hints = (
{
horizontal = 1;
place = (820,-20);
target = down;
type = TopGhost;
},
{
horizontal = 1;
place = (508,32);
type = Stem;
},
{
horizontal = 1;
place = (-10,35);
type = Stem;
},
{
place = (93,199);
type = Stem;
},
{
place = (3,90);
type = Stem;
}
);
layerId = m01;
shapes = (
{
closed = 1;
nodes = (
(292,14,o),
(309,-10,o),
(353,-10,cs),
(409,-10,o),
(471,36,o),
(536,124,c),
(516,138,l),
(461,76,o),
(431,49,o),
(411,49,cs),
(401,49,o),
(393,54,o),
(393,68,cs),
(393,76,o),
(395,85,o),
(404,109,c),
(292,62,l)
);
},
{
closed = 1;
nodes = (
(672,820,l),
(481,820,l),
(486,805,l),
(563,793,l),
(660,787,l)
);
}
);
width = 603;
}
);
note = d;
unicode = 100;
},
{
glyphname = dcaron;
kernLeft = d;
kernRight = d;
lastChange = "2024-01-03 18:41:34 +0000";
layers = (
{
hints = (
{
horizontal = 1;
place = (857,-20);
target = down;
type = TopGhost;
},
{
horizontal = 1;
place = (820,-20);
target = down;
type = TopGhost;
},
{
horizontal = 1;
place = (508,32);
type = Stem;
},
{
horizontal = 1;
place = (-10,35);
type = Stem;
},
{
place = (3,90);
type = Stem;
}
);
layerId = m01;
shapes = (
{
closed = 1;
nodes = (
(730,642,l),
(830,773,ls),
(844,792,o),
(849,804,o),
(849,817,cs),
(849,839,o),
(838,857,o),
(807,857,cs),
(785,857,o),
(767,844,o),
(757,811,cs),
(705,642,l)
);
},
{
ref = d;
}
);
width = 604;
}
);
note = dcaron;
unicode = 271;
},
{
glyphname = dcroat;
kernLeft = d;
kernRight = d;
lastChange = "2024-01-03 18:41:38 +0000";
layers = (
{
hints = (
{
horizontal = 1;
place = (662,158);
type = Stem;
},
{
horizontal = 1;
place = (662,42);
type = Stem;
},
{
horizontal = 1;
place = (508,32);
type = Stem;
},
{
horizontal = 1;
place = (-10,59);
type = Stem;
},
{
horizontal = 1;
place = (-10,35);
type = Stem;
},
{
place = (93,199);
type = Stem;
},
{
place = (3,90);
type = Stem;
}
);
layerId = m01;
shapes = (
{
closed = 1;
nodes = (
(528,704,l),
(419,704,l),
(402,662,l),
(512,662,l),
(612,662,l),
(688,662,l),
(706,704,l),
(628,704,l)
);
},
{
ref = d;
}
);
width = 603;
}
);
note = dcroat;
unicode = 273;
},
{
glyphname = ddotbelow;
kernLeft = d;
kernRight = d;
lastChange = "2024-01-03 18:41:41 +0000";
layers = (
{
hints = (
{
horizontal = 1;
place = (820,-20);
target = down;
type = TopGhost;
},
{
horizontal = 1;
place = (508,32);
type = Stem;
},
{
horizontal = 1;
place = (-10,35);
type = Stem;
},
{
horizontal = 1;
place = (-256,125);
type = Stem;
},
{
place = (108,137);
type = Stem;
},
{
place = (93,199);
type = Stem;
},
{
place = (3,90);
type = Stem;
}
);
layerId = m01;
shapes = (
{
closed = 1;
nodes = (
(143,-131,o),
(108,-162,o),
(108,-199,cs),
(108,-233,o),
(132,-256,o),
(170,-256,cs),
(208,-256,o),
(245,-222,o),
(245,-186,cs),
(245,-155,o),
(215,-131,o),
(181,-131,cs)
);
},
{
ref = d;
}
);
width = 603;
}
);
note = ddotbelow;
unicode = 7693;
},
{
glyphname = dieresis;
layers = (
{
hints = (
{
horizontal = 1;
place = (669,111);
type = Stem;
},
{
place = (185,122);
type = Stem;
},
{
place = (10,122);
type = Stem;
}
);
layerId = m01;
shapes = (
{
closed = 1;
nodes = (
(41,780,o),
(10,752,o),
(10,720,cs),
(10,689,o),
(31,669,o),
(65,669,cs),
(99,669,o),
(132,699,o),
(132,731,cs),
(132,759,o),
(105,780,o),
(75,780,cs)
);
},
{
closed = 1;
nodes = (
(216,780,o),
(185,752,o),
(185,720,cs),
(185,689,o),
(206,669,o),
(240,669,cs),
(274,669,o),
(307,699,o),
(307,731,cs),
(307,759,o),
(280,780,o),
(250,780,cs)
);
}
);
width = 317;
}
);
note = dieresis;
unicode = 168;
},
{
glyphname = dieresis.cap;
layers = (
{
hints = (
{
horizontal = 1;
place = (849,111);
type = Stem;
},
{
place = (185,122);
type = Stem;
},
{
place = (10,122);
type = Stem;
}
);
layerId = m01;
shapes = (
{
closed = 1;
nodes = (
(41,960,o),
(10,932,o),
(10,900,cs),
(10,869,o),
(31,849,o),
(65,849,cs),
(99,849,o),
(132,879,o),
(132,911,cs),
(132,939,o),
(105,960,o),
(75,960,cs)
);
},
{
closed = 1;
nodes = (
(216,960,o),
(185,932,o),
(185,900,cs),
(185,869,o),
(206,849,o),
(240,849,cs),
(274,849,o),
(307,879,o),
(307,911,cs),
(307,939,o),
(280,960,o),
(250,960,cs)
);
}
);
width = 317;
}
);
note = dieresis.cap;
},
{
glyphname = dollar;
lastChange = "2024-01-03 18:42:05 +0000";
layers = (
{
hints = (
{
horizontal = 1;
place = (912,-20);
target = down;
type = TopGhost;
},
{
horizontal = 1;
place = (779,-20);
target = down;
type = TopGhost;
},
{
horizontal = 1;
place = (740,40);
type = Stem;
},
{
horizontal = 1;
place = (-10,40);
type = Stem;
},
{
horizontal = 1;
place = (-150,21);
target = up;
type = BottomGhost;
},
{
place = (371,108);
type = Stem;
},
{
place = (182,105);
type = Stem;
}
);
layerId = m01;
shapes = (
{
closed = 1;
nodes = (
(560,912,l),
(515,912,l),
(162,36,l),
(132,47,o),
(119,75,o),
(111,135,cs),
(105,180,o),
(87,202,o),
(56,202,cs),
(23,202,o),
(3,179,o),
(3,141,cs),
(3,69,o),
(61,12,o),
(145,-5,c),
(87,-150,l),
(132,-150,l),
(485,728,l),
(507,714,o),
(518,686,o),
(525,635,cs),
(531,590,o),
(549,568,o),
(580,568,cs),
(613,568,o),
(633,591,o),
(633,629,cs),
(633,697,o),
(581,752,o),
(503,772,c)
);
}
);
width = 577;
}
);
note = dollar;
unicode = 36;
},
{
glyphname = dollar.tnum;
lastChange = "2024-01-03 18:42:13 +0000";
layers = (
{
hints = (
{
horizontal = 1;
place = (912,-20);
target = down;
type = TopGhost;
},
{
horizontal = 1;
place = (779,-20);
target = down;
type = TopGhost;
},
{
horizontal = 1;
place = (740,40);
type = Stem;
},
{
horizontal = 1;
place = (-10,40);
type = Stem;
},
{
horizontal = 1;
place = (-150,21);
target = up;
type = BottomGhost;
},
{
place = (365,108);
type = Stem;
},
{
place = (176,105);
type = Stem;
}
);
layerId = m01;
shapes = (
{
closed = 1;
nodes = (
(554,912,l),
(509,912,l),
(455,779,l),
(156,36,l),
(126,47,o),
(113,75,o),
(105,135,cs),
(99,180,o),
(81,202,o),
(50,202,cs),
(17,202,o),
(-3,179,o),
(-3,141,cs),
(-3,69,o),
(55,12,o),
(139,-5,c),
(81,-150,l),
(126,-150,l),
(479,728,l),
(501,714,o),
(512,686,o),
(519,635,cs),
(525,590,o),
(543,568,o),
(574,568,cs),
(607,568,o),
(627,591,o),
(627,629,cs),
(627,697,o),
(575,752,o),
(497,772,c)
);
}
);
width = 586;
}
);
note = dollar.tnum;
},
{
glyphname = dotaccent;
layers = (
{
hints = (
{
horizontal = 1;
place = (655,125);
type = Stem;
},
{
place = (10,137);
type = Stem;
}
);
layerId = m01;
shapes = (
{
closed = 1;
nodes = (
(45,780,o),
(10,749,o),
(10,712,cs),
(10,678,o),
(34,655,o),
(72,655,cs),
(110,655,o),
(147,689,o),
(147,725,cs),
(147,756,o),
(117,780,o),
(83,780,cs)
);
}
);
width = 157;
}
);
note = dotaccent;
unicode = 729;
},
{
glyphname = dotaccent.cap;
layers = (
{
hints = (
{
horizontal = 1;
place = (835,125);
type = Stem;
},
{
place = (10,137);
type = Stem;
}
);
layerId = m01;
shapes = (
{
closed = 1;
nodes = (
(45,960,o),
(10,929,o),
(10,892,cs),
(10,858,o),
(34,835,o),
(72,835,cs),
(110,835,o),
(147,869,o),
(147,905,cs),
(147,936,o),
(117,960,o),
(83,960,cs)
);
}
);
width = 157;
}
);
note = dotaccent.cap;
},
{
glyphname = dotbelow;
layers = (
{
hints = (
{
horizontal = 1;
place = (-256,125);
type = Stem;
},
{
place = (10,137);
type = Stem;
}
);
layerId = m01;
shapes = (
{
closed = 1;
nodes = (
(45,-131,o),
(10,-162,o),
(10,-199,cs),
(10,-233,o),
(34,-256,o),
(72,-256,cs),
(110,-256,o),
(147,-222,o),
(147,-186,cs),
(147,-155,o),
(117,-131,o),
(83,-131,cs)
);
}
);
width = 149;
}
);
note = dotbelow;
},
{
glyphname = dotlessi;
kernLeft = dotlessi;
kernRight = dotlessi;
lastChange = "2024-01-03 18:42:37 +0000";
layers = (
{
hints = (
{
horizontal = 1;
place = (495,45);
type = Stem;
},
{
horizontal = 1;
place = (-10,59);
type = Stem;
}
);
layerId = m01;
shapes = (
{
closed = 1;
nodes = (
(23,8,o),
(49,-10,o),
(88,-10,cs),
(138,-10,o),
(213,38,o),
(275,117,c),
(255,129,l),
(190,65,o),
(169,49,o),
(150,49,cs),
(138,49,o),
(130,57,o),
(130,68,cs),
(130,72,o),
(131,76,o),
(133,81,c),
(23,46,l)
);
},
{
closed = 1;
nodes = (
(292,523,o),
(265,540,o),
(227,540,cs),
(174,540,o),
(109,506,o),
(64,451,c),
(87,433,l),
(117,471,o),
(151,495,o),
(175,495,cs),
(184,495,o),
(188,492,o),
(188,486,cs),
(188,482,o),
(187,476,o),
(183,467,c),
(292,491,l)
);
}
);
width = 340;
}
);
note = dotlessi;
unicode = 305;
},
{
glyphname = dotlessj;
kernLeft = dotlessj;
kernRight = dotlessj;
lastChange = "2024-01-03 20:52:31 +0000";
layers = (
{
hints = (
{
horizontal = 1;
place = (492,48);
type = Stem;
},
{
horizontal = 1;
place = (-256,124);
type = Stem;
},
{
horizontal = 1;
place = (-256,35);
type = Stem;
},
{
place = (177,107);
type = Stem;
}
);
layerId = m01;
shapes = (
{
closed = 1;
nodes = (
(-209,-221,o),
(-175,-132,o),
(-245,-132,cs),
(-276,-132,o),
(-291,-149,o),
(-291,-179,cs),
(-291,-226,o),
(-242,-256,o),
(-174,-256,c),
(-145,-221,l)
);
},
{
closed = 1;
nodes = (
(284,522,o),
(263,540,o),
(221,540,cs),
(167,540,o),
(107,508,o),
(59,451,c),
(80,433,l),
(110,471,o),
(139,492,o),
(163,492,cs),
(173,492,o),
(177,489,o),
(177,479,c),
(284,492,l)
);
}
);
width = 306;
}
);
note = dotlessj;
unicode = 567;
},
{
glyphname = e_t;
kernLeft = e;
kernRight = c_t;
lastChange = "2024-01-03 20:53:25 +0000";
layers = (
{
hints = (
{
horizontal = 1;
place = (780,-20);
target = down;
type = TopGhost;
},
{
horizontal = 1;
place = (530,-20);
target = down;
type = TopGhost;
},
{
horizontal = 1;
place = (680,64);
type = Stem;
},
{
horizontal = 1;
place = (625,30);
type = Stem;
},
{
horizontal = 1;
place = (498,42);
type = Stem;
},
{
horizontal = 1;
place = (-10,59);
type = Stem;
},
{
horizontal = 1;
place = (-10,35);
type = Stem;
},
{
place = (796,78);
type = Stem;
},
{
place = (510,100);
type = Stem;
},
{
place = (414,80);
type = Stem;
},
{
place = (348,56);
type = Stem;
},
{
place = (0,97);
type = Stem;
}
);
layerId = m01;
shapes = (
{
closed = 1;
locked = 1;
nodes = (
(867,702,o),
(874,722,o),
(874,741,cs),
(874,766,o),
(862,780,o),
(840,780,cs),
(812,780,o),
(796,759,o),
(796,721,cs),
(796,683,ls),
(796,679,o),
(796,675,o),
(795,671,c),
(775,661,o),
(749,655,o),
(723,655,cs),
(623,655,o),
(548,744,o),
(448,744,cs),
(386,744,o),
(348,709,o),
(348,652,cs),
(348,612,o),
(366,574,o),
(401,540,c),
(457,528,l),
(432,545,o),
(404,565,o),
(404,609,cs),
(404,655,o),
(434,680,o),
(488,680,cs),
(569,680,o),
(610,625,o),
(710,625,cs),
(737,625,o),
(763,629,o),
(786,637,c),
(812,648,o),
(834,664,o),
(852,683,c)
);
},
{
closed = 1;
nodes = (
(610,59,o),
(617,49,o),
(631,49,cs),
(652,49,o),
(680,71,o),
(736,129,c),
(756,117,l),
(691,35,o),
(621,-10,o),
(562,-10,cs),
(524,-10,o),
(510,9,o),
(510,50,c),
(610,72,l)
);
}
);
width = 839;
}
);
note = e_t;
},
{
glyphname = eacute;
kernLeft = e;
kernRight = ae;
lastChange = "2024-01-03 20:53:31 +0000";
layers = (
{
hints = (
{
horizontal = 1;
place = (857,-20);
target = down;
type = TopGhost;
},
{
horizontal = 1;
place = (509,31);
type = Stem;
},
{
horizontal = 1;
place = (-10,35);
type = Stem;
},
{
place = (414,80);
type = Stem;
},
{
place = (0,97);
type = Stem;
}
);
layerId = m01;
shapes = (
{
closed = 1;
nodes = (
(405,631,l),
(567,750,ls),
(603,776,o),
(617,795,o),
(617,815,cs),
(617,839,o),
(596,857,o),
(568,857,cs),
(545,857,o),
(525,843,o),
(505,813,cs),
(389,642,l)
);
}
);
width = 485;
}
);
note = eacute;
unicode = 233;
},
{
glyphname = ebreve;
kernLeft = e;
kernRight = ae;
lastChange = "2024-01-03 20:53:32 +0000";
layers = (
{
hints = (
{
horizontal = 1;
place = (651,139);
type = Stem;
},
{
horizontal = 1;
place = (651,74);
type = Stem;
},
{
horizontal = 1;
place = (509,31);
type = Stem;
},
{
horizontal = 1;
place = (-10,35);
type = Stem;
},
{
place = (414,80);
type = Stem;
},
{
place = (332,45);
type = Stem;
},
{
place = (0,97);
type = Stem;
}
);
layerId = m01;
shapes = (
{
closed = 1;
nodes = (
(342,790,l),
(335,768,o),
(332,750,o),
(332,734,cs),
(332,673,o),
(376,651,o),
(422,651,cs),
(465,651,o),
(543,666,o),
(626,790,c),
(586,790,l),
(544,744,o),
(500,725,o),
(456,725,cs),
(404,725,o),
(378,749,o),
(377,790,c)
);
}
);
width = 485;
}
);
note = ebreve;
unicode = 277;
},
{
glyphname = ecaron;
kernLeft = e;
kernRight = ae;
lastChange = "2024-01-03 20:53:34 +0000";
layers = (
{
hints = (
{
horizontal = 1;
place = (857,-20);
target = down;
type = TopGhost;
},
{
horizontal = 1;
place = (540,88);
type = Stem;
},
{
horizontal = 1;
place = (509,31);
type = Stem;
},
{
horizontal = 1;
place = (-10,35);
type = Stem;
},
{
place = (414,80);
type = Stem;
},
{
place = (0,97);
type = Stem;
}
);
layerId = m01;
shapes = (
{
closed = 1;
nodes = (
(441,628,o),
(462,637,o),
(480,657,cs),
(651,845,l),
(632,857,l),
(449,716,l),
(379,857,l),
(356,845,l),
(372,657,ls),
(374,638,o),
(383,628,o),
(412,628,cs)
);
}
);
width = 485;
}
);
note = ecaron;
unicode = 283;
},
{
glyphname = ecircumflex;
kernLeft = e;
kernRight = ae;
lastChange = "2024-01-03 20:53:35 +0000";
layers = (
{
hints = (
{
horizontal = 1;
place = (857,-20);
target = down;
type = TopGhost;
},
{
horizontal = 1;
place = (509,31);
type = Stem;
},
{
horizontal = 1;
place = (-10,35);
type = Stem;
},
{
place = (414,80);
type = Stem;
},
{
place = (0,97);
type = Stem;
}
);
layerId = m01;
shapes = (
{
closed = 1;
nodes = (
(479,857,o),
(458,848,o),
(440,828,cs),
(269,640,l),
(288,628,l),
(471,769,l),
(541,628,l),
(564,640,l),
(548,828,ls),
(546,847,o),
(537,857,o),
(508,857,cs)
);
}
);
width = 485;
}
);
note = ecircumflex;
unicode = 234;
},
{
glyphname = edieresis;
kernLeft = e;
kernRight = ae;
lastChange = "2024-01-03 20:53:37 +0000";
layers = (
{
hints = (
{
horizontal = 1;
place = (669,111);
type = Stem;
},
{
horizontal = 1;
place = (509,31);
type = Stem;
},
{
horizontal = 1;
place = (-10,35);
type = Stem;
},
{
place = (484,122);
type = Stem;
},
{
place = (414,80);
type = Stem;
},
{
place = (309,122);
type = Stem;
},
{
place = (0,97);
type = Stem;
}
);
layerId = m01;
shapes = (
{
closed = 1;
nodes = (
(340,780,o),
(309,752,o),
(309,720,cs),
(309,689,o),
(330,669,o),
(364,669,cs),
(398,669,o),
(431,699,o),
(431,731,cs),
(431,759,o),
(404,780,o),
(374,780,cs)
);
},
{
closed = 1;
nodes = (
(515,780,o),
(484,752,o),
(484,720,cs),
(484,689,o),
(505,669,o),
(539,669,cs),
(573,669,o),
(606,699,o),
(606,731,cs),
(606,759,o),
(579,780,o),
(549,780,cs)
);
}
);
width = 485;
}
);
note = edieresis;
unicode = 235;
},
{
glyphname = edotaccent;
kernLeft = e;
kernRight = ae;
lastChange = "2024-01-03 20:53:39 +0000";
layers = (
{
hints = (
{
horizontal = 1;
place = (655,125);
type = Stem;
},
{
horizontal = 1;
place = (509,31);
type = Stem;
},
{
horizontal = 1;
place = (-10,35);
type = Stem;
},
{
place = (414,80);
type = Stem;
},
{
place = (361,133);
type = Stem;
},
{
place = (0,97);
type = Stem;
}
);
layerId = m01;
shapes = (
{
closed = 1;
nodes = (
(396,780,o),
(361,749,o),
(361,712,cs),
(361,678,o),
(385,655,o),
(423,655,cs),
(461,655,o),
(498,689,o),
(498,725,cs),
(498,756,o),
(468,780,o),
(434,780,cs)
);
}
);
width = 485;
}
);
note = edotaccent;
unicode = 279;
},
{
glyphname = edotbelow;
kernLeft = e;
kernRight = ae;
lastChange = "2024-01-03 20:53:40 +0000";
layers = (
{
hints = (
{
horizontal = 1;
place = (509,31);
type = Stem;
},
{
horizontal = 1;
place = (-10,35);
type = Stem;
},
{
horizontal = 1;
place = (-256,125);
type = Stem;
},
{
place = (414,80);
type = Stem;
},
{
place = (0,126);
type = Stem;
},
{
place = (0,97);
type = Stem;
}
);
layerId = m01;
shapes = (
{
closed = 1;
nodes = (
(24,-131,o),
(-11,-162,o),
(-11,-199,cs),
(-11,-233,o),
(13,-256,o),
(51,-256,cs),
(89,-256,o),
(126,-222,o),
(126,-186,cs),
(126,-155,o),
(96,-131,o),
(62,-131,cs)
);
}
);
width = 485;
}
);
note = edotbelow;
unicode = 7865;
},
{
glyphname = egrave;
kernLeft = e;
kernRight = ae;
lastChange = "2024-01-03 20:53:42 +0000";
layers = (
{
hints = (
{
horizontal = 1;
place = (857,-20);
target = down;
type = TopGhost;
},
{
horizontal = 1;
place = (509,31);
type = Stem;
},
{
horizontal = 1;
place = (-10,35);
type = Stem;
},
{
place = (414,80);
type = Stem;
},
{
place = (374,92);
type = Stem;
},
{
place = (0,97);
type = Stem;
}
);
layerId = m01;
shapes = (
{
closed = 1;
nodes = (
(460,642,l),
(472,792,ls),
(472,797,o),
(473,802,o),
(473,815,cs),
(473,843,o),
(458,857,o),
(426,857,cs),
(399,857,o),
(374,838,o),
(374,811,cs),
(374,794,o),
(377,781,o),
(387,755,cs),
(432,636,l)
);
}
);
width = 485;
}
);
note = egrave;
unicode = 232;
},
{
glyphname = emacron;
kernLeft = e;
kernRight = ae;
lastChange = "2024-01-03 20:54:02 +0000";
layers = (
{
hints = (
{
horizontal = 1;
place = (709,71);
type = Stem;
},
{
horizontal = 1;
place = (509,31);
type = Stem;
},
{
horizontal = 1;
place = (-10,35);
type = Stem;
},
{
place = (414,80);
type = Stem;
},
{
place = (0,97);
type = Stem;
}
);
layerId = m01;
shapes = (
{
closed = 1;
nodes = (
(573,709,l),
(602,780,l),
(315,780,l),
(287,709,l)
);
}
);
width = 485;
}
);
note = emacron;
unicode = 275;
},
{
glyphname = eng;
kernLeft = eng;
lastChange = "2024-01-03 20:54:47 +0000";
layers = (
{
hints = (
{
horizontal = 1;
place = (540,-20);
target = down;
type = TopGhost;
},
{
horizontal = 1;
place = (505,34);
type = Stem;
},
{
horizontal = 1;
place = (-256,124);
type = Stem;
},
{
horizontal = 1;
place = (-256,35);
type = Stem;
},
{
horizontal = 1;
place = (0,21);
target = up;
type = BottomGhost;
},
{
place = (483,87);
type = Stem;
}
);
layerId = m01;
shapes = (
{
closed = 1;
nodes = (
(80,-221,o),
(111,-132,o),
(42,-132,cs),
(11,-132,o),
(-4,-150,o),
(-4,-177,cs),
(-4,-227,o),
(45,-256,o),
(113,-256,c),
(140,-221,l)
);
},
{
closed = 1;
nodes = (
(294,528,o),
(280,540,o),
(246,540,cs),
(182,540,o),
(108,496,o),
(57,426,c),
(77,410,l),
(118,461,o),
(160,495,o),
(183,495,cs),
(193,495,o),
(197,488,o),
(197,481,c),
(294,500,l)
);
}
);
width = 597;
}
);
note = eng;
unicode = 331;
},
{
glyphname = eogonek;
kernLeft = e;
kernRight = ae;
lastChange = "2024-01-03 20:54:56 +0000";
layers = (
{
hints = (
{
horizontal = 1;
place = (509,31);
type = Stem;
},
{
horizontal = 1;
place = (-10,35);
type = Stem;
},
{
horizontal = 1;
place = (-256,55);
type = Stem;
},
{
horizontal = 1;
place = (-9,21);
target = up;
type = BottomGhost;
},
{
place = (414,80);
type = Stem;
},
{
place = (0,97);
type = Stem;
},
{
place = (-24,97);
type = Stem;
}
);
layerId = m01;
shapes = (
{
closed = 1;
nodes = (
(175,-180,l),
(144,-196,o),
(128,-201,o),
(110,-201,cs),
(85,-201,o),
(73,-192,o),
(73,-172,cs),
(73,-130,o),
(115,-61,o),
(219,1,c),
(151,-9,l),
(43,-73,o),
(-24,-148,o),
(-24,-204,cs),
(-24,-238,o),
(0,-256,o),
(43,-256,cs),
(88,-256,o),
(135,-236,o),
(180,-198,c)
);
}
);
width = 485;
}
);
note = eogonek;
unicode = 281;
},
{
glyphname = eth;
lastChange = "2024-01-04 14:41:17 +0000";
layers = (
{
hints = (
{
horizontal = 1;
place = (819,-20);
target = down;
type = TopGhost;
},
{
horizontal = 1;
place = (496,44);
type = Stem;
},
{
horizontal = 1;
place = (-10,35);
type = Stem;
},
{
place = (441,74);
type = Stem;
},
{
place = (421,94);
type = Stem;
},
{
place = (13,91);
type = Stem;
}
);
layerId = m01;
shapes = (
{
closed = 1;
nodes = (
(443,688,l),
(572,770,l),
(550,802,l),
(420,720,l),
(379,693,l),
(244,606,l),
(265,573,l),
(395,657,l)
);
}
);
width = 555;
}
);
note = eth;
unicode = 240;
},
{
glyphname = etilde;
kernLeft = e;
kernRight = ae;
lastChange = "2024-01-04 14:41:19 +0000";
layers = (
{
hints = (
{
horizontal = 1;
place = (800,-20);
target = down;
type = TopGhost;
},
{
horizontal = 1;
place = (721,76);
type = Stem;
},
{
horizontal = 1;
place = (721,41);
type = Stem;
},
{
horizontal = 1;
place = (682,80);
type = Stem;
},
{
horizontal = 1;
place = (509,31);
type = Stem;
},
{
horizontal = 1;
place = (-10,35);
type = Stem;
},
{
place = (414,80);
type = Stem;
},
{
place = (0,97);
type = Stem;
}
);
layerId = m01;
shapes = (
{
closed = 1;
nodes = (
(272,683,l),
(283,707,o),
(306,721,o),
(335,721,cs),
(382,721,o),
(424,682,o),
(471,682,cs),
(520,682,o),
(571,731,o),
(594,800,c),
(570,800,l),
(557,775,o),
(536,762,o),
(508,762,cs),
(463,762,o),
(416,797,o),
(370,797,cs),
(321,797,o),
(270,750,o),
(251,683,c)
);
}
);
width = 485;
}
);
note = etilde;
unicode = 7869;
},
{
glyphname = f;
kernLeft = f;
kernRight = f;
lastChange = "2024-01-04 14:41:45 +0000";
layers = (
{
hints = (
{
horizontal = 1;
place = (803,27);
type = Stem;
},
{
horizontal = 1;
place = (498,32);
type = Stem;
},
{
horizontal = 1;
place = (-256,124);
type = Stem;
},
{
horizontal = 1;
place = (-256,35);
type = Stem;
},
{
place = (563,88);
type = Stem;
}
);
layerId = m01;
shapes = (
{
closed = 1;
nodes = (
(-256,-221,o),
(-227,-132,o),
(-295,-132,cs),
(-324,-132,o),
(-342,-147,o),
(-342,-173,cs),
(-342,-222,o),
(-300,-256,o),
(-233,-256,c),
(-203,-221,l)
);
},
{
closed = 1;
nodes = (
(589,830,o),
(651,785,o),
(651,726,cs),
(651,697,o),
(633,678,o),
(603,678,cs),
(577,678,o),
(556,696,o),
(556,722,cs),
(556,741,o),
(563,753,o),
(563,768,cs),
(563,790,o),
(542,803,o),
(512,803,c),
(517,830,l)
);
},
{
closed = 1;
nodes = (
(107,530,l),
(95,498,l),
(390,498,l),
(403,530,l)
);
}
);
width = 324;
}
);
note = f;
unicode = 102;
},
{
glyphname = f_b;
kernLeft = f;
kernRight = b;
lastChange = "2024-01-04 14:42:12 +0000";
layers = (
{
hints = (
{
horizontal = 1;
place = (540,-20);
target = down;
type = TopGhost;
},
{
horizontal = 1;
place = (803,27);
type = Stem;
},
{
horizontal = 1;
place = (498,32);
type = Stem;
},
{
horizontal = 1;
place = (-10,35);
type = Stem;
},
{
horizontal = 1;
place = (-256,124);
type = Stem;
},
{
horizontal = 1;
place = (-256,35);
type = Stem;
},
{
place = (774,97);
type = Stem;
},
{
place = (373,82);
type = Stem;
}
);
layerId = m01;
shapes = (
{
closed = 1;
nodes = (
(-256,-221,o),
(-226,-132,o),
(-296,-132,cs),
(-326,-132,o),
(-342,-148,o),
(-342,-176,cs),
(-342,-223,o),
(-297,-256,o),
(-231,-256,c),
(-203,-221,l)
);
},
{
closed = 1;
nodes = (
(107,530,l),
(95,498,l),
(390,498,l),
(403,530,l)
);
}
);
width = 914;
}
);
note = f_b;
},
{
glyphname = f_f;
kernLeft = f;
kernRight = f;
lastChange = "2024-01-04 14:50:43 +0000";
layers = (
{
hints = (
{
horizontal = 1;
place = (803,27);
type = Stem;
},
{
horizontal = 1;
place = (751,29);
type = Stem;
},
{
horizontal = 1;
place = (678,152);
type = Stem;
},
{
horizontal = 1;
place = (498,32);
type = Stem;
},
{
horizontal = 1;
place = (-256,124);
type = Stem;
},
{
horizontal = 1;
place = (-256,35);
type = Stem;
},
{
place = (898,88);
type = Stem;
}
);
layerId = m01;
shapes = (
{
closed = 1;
nodes = (
(-256,-221,o),
(-226,-132,o),
(-296,-132,cs),
(-326,-132,o),
(-342,-148,o),
(-342,-176,cs),
(-342,-223,o),
(-297,-256,o),
(-231,-256,c),
(-203,-221,l)
);
},
{
closed = 1;
nodes = (
(114,-221,o),
(136,-127,o),
(79,-127,cs),
(52,-127,o),
(33,-147,o),
(33,-176,cs),
(33,-224,o),
(74,-256,o),
(134,-256,cs),
(194,-256,o),
(170,-216,o),
(162,-221,c)
);
},
{
closed = 1;
nodes = (
(735,498,l),
(748,530,l),
(107,530,l),
(95,498,l)
);
},
{
closed = 1;
nodes = (
(925,830,o),
(986,785,o),
(986,728,cs),
(986,697,o),
(968,678,o),
(940,678,cs),
(911,678,o),
(891,697,o),
(891,723,cs),
(891,739,o),
(898,754,o),
(898,767,cs),
(898,789,o),
(878,803,o),
(848,803,c),
(848,830,l)
);
}
);
width = 669;
}
);
note = f_f;
unicode = 64256;
},
{
glyphname = f_f_b;
kernLeft = f;
kernRight = b;
lastChange = "2024-01-04 14:52:39 +0000";
layers = (
{
hints = (
{
horizontal = 1;
place = (540,-20);
target = down;
type = TopGhost;
},
{
horizontal = 1;
place = (803,27);
type = Stem;
},
{
horizontal = 1;
place = (751,29);
type = Stem;
},
{
horizontal = 1;
place = (498,32);
type = Stem;
},
{
horizontal = 1;
place = (-10,35);
type = Stem;
},
{
horizontal = 1;
place = (-256,124);
type = Stem;
},
{
horizontal = 1;
place = (-256,35);
type = Stem;
},
{
place = (1119,97);
type = Stem;
},
{
place = (718,82);
type = Stem;
}
);
layerId = m01;
shapes = (
{
closed = 1;
nodes = (
(89,-221,o),
(119,-132,o),
(49,-132,cs),
(19,-132,o),
(3,-148,o),
(3,-176,cs),
(3,-223,o),
(48,-256,o),
(114,-256,c),
(142,-221,l)
);
},
{
closed = 1;
nodes = (
(-256,-221,o),
(-226,-132,o),
(-296,-132,cs),
(-326,-132,o),
(-342,-148,o),
(-342,-176,cs),
(-342,-223,o),
(-297,-256,o),
(-231,-256,c),
(-203,-221,l)
);
},
{
closed = 1;
nodes = (
(107,530,l),
(95,498,l),
(735,498,l),
(748,530,l)
);
}
);
width = 1259;
}
);
note = f_f_b;
},
{
glyphname = f_f_h;
kernLeft = f;
kernRight = f_f_h;
lastChange = "2024-01-04 18:00:29 +0000";
layers = (
{
hints = (
{
horizontal = 1;
place = (539,-20);
target = down;
type = TopGhost;
},
{
horizontal = 1;
place = (803,27);
type = Stem;
},
{
horizontal = 1;
place = (751,29);
type = Stem;
},
{
horizontal = 1;
place = (498,32);
type = Stem;
},
{
horizontal = 1;
place = (-10,59);
type = Stem;
},
{
horizontal = 1;
place = (-256,124);
type = Stem;
},
{
horizontal = 1;
place = (-256,35);
type = Stem;
},
{
horizontal = 1;
place = (0,21);
target = up;
type = BottomGhost;
},
{
place = (1123,89);
type = Stem;
}
);
layerId = m01;
shapes = (
{
closed = 1;
nodes = (
(89,-221,o),
(119,-132,o),
(49,-132,cs),
(19,-132,o),
(3,-148,o),
(3,-176,cs),
(3,-223,o),
(48,-256,o),
(114,-256,c),
(142,-221,l)
);
},
{
closed = 1;
nodes = (
(-297,-256,o),
(-342,-223,o),
(-342,-176,cs),
(-342,-148,o),
(-326,-132,o),
(-296,-132,cs),
(-226,-132,o),
(-256,-221,o),
(-203,-221,c),
(-231,-256,l)
);
},
{
closed = 1;
nodes = (
(735,498,l),
(748,530,l),
(107,530,l),
(95,498,l)
);
},
{
closed = 1;
nodes = (
(1048,54,o),
(1054,49,o),
(1063,49,cs),
(1085,49,o),
(1129,85,o),
(1177,139,c),
(1198,124,l),
(1130,36,o),
(1062,-10,o),
(999,-10,cs),
(956,-10,o),
(940,9,o),
(940,48,c),
(1048,64,l)
);
}
);
width = 1270;
}
);
note = f_f_h;
},
{
glyphname = f_f_i;
kernLeft = f;
kernRight = dotlessi;
lastChange = "2024-01-04 18:02:07 +0000";
layers = (
{
hints = (
{
horizontal = 1;
place = (540,-20);
target = down;
type = TopGhost;
},
{
horizontal = 1;
place = (803,27);
type = Stem;
},
{
horizontal = 1;
place = (751,29);
type = Stem;
},
{
horizontal = 1;
place = (663,167);
type = Stem;
},
{
horizontal = 1;
place = (498,32);
type = Stem;
},
{
horizontal = 1;
place = (-10,59);
type = Stem;
},
{
horizontal = 1;
place = (-256,124);
type = Stem;
},
{
horizontal = 1;
place = (-256,35);
type = Stem;
},
{
place = (928,103);
type = Stem;
}
);
layerId = m01;
shapes = (
{
closed = 1;
nodes = (
(808,57,o),
(816,49,o),
(829,49,cs),
(847,49,o),
(867,64,o),
(933,129,c),
(953,117,l),
(890,38,o),
(818,-10,o),
(763,-10,cs),
(724,-10,o),
(701,11,o),
(701,47,c),
(808,68,l)
);
},
{
closed = 1;
nodes = (
(961,830,o),
(1031,784,o),
(1031,724,cs),
(1031,688,o),
(1007,663,o),
(974,663,cs),
(941,663,o),
(916,687,o),
(916,720,cs),
(916,743,o),
(928,752,o),
(928,768,cs),
(928,789,o),
(904,803,o),
(869,803,c),
(869,830,l)
);
},
{
closed = 1;
nodes = (
(-256,-221,o),
(-226,-132,o),
(-296,-132,cs),
(-326,-132,o),
(-342,-148,o),
(-342,-176,cs),
(-342,-223,o),
(-297,-256,o),
(-231,-256,c),
(-203,-221,l)
);
},
{
closed = 1;
nodes = (
(48,-256,o),
(3,-223,o),
(3,-176,cs),
(3,-148,o),
(19,-132,o),
(49,-132,cs),
(119,-132,o),
(89,-221,o),
(142,-221,c),
(114,-256,l)
);
},
{
closed = 1;
nodes = (
(853,498,l),
(821,530,l),
(107,530,l),
(95,498,l)
);
}
);
width = 1018;
}
);
note = f_f_i;
unicode = 64259;
},
{
glyphname = f_f_j;
kernLeft = f;
kernRight = dotlessj;
lastChange = "2024-01-04 18:03:10 +0000";
layers = (
{
hints = (
{
horizontal = 1;
place = (540,-20);
target = down;
type = TopGhost;
},
{
horizontal = 1;
place = (803,27);
type = Stem;
},
{
horizontal = 1;
place = (751,29);
type = Stem;
},
{
horizontal = 1;
place = (663,167);
type = Stem;
},
{
horizontal = 1;
place = (498,32);
type = Stem;
},
{
horizontal = 1;
place = (-256,124);
type = Stem;
},
{
horizontal = 1;
place = (-256,35);
type = Stem;
},
{
place = (928,103);
type = Stem;
},
{
place = (856,107);
type = Stem;
}
);
layerId = m01;
shapes = (
{
closed = 1;
nodes = (
(470,-221,o),
(504,-132,o),
(434,-132,cs),
(403,-132,o),
(388,-149,o),
(388,-179,cs),
(388,-226,o),
(437,-256,o),
(505,-256,c),
(534,-221,l)
);
},
{
closed = 1;
nodes = (
(48,-256,o),
(3,-223,o),
(3,-176,cs),
(3,-148,o),
(19,-132,o),
(49,-132,cs),
(119,-132,o),
(89,-221,o),
(142,-221,c),
(114,-256,l)
);
},
{
closed = 1;
nodes = (
(-297,-256,o),
(-342,-223,o),
(-342,-176,cs),
(-342,-148,o),
(-326,-132,o),
(-296,-132,cs),
(-226,-132,o),
(-256,-221,o),
(-203,-221,c),
(-231,-256,l)
);
},
{
closed = 1;
nodes = (
(823,498,l),
(821,530,l),
(107,530,l),
(95,498,l)
);
},
{
closed = 1;
nodes = (
(961,830,o),
(1031,784,o),
(1031,724,cs),
(1031,688,o),
(1007,663,o),
(974,663,cs),
(941,663,o),
(916,687,o),
(916,720,cs),
(916,743,o),
(928,752,o),
(928,768,cs),
(928,789,o),
(904,803,o),
(869,803,c),
(869,830,l)
);
}
);
width = 985;
}
);
note = f_f_j;
},
{
glyphname = f_f_k;
kernLeft = f;
kernRight = f_f_k;
lastChange = "2024-01-04 18:03:58 +0000";
layers = (
{
hints = (
{
horizontal = 1;
place = (540,-20);
target = down;
type = TopGhost;
},
{
horizontal = 1;
place = (803,27);
type = Stem;
},
{
horizontal = 1;
place = (751,29);
type = Stem;
},
{
horizontal = 1;
place = (498,32);
type = Stem;
},
{
horizontal = 1;
place = (-10,43);
type = Stem;
},
{
horizontal = 1;
place = (-256,124);
type = Stem;
},
{
horizontal = 1;
place = (-256,35);
type = Stem;
},
{
horizontal = 1;
place = (0,21);
target = up;
type = BottomGhost;
},
{
place = (1097,101);
type = Stem;
}
);
layerId = m01;
shapes = (
{
closed = 0;
nodes = (
(114,-256,l)
);
},
{
closed = 1;
nodes = (
(107,530,l),
(95,498,l),
(735,498,l),
(748,530,l)
);
},
{
closed = 1;
nodes = (
(89,-221,o),
(119,-132,o),
(49,-132,cs),
(19,-132,o),
(3,-148,o),
(3,-176,cs),
(3,-223,o),
(48,-256,o),
(114,-256,c),
(142,-221,l)
);
},
{
closed = 1;
nodes = (
(-256,-221,o),
(-226,-132,o),
(-296,-132,cs),
(-326,-132,o),
(-342,-148,o),
(-342,-176,cs),
(-342,-223,o),
(-297,-256,o),
(-231,-256,c),
(-203,-221,l)
);
},
{
closed = 1;
nodes = (
(1086,33,o),
(1109,49,o),
(1133,80,c),
(1153,69,l),
(1127,24,o),
(1072,-10,o),
(1023,-10,c),
(1065,33,l)
);
}
);
width = 1232;
}
);
note = f_f_k;
},
{
glyphname = f_f_l;
kernLeft = f;
kernRight = f_f_l;
lastChange = "2024-01-04 18:27:57 +0000";
layers = (
{
hints = (
{
horizontal = 1;
place = (803,27);
type = Stem;
},
{
horizontal = 1;
place = (751,29);
type = Stem;
},
{
horizontal = 1;
place = (498,32);
type = Stem;
},
{
horizontal = 1;
place = (-10,59);
type = Stem;
},
{
horizontal = 1;
place = (-256,124);
type = Stem;
},
{
horizontal = 1;
place = (-256,35);
type = Stem;
}
);
layerId = m01;
shapes = (
{
closed = 1;
nodes = (
(89,-221,o),
(119,-132,o),
(49,-132,cs),
(19,-132,o),
(3,-148,o),
(3,-176,cs),
(3,-223,o),
(48,-256,o),
(114,-256,c),
(142,-221,l)
);
},
{
closed = 1;
nodes = (
(-256,-221,o),
(-226,-132,o),
(-296,-132,cs),
(-326,-132,o),
(-342,-148,o),
(-342,-176,cs),
(-342,-223,o),
(-297,-256,o),
(-231,-256,c),
(-203,-221,l)
);
},
{
closed = 1;
nodes = (
(675,12,o),
(695,-10,o),
(729,-10,cs),
(782,-10,o),
(861,42,o),
(923,117,c),
(901,129,l),
(844,71,o),
(816,49,o),
(796,49,cs),
(783,49,o),
(775,57,o),
(775,70,c),
(675,51,l)
);
},
{
closed = 1;
nodes = (
(735,498,l),
(748,530,l),
(107,530,l),
(95,498,l)
);
}
);
width = 992;
}
);
note = f_f_l;
unicode = 64260;
},
{
glyphname = f_f_t;
kernLeft = f;
kernRight = c_t;
lastChange = "2024-01-04 18:35:28 +0000";
layers = (
{
hints = (
{
horizontal = 1;
place = (803,27);
type = Stem;
},
{
horizontal = 1;
place = (751,29);
type = Stem;
},
{
horizontal = 1;
place = (698,132);
type = Stem;
},
{
horizontal = 1;
place = (498,32);
type = Stem;
},
{
horizontal = 1;
place = (-10,59);
type = Stem;
},
{
horizontal = 1;
place = (-256,124);
type = Stem;
},
{
horizontal = 1;
place = (-256,35);
type = Stem;
},
{
place = (908,88);
type = Stem;
},
{
place = (705,100);
type = Stem;
}
);
layerId = m01;
shapes = (
{
closed = 1;
nodes = (
(805,58,o),
(812,49,o),
(827,49,cs),
(847,49,o),
(877,73,o),
(931,129,c),
(951,117,l),
(887,36,o),
(816,-10,o),
(758,-10,cs),
(718,-10,o),
(705,9,o),
(705,53,c),
(805,73,l)
);
},
{
closed = 1;
nodes = (
(89,-221,o),
(118,-132,o),
(50,-132,cs),
(21,-132,o),
(3,-147,o),
(3,-173,cs),
(3,-222,o),
(45,-256,o),
(112,-256,c),
(142,-221,l)
);
},
{
closed = 1;
nodes = (
(-256,-221,o),
(-226,-132,o),
(-296,-132,cs),
(-326,-132,o),
(-342,-148,o),
(-342,-176,cs),
(-342,-223,o),
(-297,-256,o),
(-231,-256,c),
(-203,-221,l)
);
},
{
closed = 1;
nodes = (
(1072,498,l),
(1083,530,l),
(107,530,l),
(95,498,l)
);
},
{
closed = 1;
nodes = (
(934,830,o),
(996,793,o),
(996,746,cs),
(996,717,o),
(978,698,o),
(948,698,cs),
(922,698,o),
(901,716,o),
(901,742,cs),
(901,757,o),
(908,766,o),
(908,778,cs),
(908,795,o),
(887,803,o),
(857,803,c),
(862,830,l)
);
}
);
width = 1034;
}
);
note = f_f_t;
},
{
glyphname = f_h;
kernLeft = f;
kernRight = f_f_h;
lastChange = "2024-01-04 18:35:59 +0000";
layers = (
{
hints = (
{
horizontal = 1;
place = (539,-20);
target = down;
type = TopGhost;
},
{
horizontal = 1;
place = (803,27);
type = Stem;
},
{
horizontal = 1;
place = (498,32);
type = Stem;
},
{
horizontal = 1;
place = (-10,59);
type = Stem;
},
{
horizontal = 1;
place = (-256,124);
type = Stem;
},
{
horizontal = 1;
place = (-256,35);
type = Stem;
},
{
horizontal = 1;
place = (0,21);
target = up;
type = BottomGhost;
},
{
place = (778,89);
type = Stem;
}
);
layerId = m01;
shapes = (
{
closed = 1;
nodes = (
(-256,-221,o),
(-226,-132,o),
(-296,-132,cs),
(-326,-132,o),
(-342,-148,o),
(-342,-176,cs),
(-342,-223,o),
(-297,-256,o),
(-231,-256,c),
(-203,-221,l)
);
},
{
closed = 1;
nodes = (
(107,530,l),
(95,498,l),
(390,498,l),
(403,530,l)
);
},
{
closed = 1;
nodes = (
(703,54,o),
(709,49,o),
(718,49,cs),
(740,49,o),
(784,85,o),
(832,139,c),
(853,124,l),
(785,36,o),
(717,-10,o),
(653,-10,cs),
(612,-10,o),
(595,9,o),
(595,45,c),
(703,64,l)
);
}
);
width = 925;
}
);
note = f_h;
},
{
glyphname = f_i;
kernLeft = f;
kernRight = dotlessi;
lastChange = "2024-01-04 18:37:02 +0000";
layers = (
{
hints = (
{
horizontal = 1;
place = (540,-20);
target = down;
type = TopGhost;
},
{
horizontal = 1;
place = (803,27);
type = Stem;
},
{
horizontal = 1;
place = (663,167);
type = Stem;
},
{
horizontal = 1;
place = (498,32);
type = Stem;
},
{
horizontal = 1;
place = (-10,59);
type = Stem;
},
{
horizontal = 1;
place = (-256,124);
type = Stem;
},
{
horizontal = 1;
place = (-256,35);
type = Stem;
},
{
place = (583,103);
type = Stem;
}
);
layerId = m01;
shapes = (
{
closed = 1;
nodes = (
(463,57,o),
(471,49,o),
(484,49,cs),
(502,49,o),
(522,64,o),
(588,129,c),
(608,117,l),
(545,38,o),
(473,-10,o),
(418,-10,cs),
(379,-10,o),
(356,11,o),
(356,47,c),
(463,68,l)
);
},
{
closed = 1;
nodes = (
(107,530,l),
(95,498,l),
(508,498,l),
(476,530,l)
);
},
{
closed = 1;
nodes = (
(559,803,o),
(583,789,o),
(583,768,cs),
(583,752,o),
(571,743,o),
(571,720,cs),
(571,687,o),
(596,663,o),
(629,663,cs),
(662,663,o),
(686,688,o),
(686,724,cs),
(686,784,o),
(616,830,o),
(524,830,c),
(524,803,l)
);
},
{
closed = 1;
nodes = (
(-256,-221,o),
(-226,-132,o),
(-296,-132,cs),
(-326,-132,o),
(-342,-148,o),
(-342,-176,cs),
(-342,-223,o),
(-297,-256,o),
(-231,-256,c),
(-203,-221,l)
);
}
);
width = 673;
}
);
note = f_i;
unicode = 64257;
},
{
glyphname = f_j;
kernLeft = f;
kernRight = dotlessj;
lastChange = "2024-01-04 18:38:37 +0000";
layers = (
{
hints = (
{
horizontal = 1;
place = (540,-20);
target = down;
type = TopGhost;
},
{
horizontal = 1;
place = (803,27);
type = Stem;
},
{
horizontal = 1;
place = (663,167);
type = Stem;
},
{
horizontal = 1;
place = (498,32);
type = Stem;
},
{
horizontal = 1;
place = (-256,124);
type = Stem;
},
{
horizontal = 1;
place = (-256,35);
type = Stem;
},
{
place = (583,103);
type = Stem;
},
{
place = (511,107);
type = Stem;
}
);
layerId = m01;
shapes = (
{
closed = 1;
nodes = (
(-256,-221,o),
(-226,-132,o),
(-296,-132,cs),
(-326,-132,o),
(-342,-148,o),
(-342,-176,cs),
(-342,-223,o),
(-297,-256,o),
(-231,-256,c),
(-203,-221,l)
);
},
{
closed = 1;
nodes = (
(125,-221,o),
(159,-132,o),
(89,-132,cs),
(58,-132,o),
(43,-149,o),
(43,-179,cs),
(43,-226,o),
(92,-256,o),
(160,-256,c),
(189,-221,l)
);
},
{
closed = 1;
nodes = (
(616,830,o),
(686,784,o),
(686,724,cs),
(686,688,o),
(662,663,o),
(629,663,cs),
(596,663,o),
(571,687,o),
(571,720,cs),
(571,743,o),
(583,752,o),
(583,768,cs),
(583,789,o),
(559,803,o),
(524,803,c),
(524,830,l)
);
},
{
closed = 1;
nodes = (
(478,498,l),
(476,530,l),
(107,530,l),
(95,498,l)
);
}
);
width = 640;
}
);
note = f_j;
},
{
glyphname = f_k;
kernLeft = f;
kernRight = f_f_k;
lastChange = "2024-01-04 18:40:04 +0000";
layers = (
{
hints = (
{
horizontal = 1;
place = (540,-20);
target = down;
type = TopGhost;
},
{
horizontal = 1;
place = (803,27);
type = Stem;
},
{
horizontal = 1;
place = (498,32);
type = Stem;
},
{
horizontal = 1;
place = (-10,43);
type = Stem;
},
{
horizontal = 1;
place = (-256,124);
type = Stem;
},
{
horizontal = 1;
place = (-256,35);
type = Stem;
},
{
horizontal = 1;
place = (0,21);
target = up;
type = BottomGhost;
},
{
place = (752,101);
type = Stem;
}
);
layerId = m01;
shapes = (
{
closed = 1;
nodes = (
(-256,-221,o),
(-226,-132,o),
(-296,-132,cs),
(-326,-132,o),
(-342,-148,o),
(-342,-176,cs),
(-342,-223,o),
(-297,-256,o),
(-231,-256,c),
(-203,-221,l)
);
},
{
closed = 1;
nodes = (
(107,530,l),
(95,498,l),
(390,498,l),
(403,530,l)
);
},
{
closed = 1;
nodes = (
(686,53,o),
(699,33,o),
(720,33,cs),
(741,33,o),
(764,49,o),
(788,80,c),
(808,69,l),
(782,24,o),
(727,-10,o),
(678,-10,cs),
(630,-10,o),
(596,21,o),
(563,90,c),
(658,111,l)
);
}
);
width = 887;
}
);
note = f_k;
},
{
glyphname = f_l;
kernLeft = f;
kernRight = f_f_l;
lastChange = "2024-01-04 18:40:38 +0000";
layers = (
{
hints = (
{
horizontal = 1;
place = (803,27);
type = Stem;
},
{
horizontal = 1;
place = (498,32);
type = Stem;
},
{
horizontal = 1;
place = (-10,59);
type = Stem;
},
{
horizontal = 1;
place = (-256,124);
type = Stem;
},
{
horizontal = 1;
place = (-256,35);
type = Stem;
}
);
layerId = m01;
shapes = (
{
closed = 1;
nodes = (
(107,530,l),
(95,498,l),
(390,498,l),
(403,530,l)
);
},
{
closed = 1;
nodes = (
(430,57,o),
(438,49,o),
(451,49,cs),
(471,49,o),
(499,71,o),
(556,129,c),
(578,117,l),
(516,42,o),
(437,-10,o),
(384,-10,cs),
(350,-10,o),
(330,12,o),
(330,51,c),
(430,70,l)
);
},
{
closed = 1;
nodes = (
(-256,-221,o),
(-226,-132,o),
(-296,-132,cs),
(-326,-132,o),
(-342,-148,o),
(-342,-176,cs),
(-342,-223,o),
(-297,-256,o),
(-231,-256,c),
(-203,-221,l)
);
}
);
width = 647;
}
);
note = f_l;
unicode = 64258;
},
{
glyphname = f_t;
kernLeft = f;
kernRight = c_t;
lastChange = "2024-01-04 18:42:50 +0000";
layers = (
{
hints = (
{
horizontal = 1;
place = (803,27);
type = Stem;
},
{
horizontal = 1;
place = (498,32);
type = Stem;
},
{
horizontal = 1;
place = (-10,59);
type = Stem;
},
{
horizontal = 1;
place = (-256,124);
type = Stem;
},
{
horizontal = 1;
place = (-256,35);
type = Stem;
},
{
place = (563,88);
type = Stem;
},
{
place = (360,100);
type = Stem;
}
);
layerId = m01;
shapes = (
{
closed = 1;
nodes = (
(107,530,l),
(95,498,l),
(727,498,l),
(738,530,l)
);
},
{
closed = 1;
nodes = (
(-256,-221,o),
(-227,-132,o),
(-295,-132,cs),
(-324,-132,o),
(-342,-147,o),
(-342,-173,cs),
(-342,-222,o),
(-300,-256,o),
(-233,-256,c),
(-203,-221,l)
);
},
{
closed = 1;
nodes = (
(360,9,o),
(373,-10,o),
(413,-10,cs),
(471,-10,o),
(542,36,o),
(606,117,c),
(586,129,l),
(532,73,o),
(502,49,o),
(482,49,cs),
(467,49,o),
(460,58,o),
(460,73,c),
(360,53,l)
);
}
);
width = 689;
}
);
note = f_t;
},
{
glyphname = five;
lastChange = "2024-01-04 18:43:01 +0000";
layers = (
{
hints = (
{
horizontal = 1;
place = (797,-20);
target = down;
type = TopGhost;
},
{
horizontal = 1;
place = (667,90);
type = Stem;
},
{
horizontal = 1;
place = (388,95);
type = Stem;
},
{
horizontal = 1;
place = (-10,141);
type = Stem;
},
{
horizontal = 1;
place = (-10,44);
type = Stem;
},
{
place = (370,116);
type = Stem;
}
);
layerId = m01;
shapes = (
{
closed = 1;
nodes = (
(95,34,o),
(123,131,o),
(55,131,cs),
(23,131,o),
(3,110,o),
(3,79,cs),
(3,25,o),
(63,-10,o),
(154,-10,c),
(189,34,l)
);
}
);
width = 543;
}
);
note = five;
unicode = 53;
},
{
glyphname = five.denominator;
lastChange = "2024-01-04 18:43:35 +0000";
layers = (
{
hints = (
{
horizontal = 1;
place = (466,-20);
target = down;
type = TopGhost;
},
{
horizontal = 1;
place = (363,79);
type = Stem;
},
{
horizontal = 1;
place = (212,73);
type = Stem;
},
{
horizontal = 1;
place = (-10,88);
type = Stem;
},
{
horizontal = 1;
place = (-10,32);
type = Stem;
},
{
place = (173,77);
type = Stem;
}
);
layerId = m01;
shapes = (
{
closed = 1;
nodes = (
(11,22,o),
(27,78,o),
(-13,78,cs),
(-35,78,o),
(-48,64,o),
(-48,43,cs),
(-48,11,o),
(-11,-10,o),
(45,-10,c),
(66,22,l)
);
}
);
width = 340;
}
);
note = five.denominator;
},
{
glyphname = five.numerator;
lastChange = "2024-01-04 18:43:41 +0000";
layers = (
{
hints = (
{
horizontal = 1;
place = (791,-20);
target = down;
type = TopGhost;
},
{
horizontal = 1;
place = (688,79);
type = Stem;
},
{
horizontal = 1;
place = (537,73);
type = Stem;
},
{
horizontal = 1;
place = (315,88);
type = Stem;
},
{
horizontal = 1;
place = (315,32);
type = Stem;
},
{
place = (309,77);
type = Stem;
}
);
layerId = m01;
shapes = (
{
closed = 1;
nodes = (
(202,347,l),
(147,347,o),
(163,403,o),
(123,403,cs),
(101,403,o),
(88,389,o),
(88,368,cs),
(88,336,o),
(125,315,o),
(181,315,c)
);
}
);
width = 340;
}
);
note = five.numerator;
},
{
glyphname = five.oldstyle;
lastChange = "2024-01-04 18:43:45 +0000";
layers = (
{
hints = (
{
horizontal = 1;
place = (564,-20);
target = down;
type = TopGhost;
},
{
horizontal = 1;
place = (430,90);
type = Stem;
},
{
horizontal = 1;
place = (-206,92);
type = Stem;
},
{
horizontal = 1;
place = (-206,40);
type = Stem;
},
{
place = (179,120);
type = Stem;
}
);
layerId = m01;
shapes = (
{
closed = 1;
nodes = (
(-2,-166,l),
(-68,-166,o),
(-69,-114,o),
(-114,-114,cs),
(-139,-114,o),
(-153,-130,o),
(-153,-150,cs),
(-153,-187,o),
(-106,-206,o),
(-43,-206,c)
);
}
);
width = 437;
}
);
note = five.oldstyle;
},
{
glyphname = five.tnum;
lastChange = "2024-01-04 18:43:48 +0000";
layers = (
{
hints = (
{
horizontal = 1;
place = (797,-20);
target = down;
type = TopGhost;
},
{
horizontal = 1;
place = (667,90);
type = Stem;
},
{
horizontal = 1;
place = (388,95);
type = Stem;
},
{
horizontal = 1;
place = (-10,141);
type = Stem;
},
{
horizontal = 1;
place = (-10,44);
type = Stem;
},
{
place = (324,116);
type = Stem;
}
);
layerId = m01;
shapes = (
{
closed = 1;
nodes = (
(143,34,l),
(49,34,o),
(77,131,o),
(9,131,cs),
(-23,131,o),
(-43,110,o),
(-43,79,cs),
(-43,25,o),
(17,-10,o),
(108,-10,c)
);
}
);
width = 600;
}
);
note = five.tnum;
},
{
glyphname = fiveeighths;
lastChange = "2024-01-04 18:43:56 +0000";
layers = (
{
hints = (
{
horizontal = 1;
place = (791,-20);
target = down;
type = TopGhost;
},
{
horizontal = 1;
place = (770,-20);
target = down;
type = TopGhost;
},
{
horizontal = 1;
place = (688,79);
type = Stem;
},
{
horizontal = 1;
place = (537,73);
type = Stem;
},
{
horizontal = 1;
place = (419,36);
type = Stem;
},
{
horizontal = 1;
place = (315,88);
type = Stem;
},
{
horizontal = 1;
place = (315,32);
type = Stem;
},
{
horizontal = 1;
place = (-10,37);
type = Stem;
},
{
horizontal = 1;
place = (0,21);
target = up;
type = BottomGhost;
},
{
place = (803,67);
type = Stem;
},
{
place = (749,70);
type = Stem;
},
{
place = (625,69);
type = Stem;
},
{
place = (527,75);
type = Stem;
},
{
place = (321,77);
type = Stem;
}
);
layerId = m01;
shapes = (
{
closed = 1;
nodes = (
(214,347,l),
(159,347,o),
(175,403,o),
(135,403,cs),
(113,403,o),
(100,389,o),
(100,368,cs),
(100,336,o),
(137,315,o),
(193,315,c)
);
}
);
width = 938;
}
);
note = fiveeighths;
unicode = 8541;
},
{
glyphname = fiveinferior;
lastChange = "2024-01-04 18:44:00 +0000";
layers = (
{
hints = (
{
horizontal = 1;
place = (367,-20);
target = down;
type = TopGhost;
},
{
horizontal = 1;
place = (253,88);
type = Stem;
},
{
horizontal = 1;
place = (85,82);
type = Stem;
},
{
horizontal = 1;
place = (-161,98);
type = Stem;
},
{
horizontal = 1;
place = (-161,36);
type = Stem;
},
{
place = (132,86);
type = Stem;
}
);
layerId = m01;
shapes = (
{
closed = 1;
nodes = (
(14,-125,l),
(-48,-125,o),
(-30,-63,o),
(-74,-63,cs),
(-98,-63,o),
(-113,-79,o),
(-113,-102,cs),
(-113,-138,o),
(-72,-161,o),
(-9,-161,c)
);
}
);
width = 364;
}
);
note = fiveinferior;
unicode = 8325;
},
{
glyphname = fivesuperior;
lastChange = "2024-01-04 18:44:06 +0000";
layers = (
{
hints = (
{
horizontal = 1;
place = (937,-20);
target = down;
type = TopGhost;
},
{
horizontal = 1;
place = (823,88);
type = Stem;
},
{
horizontal = 1;
place = (655,82);
type = Stem;
},
{
horizontal = 1;
place = (409,98);
type = Stem;
},
{
horizontal = 1;
place = (409,36);
type = Stem;
},
{
place = (374,86);
type = Stem;
}
);
layerId = m01;
shapes = (
{
closed = 1;
nodes = (
(256,445,l),
(194,445,o),
(212,507,o),
(168,507,cs),
(144,507,o),
(129,491,o),
(129,468,cs),
(129,432,o),
(170,409,o),
(233,409,c)
);
}
);
width = 365;
}
);
note = fivesuperior;
unicode = 8309;
},
{
glyphname = florin;
lastChange = "2024-01-04 18:44:30 +0000";
layers = (
{
hints = (
{
horizontal = 1;
place = (803,27);
type = Stem;
},
{
horizontal = 1;
place = (498,32);
type = Stem;
},
{
horizontal = 1;
place = (-256,124);
type = Stem;
},
{
horizontal = 1;
place = (-256,35);
type = Stem;
},
{
place = (632,93);
type = Stem;
}
);
layerId = m01;
shapes = (
{
closed = 1;
nodes = (
(-68,-221,o),
(-49,-132,o),
(-117,-132,cs),
(-144,-132,o),
(-159,-145,o),
(-159,-167,cs),
(-159,-219,o),
(-108,-256,o),
(-40,-256,c),
(-15,-221,l)
);
},
{
closed = 1;
nodes = (
(651,830,o),
(725,781,o),
(725,719,cs),
(725,694,o),
(710,678,o),
(683,678,cs),
(653,678,o),
(629,700,o),
(629,730,cs),
(629,742,o),
(632,751,o),
(632,761,cs),
(632,787,o),
(610,803,o),
(577,803,c),
(578,830,l)
);
},
{
closed = 1;
nodes = (
(561,498,l),
(570,530,l),
(134,530,l),
(126,498,l)
);
}
);
width = 568;
}
);
note = florin;
unicode = 402;
},
{
glyphname = g;
kernLeft = g;
kernRight = g;
lastChange = "2024-01-04 18:44:53 +0000";
layers = (
{
hints = (
{
horizontal = 1;
place = (503,37);
type = Stem;
},
{
horizontal = 1;
place = (478,62);
type = Stem;
},
{
horizontal = 1;
place = (450,90);
type = Stem;
},
{
horizontal = 1;
place = (184,34);
type = Stem;
},
{
horizontal = 1;
place = (6,26);
type = Stem;
},
{
horizontal = 1;
place = (-256,30);
type = Stem;
},
{
place = (376,208);
type = Stem;
},
{
place = (376,89);
type = Stem;
},
{
place = (318,80);
type = Stem;
},
{
place = (85,87);
type = Stem;
},
{
place = (9,78);
type = Stem;
},
{
place = (-115,88);
type = Stem;
}
);
layerId = m01;
shapes = (
{
closed = 1;
nodes = (
(496,540,o),
(462,520,o),
(427,479,c),
(446,454,l),
(453,468,o),
(468,478,o),
(482,478,cs),
(507,478,o),
(513,450,o),
(542,450,cs),
(565,450,o),
(584,467,o),
(584,490,cs),
(584,517,o),
(562,540,o),
(528,540,cs)
);
}
);
width = 527;
}
);
note = g;
unicode = 103;
},
{
glyphname = gbreve;
kernLeft = g;
kernRight = g;
lastChange = "2024-01-04 18:44:57 +0000";
layers = (
{
hints = (
{
horizontal = 1;
place = (651,139);
type = Stem;
},
{
horizontal = 1;
place = (651,74);
type = Stem;
},
{
horizontal = 1;
place = (503,37);
type = Stem;
},
{
horizontal = 1;
place = (478,62);
type = Stem;
},
{
horizontal = 1;
place = (450,90);
type = Stem;
},
{
horizontal = 1;
place = (184,34);
type = Stem;
},
{
horizontal = 1;
place = (6,26);
type = Stem;
},
{
horizontal = 1;
place = (-256,30);
type = Stem;
},
{
place = (376,208);
type = Stem;
},
{
place = (376,89);
type = Stem;
},
{
place = (318,80);
type = Stem;
},
{
place = (303,45);
type = Stem;
},
{
place = (85,87);
type = Stem;
},
{
place = (9,78);
type = Stem;
},
{
place = (-115,88);
type = Stem;
}
);
layerId = m01;
shapes = (
{
closed = 1;
nodes = (
(286,-256,o),
(-16,-256,o),
(129,-256,cs)
);
},
{
closed = 1;
nodes = (
(313,790,l),
(306,768,o),
(303,750,o),
(303,734,cs),
(303,673,o),
(347,651,o),
(393,651,cs),
(436,651,o),
(514,666,o),
(597,790,c),
(557,790,l),
(515,744,o),
(471,725,o),
(427,725,cs),
(375,725,o),
(349,749,o),
(348,790,c)
);
},
{
ref = g;
}
);
width = 527;
}
);
note = gbreve;
unicode = 287;
},
{
glyphname = gcircumflex;
kernLeft = g;
kernRight = g;
lastChange = "2024-01-04 18:44:59 +0000";
layers = (
{
hints = (
{
horizontal = 1;
place = (857,-20);
target = down;
type = TopGhost;
},
{
horizontal = 1;
place = (503,37);
type = Stem;
},
{
horizontal = 1;
place = (478,62);
type = Stem;
},
{
horizontal = 1;
place = (450,90);
type = Stem;
},
{
horizontal = 1;
place = (184,34);
type = Stem;
},
{
horizontal = 1;
place = (6,26);
type = Stem;
},
{
horizontal = 1;
place = (-256,30);
type = Stem;
},
{
place = (376,208);
type = Stem;
},
{
place = (376,89);
type = Stem;
},
{
place = (318,80);
type = Stem;
},
{
place = (85,87);
type = Stem;
},
{
place = (9,78);
type = Stem;
},
{
place = (-115,88);
type = Stem;
}
);
layerId = m01;
shapes = (
{
closed = 1;
nodes = (
(450,857,o),
(429,848,o),
(411,828,cs),
(240,640,l),
(259,628,l),
(442,769,l),
(512,628,l),
(535,640,l),
(519,828,ls),
(517,847,o),
(508,857,o),
(479,857,cs)
);
},
{
ref = g;
}
);
width = 527;
}
);
note = gcircumflex;
unicode = 285;
},
{
glyphname = gcommaaccent;
kernLeft = g;
kernRight = g;
lastChange = "2024-01-04 18:45:03 +0000";
layers = (
{
hints = (
{
horizontal = 1;
place = (852,-20);
target = down;
type = TopGhost;
},
{
horizontal = 1;
place = (540,109);
type = Stem;
},
{
horizontal = 1;
place = (503,37);
type = Stem;
},
{
horizontal = 1;
place = (478,62);
type = Stem;
},
{
horizontal = 1;
place = (450,90);
type = Stem;
},
{
horizontal = 1;
place = (184,34);
type = Stem;
},
{
horizontal = 1;
place = (6,26);
type = Stem;
},
{
horizontal = 1;
place = (-256,30);
type = Stem;
},
{
place = (376,208);
type = Stem;
},
{
place = (376,89);
type = Stem;
},
{
place = (351,114);
type = Stem;
},
{
place = (318,80);
type = Stem;
},
{
place = (85,87);
type = Stem;
},
{
place = (9,78);
type = Stem;
},
{
place = (-115,88);
type = Stem;
}
);
layerId = m01;
shapes = (
{
closed = 1;
nodes = (
(419,758,o),
(415,759,o),
(415,766,cs),
(415,782,o),
(448,813,o),
(489,833,c),
(474,852,l),
(396,809,o),
(351,756,o),
(351,705,cs),
(351,669,o),
(369,649,o),
(401,649,cs),
(446,649,o),
(467,673,o),
(467,710,cs),
(467,734,o),
(457,749,o),
(438,754,cs)
);
},
{
ref = g;
}
);
width = 527;
}
);
note = gcommaaccent;
unicode = 291;
},
{
glyphname = gdotaccent;
kernLeft = g;
kernRight = g;
lastChange = "2024-01-04 18:45:05 +0000";
layers = (
{
hints = (
{
horizontal = 1;
place = (655,125);
type = Stem;
},
{
horizontal = 1;
place = (503,37);
type = Stem;
},
{
horizontal = 1;
place = (478,62);
type = Stem;
},
{
horizontal = 1;
place = (450,90);
type = Stem;
},
{
horizontal = 1;
place = (184,34);
type = Stem;
},
{
horizontal = 1;
place = (6,26);
type = Stem;
},
{
horizontal = 1;
place = (-256,30);
type = Stem;
},
{
place = (376,208);
type = Stem;
},
{
place = (376,89);
type = Stem;
},
{
place = (332,133);
type = Stem;
},
{
place = (318,80);
type = Stem;
},
{
place = (85,87);
type = Stem;
},
{
place = (9,78);
type = Stem;
},
{
place = (-115,88);
type = Stem;
}
);
layerId = m01;
shapes = (
{
closed = 1;
nodes = (
(367,780,o),
(332,749,o),
(332,712,cs),
(332,678,o),
(356,655,o),
(394,655,cs),
(432,655,o),
(469,689,o),
(469,725,cs),
(469,756,o),
(439,780,o),
(405,780,cs)
);
},
{
ref = g;
}
);
width = 527;
}
);
note = gdotaccent;
unicode = 289;
},
{
glyphname = germandbls;
kernLeft = germandbls;
lastChange = "2024-01-04 18:45:17 +0000";
layers = (
{
hints = (
{
horizontal = 1;
place = (803,27);
type = Stem;
},
{
horizontal = 1;
place = (-10,138);
type = Stem;
},
{
horizontal = 1;
place = (-10,31);
type = Stem;
},
{
horizontal = 1;
place = (-197,124);
type = Stem;
},
{
horizontal = 1;
place = (-197,35);
type = Stem;
},
{
place = (537,87);
type = Stem;
},
{
place = (537,36);
type = Stem;
},
{
place = (346,85);
type = Stem;
}
);
layerId = m01;
shapes = (
{
closed = 1;
nodes = (
(-206,-162,o),
(-172,-73,o),
(-245,-73,cs),
(-274,-73,o),
(-289,-87,o),
(-289,-115,cs),
(-289,-165,o),
(-240,-197,o),
(-165,-197,c),
(-141,-162,l)
);
},
{
closed = 1;
nodes = (
(287,21,o),
(331,128,o),
(261,128,cs),
(234,128,o),
(216,112,o),
(216,87,cs),
(216,35,o),
(292,-10,o),
(381,-10,c),
(381,21,l)
);
}
);
width = 669;
}
);
note = germandbls;
unicode = 223;
},
{
glyphname = grave;
layers = (
{
hints = (
{
horizontal = 1;
place = (857,-20);
target = down;
type = TopGhost;
},
{
horizontal = 1;
place = (636,21);
target = up;
type = BottomGhost;
},
{
place = (10,92);
type = Stem;
}
);
layerId = m01;
shapes = (
{
closed = 1;
nodes = (
(96,642,l),
(108,792,ls),
(108,797,o),
(109,802,o),
(109,815,cs),
(109,843,o),
(94,857,o),
(62,857,cs),
(35,857,o),
(10,838,o),
(10,811,cs),
(10,794,o),
(13,781,o),
(23,755,cs),
(68,636,l)
);
}
);
width = 119;
}
);
note = grave;
unicode = 96;
},
{
glyphname = grave.cap;
layers = (
{
hints = (
{
horizontal = 1;
place = (960,-20);
target = down;
type = TopGhost;
},
{
horizontal = 1;
place = (816,21);
target = up;
type = BottomGhost;
}
);
layerId = m01;
shapes = (
{
closed = 1;
nodes = (
(227,837,l),
(123,928,ls),
(100,948,o),
(83,960,o),
(60,960,cs),
(30,960,o),
(10,941,o),
(10,912,cs),
(10,888,o),
(23,870,o),
(47,863,cs),
(208,816,l)
);
}
);
width = 237;
}
);
note = grave.cap;
},
{
glyphname = h;
kernLeft = germandbls;
kernRight = f_f_h;
lastChange = "2024-01-04 18:45:51 +0000";
layers = (
{
hints = (
{
horizontal = 1;
place = (820,-20);
target = down;
type = TopGhost;
},
{
horizontal = 1;
place = (505,34);
type = Stem;
},
{
horizontal = 1;
place = (-10,59);
type = Stem;
},
{
horizontal = 1;
place = (0,21);
target = up;
type = BottomGhost;
},
{
place = (448,89);
type = Stem;
}
);
layerId = m01;
shapes = (
{
closed = 1;
nodes = (
(373,54,o),
(379,49,o),
(388,49,cs),
(410,49,o),
(454,85,o),
(502,139,c),
(523,124,l),
(455,36,o),
(387,-10,o),
(324,-10,cs),
(281,-10,o),
(265,9,o),
(265,48,c),
(373,64,l)
);
},
{
closed = 1;
nodes = (
(406,820,l),
(215,820,l),
(217,805,l),
(293,793,l),
(394,793,l)
);
}
);
width = 595;
}
);
note = h;
unicode = 104;
},
{
glyphname = hbar;
kernLeft = germandbls;
kernRight = f_f_h;
lastChange = "2024-01-04 18:45:58 +0000";
layers = (
{
hints = (
{
horizontal = 1;
place = (662,158);
type = Stem;
},
{
horizontal = 1;
place = (662,42);
type = Stem;
},
{
horizontal = 1;
place = (505,34);
type = Stem;
},
{
horizontal = 1;
place = (-10,59);
type = Stem;
},
{
horizontal = 1;
place = (0,21);
target = up;
type = BottomGhost;
},
{
place = (448,89);
type = Stem;
}
);
layerId = m01;
shapes = (
{
closed = 1;
nodes = (
(337,662,l),
(448,662,l),
(466,704,l),
(355,704,l),
(256,704,l),
(179,704,l),
(162,662,l),
(239,662,l)
);
},
{
ref = h;
}
);
width = 595;
}
);
note = hbar;
unicode = 295;
},
{
glyphname = hcircumflex;
kernLeft = germandbls;
kernRight = f_f_h;
lastChange = "2024-01-04 18:46:02 +0000";
layers = (
{
hints = (
{
horizontal = 1;
place = (857,-20);
target = down;
type = TopGhost;
},
{
horizontal = 1;
place = (820,-20);
target = down;
type = TopGhost;
},
{
horizontal = 1;
place = (505,34);
type = Stem;
},
{
horizontal = 1;
place = (-10,59);
type = Stem;
},
{
horizontal = 1;
place = (0,21);
target = up;
type = BottomGhost;
},
{
place = (448,89);
type = Stem;
}
);
layerId = m01;
shapes = (
{
closed = 1;
nodes = (
(562,857,o),
(541,848,o),
(523,828,cs),
(352,640,l),
(371,628,l),
(554,769,l),
(624,628,l),
(647,640,l),
(631,828,ls),
(629,847,o),
(620,857,o),
(591,857,cs)
);
},
{
ref = h;
}
);
width = 595;
}
);
note = hcircumflex;
unicode = 293;
},
{
glyphname = hdotbelow;
kernLeft = germandbls;
kernRight = f_f_h;
lastChange = "2024-01-04 18:46:04 +0000";
layers = (
{
hints = (
{
horizontal = 1;
place = (820,-20);
target = down;
type = TopGhost;
},
{
horizontal = 1;
place = (505,34);
type = Stem;
},
{
horizontal = 1;
place = (-10,59);
type = Stem;
},
{
horizontal = 1;
place = (-256,125);
type = Stem;
},
{
horizontal = 1;
place = (0,21);
target = up;
type = BottomGhost;
},
{
place = (448,89);
type = Stem;
},
{
place = (33,137);
type = Stem;
}
);
layerId = m01;
shapes = (
{
closed = 1;
nodes = (
(68,-131,o),
(33,-162,o),
(33,-199,cs),
(33,-233,o),
(57,-256,o),
(95,-256,cs),
(133,-256,o),
(170,-222,o),
(170,-186,cs),
(170,-155,o),
(140,-131,o),
(106,-131,cs)
);
},
{
ref = h;
}
);
width = 595;
}
);
note = hdotbelow;
unicode = 7717;
},
{
glyphname = hungarumlaut;
layers = (
{
hints = (
{
horizontal = 1;
place = (857,-20);
target = down;
type = TopGhost;
},
{
horizontal = 1;
place = (631,21);
target = up;
type = BottomGhost;
}
);
layerId = m01;
shapes = (
{
closed = 1;
nodes = (
(28,631,l),
(166,750,ls),
(193,774,o),
(205,791,o),
(205,809,cs),
(205,836,o),
(181,857,o),
(154,857,cs),
(131,857,o),
(113,843,o),
(98,813,cs),
(10,642,l)
);
},
{
closed = 1;
nodes = (
(188,631,l),
(331,750,ls),
(359,773,o),
(370,791,o),
(370,809,cs),
(370,836,o),
(346,857,o),
(319,857,cs),
(296,857,o),
(279,842,o),
(263,813,cs),
(170,642,l)
);
}
);
width = 380;
}
);
note = hungarumlaut;
unicode = 733;
},
{
glyphname = hungarumlaut.cap;
layers = (
{
hints = (
{
horizontal = 1;
place = (965,-20);
target = down;
type = TopGhost;
},
{
horizontal = 1;
place = (964,-20);
target = down;
type = TopGhost;
},
{
horizontal = 1;
place = (821,21);
target = up;
type = BottomGhost;
}
);
layerId = m01;
shapes = (
{
closed = 1;
nodes = (
(219,821,l),
(371,863,ls),
(424,877,o),
(440,896,o),
(440,918,cs),
(440,944,o),
(420,964,o),
(397,964,cs),
(382,964,o),
(368,957,o),
(354,947,cs),
(209,842,l)
);
},
{
closed = 1;
nodes = (
(20,822,l),
(173,864,ls),
(226,878,o),
(242,898,o),
(242,921,cs),
(242,945,o),
(221,965,o),
(198,965,cs),
(183,965,o),
(169,958,o),
(155,948,cs),
(10,843,l)
);
}
);
width = 450;
}
);
note = hungarumlaut.cap;
},
{
glyphname = i;
kernLeft = dotlessi;
kernRight = dotlessi;
lastChange = "2024-01-04 18:46:21 +0000";
layers = (
{
hints = (
{
horizontal = 1;
place = (655,125);
type = Stem;
},
{
horizontal = 1;
place = (495,45);
type = Stem;
},
{
horizontal = 1;
place = (-10,59);
type = Stem;
},
{
place = (234,137);
type = Stem;
}
);
layerId = m01;
shapes = (
{
closed = 1;
nodes = (
(269,780,o),
(234,749,o),
(234,712,cs),
(234,678,o),
(258,655,o),
(296,655,cs),
(334,655,o),
(371,689,o),
(371,725,cs),
(371,756,o),
(341,780,o),
(307,780,cs)
);
},
{
closed = 1;
nodes = (
(292,523,o),
(265,540,o),
(227,540,cs),
(174,540,o),
(109,506,o),
(64,451,c),
(87,433,l),
(117,471,o),
(151,495,o),
(175,495,cs),
(184,495,o),
(188,492,o),
(188,486,cs),
(188,482,o),
(187,476,o),
(183,467,c),
(292,491,l)
);
},
{
closed = 1;
nodes = (
(23,8,o),
(49,-10,o),
(88,-10,cs),
(138,-10,o),
(213,38,o),
(275,117,c),
(255,129,l),
(190,65,o),
(169,49,o),
(150,49,cs),
(138,49,o),
(130,57,o),
(130,68,c),
(23,46,l)
);
}
);
width = 340;
}
);
note = i;
unicode = 105;
},
{
glyphname = iacute;
kernLeft = dotlessi;
kernRight = dotlessi;
lastChange = "2024-01-04 18:46:28 +0000";
layers = (
{
hints = (
{
horizontal = 1;
place = (857,-20);
target = down;
type = TopGhost;
},
{
horizontal = 1;
place = (495,45);
type = Stem;
},
{
horizontal = 1;
place = (-10,59);
type = Stem;
},
{
horizontal = 1;
place = (655,125);
type = Stem;
},
{
horizontal = 1;
place = (495,45);
type = Stem;
},
{
horizontal = 1;
place = (-10,59);
type = Stem;
},
{
place = (234,137);
type = Stem;
}
);
layerId = m01;
shapes = (
{
closed = 1;
nodes = (
(288,631,l),
(450,750,ls),
(486,776,o),
(500,795,o),
(500,815,cs),
(500,839,o),
(479,857,o),
(451,857,cs),
(428,857,o),
(408,843,o),
(388,813,cs),
(272,642,l)
);
},
{
closed = 1;
nodes = (
(292,523,o),
(265,540,o),
(227,540,cs),
(174,540,o),
(109,506,o),
(64,451,c),
(87,433,l),
(117,471,o),
(151,495,o),
(175,495,cs),
(184,495,o),
(188,492,o),
(188,486,cs),
(188,482,o),
(187,476,o),
(183,467,c),
(292,491,l)
);
},
{
closed = 1;
nodes = (
(23,8,o),
(49,-10,o),
(88,-10,cs),
(138,-10,o),
(213,38,o),
(275,117,c),
(255,129,l),
(190,65,o),
(169,49,o),
(150,49,cs),
(138,49,o),
(130,57,o),
(130,68,c),
(23,46,l)
);
}
);
width = 340;
}
);
note = iacute;
unicode = 237;
},
